<?xml version="1.0" encoding="utf-8" standalone="no"?>
<!DOCTYPE svg PUBLIC "-//W3C//DTD SVG 1.1//EN"
  "http://www.w3.org/Graphics/SVG/1.1/DTD/svg11.dtd">
<svg xmlns:xlink="http://www.w3.org/1999/xlink" width="432pt" height="288pt" viewBox="0 0 432 288" xmlns="http://www.w3.org/2000/svg" version="1.1">
 <metadata>
  <rdf:RDF xmlns:dc="http://purl.org/dc/elements/1.1/" xmlns:cc="http://creativecommons.org/ns#" xmlns:rdf="http://www.w3.org/1999/02/22-rdf-syntax-ns#">
   <cc:Work>
    <dc:type rdf:resource="http://purl.org/dc/dcmitype/StillImage"/>
    <dc:date>2022-11-18T10:04:21.279994</dc:date>
    <dc:format>image/svg+xml</dc:format>
    <dc:creator>
     <cc:Agent>
      <dc:title>Matplotlib v3.5.2, https://matplotlib.org/</dc:title>
     </cc:Agent>
    </dc:creator>
   </cc:Work>
  </rdf:RDF>
 </metadata>
 <defs>
  <style type="text/css">*{stroke-linejoin: round; stroke-linecap: butt}</style>
 </defs>
 <g id="figure_1">
  <g id="patch_1">
   <path d="M 0 288 
L 432 288 
L 432 0 
L 0 0 
L 0 288 
z
" style="fill: none"/>
  </g>
  <g id="axes_1">
   <g id="patch_2">
    <path d="M 54 252 
L 388.8 252 
L 388.8 34.56 
L 54 34.56 
z
" style="fill: #ffffff"/>
   </g>
   <g id="patch_3">
    <path d="M 69.218182 252 
L 72.261818 252 
L 72.261818 250.92926 
L 69.218182 250.92926 
z
" clip-path="url(#p72086c6b93)" style="fill: #1f77b4"/>
   </g>
   <g id="patch_4">
    <path d="M 72.261818 252 
L 75.305455 252 
L 75.305455 241.986825 
L 72.261818 241.986825 
z
" clip-path="url(#p72086c6b93)" style="fill: #1f77b4"/>
   </g>
   <g id="patch_5">
    <path d="M 75.305455 252 
L 78.349091 252 
L 78.349091 224.977562 
L 75.305455 224.977562 
z
" clip-path="url(#p72086c6b93)" style="fill: #1f77b4"/>
   </g>
   <g id="patch_6">
    <path d="M 78.349091 252 
L 81.392727 252 
L 81.392727 202.644617 
L 78.349091 202.644617 
z
" clip-path="url(#p72086c6b93)" style="fill: #1f77b4"/>
   </g>
   <g id="patch_7">
    <path d="M 81.392727 252 
L 84.436364 252 
L 84.436364 180.715702 
L 81.392727 180.715702 
z
" clip-path="url(#p72086c6b93)" style="fill: #1f77b4"/>
   </g>
   <g id="patch_8">
    <path d="M 84.436364 252 
L 87.48 252 
L 87.48 160.046408 
L 84.436364 160.046408 
z
" clip-path="url(#p72086c6b93)" style="fill: #1f77b4"/>
   </g>
   <g id="patch_9">
    <path d="M 87.48 252 
L 90.523636 252 
L 90.523636 139.149456 
L 87.48 139.149456 
z
" clip-path="url(#p72086c6b93)" style="fill: #1f77b4"/>
   </g>
   <g id="patch_10">
    <path d="M 90.523636 252 
L 93.567273 252 
L 93.567273 122.016357 
L 90.523636 122.016357 
z
" clip-path="url(#p72086c6b93)" style="fill: #1f77b4"/>
   </g>
   <g id="patch_11">
    <path d="M 93.567273 252 
L 96.610909 252 
L 96.610909 107.35872 
L 93.567273 107.35872 
z
" clip-path="url(#p72086c6b93)" style="fill: #1f77b4"/>
   </g>
   <g id="patch_12">
    <path d="M 96.610909 252 
L 99.654545 252 
L 99.654545 93.844374 
L 96.610909 93.844374 
z
" clip-path="url(#p72086c6b93)" style="fill: #1f77b4"/>
   </g>
   <g id="patch_13">
    <path d="M 99.654545 252 
L 102.698182 252 
L 102.698182 82.811744 
L 99.654545 82.811744 
z
" clip-path="url(#p72086c6b93)" style="fill: #1f77b4"/>
   </g>
   <g id="patch_14">
    <path d="M 102.698182 252 
L 105.741818 252 
L 105.741818 73.772994 
L 102.698182 73.772994 
z
" clip-path="url(#p72086c6b93)" style="fill: #1f77b4"/>
   </g>
   <g id="patch_15">
    <path d="M 105.741818 252 
L 108.785455 252 
L 108.785455 65.576075 
L 105.741818 65.576075 
z
" clip-path="url(#p72086c6b93)" style="fill: #1f77b4"/>
   </g>
   <g id="patch_16">
    <path d="M 108.785455 252 
L 111.829091 252 
L 111.829091 60.515075 
L 108.785455 60.515075 
z
" clip-path="url(#p72086c6b93)" style="fill: #1f77b4"/>
   </g>
   <g id="patch_17">
    <path d="M 111.829091 252 
L 114.872727 252 
L 114.872727 55.133853 
L 111.829091 55.133853 
z
" clip-path="url(#p72086c6b93)" style="fill: #1f77b4"/>
   </g>
   <g id="patch_18">
    <path d="M 114.872727 252 
L 117.916364 252 
L 117.916364 50.885916 
L 114.872727 50.885916 
z
" clip-path="url(#p72086c6b93)" style="fill: #1f77b4"/>
   </g>
   <g id="patch_19">
    <path d="M 117.916364 252 
L 120.96 252 
L 120.96 49.653813 
L 117.916364 49.653813 
z
" clip-path="url(#p72086c6b93)" style="fill: #1f77b4"/>
   </g>
   <g id="patch_20">
    <path d="M 120.96 252 
L 124.003636 252 
L 124.003636 46.74305 
L 120.96 46.74305 
z
" clip-path="url(#p72086c6b93)" style="fill: #1f77b4"/>
   </g>
   <g id="patch_21">
    <path d="M 124.003636 252 
L 127.047273 252 
L 127.047273 46.637978 
L 124.003636 46.637978 
z
" clip-path="url(#p72086c6b93)" style="fill: #1f77b4"/>
   </g>
   <g id="patch_22">
    <path d="M 127.047273 252 
L 130.090909 252 
L 130.090909 45.349587 
L 127.047273 45.349587 
z
" clip-path="url(#p72086c6b93)" style="fill: #1f77b4"/>
   </g>
   <g id="patch_23">
    <path d="M 130.090909 252 
L 133.134545 252 
L 133.134545 45.086905 
L 130.090909 45.086905 
z
" clip-path="url(#p72086c6b93)" style="fill: #1f77b4"/>
   </g>
   <g id="patch_24">
    <path d="M 133.134545 252 
L 136.178182 252 
L 136.178182 44.914286 
L 133.134545 44.914286 
z
" clip-path="url(#p72086c6b93)" style="fill: #1f77b4"/>
   </g>
   <g id="patch_25">
    <path d="M 136.178182 252 
L 139.221818 252 
L 139.221818 46.899409 
L 136.178182 46.899409 
z
" clip-path="url(#p72086c6b93)" style="fill: #1f77b4"/>
   </g>
   <g id="patch_26">
    <path d="M 139.221818 252 
L 142.265455 252 
L 142.265455 48.666881 
L 139.221818 48.666881 
z
" clip-path="url(#p72086c6b93)" style="fill: #1f77b4"/>
   </g>
   <g id="patch_27">
    <path d="M 142.265455 252 
L 145.309091 252 
L 145.309091 49.931505 
L 142.265455 49.931505 
z
" clip-path="url(#p72086c6b93)" style="fill: #1f77b4"/>
   </g>
   <g id="patch_28">
    <path d="M 145.309091 252 
L 148.352727 252 
L 148.352727 50.893421 
L 145.309091 50.893421 
z
" clip-path="url(#p72086c6b93)" style="fill: #1f77b4"/>
   </g>
   <g id="patch_29">
    <path d="M 148.352727 252 
L 151.396364 252 
L 151.396364 52.981114 
L 148.352727 52.981114 
z
" clip-path="url(#p72086c6b93)" style="fill: #1f77b4"/>
   </g>
   <g id="patch_30">
    <path d="M 151.396364 252 
L 154.44 252 
L 154.44 55.54914 
L 151.396364 55.54914 
z
" clip-path="url(#p72086c6b93)" style="fill: #1f77b4"/>
   </g>
   <g id="patch_31">
    <path d="M 154.44 252 
L 157.483636 252 
L 157.483636 58.266019 
L 154.44 58.266019 
z
" clip-path="url(#p72086c6b93)" style="fill: #1f77b4"/>
   </g>
   <g id="patch_32">
    <path d="M 157.483636 252 
L 160.527273 252 
L 160.527273 59.508128 
L 157.483636 59.508128 
z
" clip-path="url(#p72086c6b93)" style="fill: #1f77b4"/>
   </g>
   <g id="patch_33">
    <path d="M 160.527273 252 
L 163.570909 252 
L 163.570909 62.602769 
L 160.527273 62.602769 
z
" clip-path="url(#p72086c6b93)" style="fill: #1f77b4"/>
   </g>
   <g id="patch_34">
    <path d="M 163.570909 252 
L 166.614545 252 
L 166.614545 65.759952 
L 163.570909 65.759952 
z
" clip-path="url(#p72086c6b93)" style="fill: #1f77b4"/>
   </g>
   <g id="patch_35">
    <path d="M 166.614545 252 
L 169.658182 252 
L 169.658182 68.105324 
L 166.614545 68.105324 
z
" clip-path="url(#p72086c6b93)" style="fill: #1f77b4"/>
   </g>
   <g id="patch_36">
    <path d="M 169.658182 252 
L 172.701818 252 
L 172.701818 71.174947 
L 169.658182 71.174947 
z
" clip-path="url(#p72086c6b93)" style="fill: #1f77b4"/>
   </g>
   <g id="patch_37">
    <path d="M 172.701818 252 
L 175.745455 252 
L 175.745455 74.454715 
L 172.701818 74.454715 
z
" clip-path="url(#p72086c6b93)" style="fill: #1f77b4"/>
   </g>
   <g id="patch_38">
    <path d="M 175.745455 252 
L 178.789091 252 
L 178.789091 76.796334 
L 175.745455 76.796334 
z
" clip-path="url(#p72086c6b93)" style="fill: #1f77b4"/>
   </g>
   <g id="patch_39">
    <path d="M 178.789091 252 
L 181.832727 252 
L 181.832727 79.106682 
L 178.789091 79.106682 
z
" clip-path="url(#p72086c6b93)" style="fill: #1f77b4"/>
   </g>
   <g id="patch_40">
    <path d="M 181.832727 252 
L 184.876364 252 
L 184.876364 82.735442 
L 181.832727 82.735442 
z
" clip-path="url(#p72086c6b93)" style="fill: #1f77b4"/>
   </g>
   <g id="patch_41">
    <path d="M 184.876364 252 
L 187.92 252 
L 187.92 83.90375 
L 184.876364 83.90375 
z
" clip-path="url(#p72086c6b93)" style="fill: #1f77b4"/>
   </g>
   <g id="patch_42">
    <path d="M 187.92 252 
L 190.963636 252 
L 190.963636 87.159751 
L 187.92 87.159751 
z
" clip-path="url(#p72086c6b93)" style="fill: #1f77b4"/>
   </g>
   <g id="patch_43">
    <path d="M 190.963636 252 
L 194.007273 252 
L 194.007273 90.369471 
L 190.963636 90.369471 
z
" clip-path="url(#p72086c6b93)" style="fill: #1f77b4"/>
   </g>
   <g id="patch_44">
    <path d="M 194.007273 252 
L 197.050909 252 
L 197.050909 93.243959 
L 194.007273 93.243959 
z
" clip-path="url(#p72086c6b93)" style="fill: #1f77b4"/>
   </g>
   <g id="patch_45">
    <path d="M 197.050909 252 
L 200.094545 252 
L 200.094545 96.150969 
L 197.050909 96.150969 
z
" clip-path="url(#p72086c6b93)" style="fill: #1f77b4"/>
   </g>
   <g id="patch_46">
    <path d="M 200.094545 252 
L 203.138182 252 
L 203.138182 99.118021 
L 200.094545 99.118021 
z
" clip-path="url(#p72086c6b93)" style="fill: #1f77b4"/>
   </g>
   <g id="patch_47">
    <path d="M 203.138182 252 
L 206.181818 252 
L 206.181818 101.492163 
L 203.138182 101.492163 
z
" clip-path="url(#p72086c6b93)" style="fill: #1f77b4"/>
   </g>
   <g id="patch_48">
    <path d="M 206.181818 252 
L 209.225455 252 
L 209.225455 104.588054 
L 206.181818 104.588054 
z
" clip-path="url(#p72086c6b93)" style="fill: #1f77b4"/>
   </g>
   <g id="patch_49">
    <path d="M 209.225455 252 
L 212.269091 252 
L 212.269091 107.279916 
L 209.225455 107.279916 
z
" clip-path="url(#p72086c6b93)" style="fill: #1f77b4"/>
   </g>
   <g id="patch_50">
    <path d="M 212.269091 252 
L 215.312727 252 
L 215.312727 109.782897 
L 212.269091 109.782897 
z
" clip-path="url(#p72086c6b93)" style="fill: #1f77b4"/>
   </g>
   <g id="patch_51">
    <path d="M 215.312727 252 
L 218.356364 252 
L 218.356364 111.370245 
L 215.312727 111.370245 
z
" clip-path="url(#p72086c6b93)" style="fill: #1f77b4"/>
   </g>
   <g id="patch_52">
    <path d="M 218.356364 252 
L 221.4 252 
L 221.4 113.924511 
L 218.356364 113.924511 
z
" clip-path="url(#p72086c6b93)" style="fill: #1f77b4"/>
   </g>
   <g id="patch_53">
    <path d="M 221.4 252 
L 224.443636 252 
L 224.443636 117.435689 
L 221.4 117.435689 
z
" clip-path="url(#p72086c6b93)" style="fill: #1f77b4"/>
   </g>
   <g id="patch_54">
    <path d="M 224.443636 252 
L 227.487273 252 
L 227.487273 119.355767 
L 224.443636 119.355767 
z
" clip-path="url(#p72086c6b93)" style="fill: #1f77b4"/>
   </g>
   <g id="patch_55">
    <path d="M 227.487273 252 
L 230.530909 252 
L 230.530909 121.762432 
L 227.487273 121.762432 
z
" clip-path="url(#p72086c6b93)" style="fill: #1f77b4"/>
   </g>
   <g id="patch_56">
    <path d="M 230.530909 252 
L 233.574545 252 
L 233.574545 123.765067 
L 230.530909 123.765067 
z
" clip-path="url(#p72086c6b93)" style="fill: #1f77b4"/>
   </g>
   <g id="patch_57">
    <path d="M 233.574545 252 
L 236.618182 252 
L 236.618182 127.739065 
L 233.574545 127.739065 
z
" clip-path="url(#p72086c6b93)" style="fill: #1f77b4"/>
   </g>
   <g id="patch_58">
    <path d="M 236.618182 252 
L 239.661818 252 
L 239.661818 128.851084 
L 236.618182 128.851084 
z
" clip-path="url(#p72086c6b93)" style="fill: #1f77b4"/>
   </g>
   <g id="patch_59">
    <path d="M 239.661818 252 
L 242.705455 252 
L 242.705455 131.426615 
L 239.661818 131.426615 
z
" clip-path="url(#p72086c6b93)" style="fill: #1f77b4"/>
   </g>
   <g id="patch_60">
    <path d="M 242.705455 252 
L 245.749091 252 
L 245.749091 133.466776 
L 242.705455 133.466776 
z
" clip-path="url(#p72086c6b93)" style="fill: #1f77b4"/>
   </g>
   <g id="patch_61">
    <path d="M 245.749091 252 
L 248.792727 252 
L 248.792727 134.972818 
L 245.749091 134.972818 
z
" clip-path="url(#p72086c6b93)" style="fill: #1f77b4"/>
   </g>
   <g id="patch_62">
    <path d="M 248.792727 252 
L 251.836364 252 
L 251.836364 138.127499 
L 248.792727 138.127499 
z
" clip-path="url(#p72086c6b93)" style="fill: #1f77b4"/>
   </g>
   <g id="patch_63">
    <path d="M 251.836364 252 
L 254.88 252 
L 254.88 140.068842 
L 251.836364 140.068842 
z
" clip-path="url(#p72086c6b93)" style="fill: #1f77b4"/>
   </g>
   <g id="patch_64">
    <path d="M 254.88 252 
L 257.923636 252 
L 257.923636 141.432285 
L 254.88 141.432285 
z
" clip-path="url(#p72086c6b93)" style="fill: #1f77b4"/>
   </g>
   <g id="patch_65">
    <path d="M 257.923636 252 
L 260.967273 252 
L 260.967273 144.424354 
L 257.923636 144.424354 
z
" clip-path="url(#p72086c6b93)" style="fill: #1f77b4"/>
   </g>
   <g id="patch_66">
    <path d="M 260.967273 252 
L 264.010909 252 
L 264.010909 145.253677 
L 260.967273 145.253677 
z
" clip-path="url(#p72086c6b93)" style="fill: #1f77b4"/>
   </g>
   <g id="patch_67">
    <path d="M 264.010909 252 
L 267.054545 252 
L 267.054545 147.586541 
L 264.010909 147.586541 
z
" clip-path="url(#p72086c6b93)" style="fill: #1f77b4"/>
   </g>
   <g id="patch_68">
    <path d="M 267.054545 252 
L 270.098182 252 
L 270.098182 149.043799 
L 267.054545 149.043799 
z
" clip-path="url(#p72086c6b93)" style="fill: #1f77b4"/>
   </g>
   <g id="patch_69">
    <path d="M 270.098182 252 
L 273.141818 252 
L 273.141818 151.122736 
L 270.098182 151.122736 
z
" clip-path="url(#p72086c6b93)" style="fill: #1f77b4"/>
   </g>
   <g id="patch_70">
    <path d="M 273.141818 252 
L 276.185455 252 
L 276.185455 153.072835 
L 273.141818 153.072835 
z
" clip-path="url(#p72086c6b93)" style="fill: #1f77b4"/>
   </g>
   <g id="patch_71">
    <path d="M 276.185455 252 
L 279.229091 252 
L 279.229091 154.386243 
L 276.185455 154.386243 
z
" clip-path="url(#p72086c6b93)" style="fill: #1f77b4"/>
   </g>
   <g id="patch_72">
    <path d="M 279.229091 252 
L 282.272727 252 
L 282.272727 156.282555 
L 279.229091 156.282555 
z
" clip-path="url(#p72086c6b93)" style="fill: #1f77b4"/>
   </g>
   <g id="patch_73">
    <path d="M 282.272727 252 
L 285.316364 252 
L 285.316364 158.100062 
L 282.272727 158.100062 
z
" clip-path="url(#p72086c6b93)" style="fill: #1f77b4"/>
   </g>
   <g id="patch_74">
    <path d="M 285.316364 252 
L 288.36 252 
L 288.36 159.422226 
L 285.316364 159.422226 
z
" clip-path="url(#p72086c6b93)" style="fill: #1f77b4"/>
   </g>
   <g id="patch_75">
    <path d="M 288.36 252 
L 291.403636 252 
L 291.403636 160.788171 
L 288.36 160.788171 
z
" clip-path="url(#p72086c6b93)" style="fill: #1f77b4"/>
   </g>
   <g id="patch_76">
    <path d="M 291.403636 252 
L 294.447273 252 
L 294.447273 163.527565 
L 291.403636 163.527565 
z
" clip-path="url(#p72086c6b93)" style="fill: #1f77b4"/>
   </g>
   <g id="patch_77">
    <path d="M 294.447273 252 
L 297.490909 252 
L 297.490909 164.05543 
L 294.447273 164.05543 
z
" clip-path="url(#p72086c6b93)" style="fill: #1f77b4"/>
   </g>
   <g id="patch_78">
    <path d="M 297.490909 252 
L 300.534545 252 
L 300.534545 165.774119 
L 297.490909 165.774119 
z
" clip-path="url(#p72086c6b93)" style="fill: #1f77b4"/>
   </g>
   <g id="patch_79">
    <path d="M 300.534545 252 
L 303.578182 252 
L 303.578182 167.026235 
L 300.534545 167.026235 
z
" clip-path="url(#p72086c6b93)" style="fill: #1f77b4"/>
   </g>
   <g id="patch_80">
    <path d="M 303.578182 252 
L 306.621818 252 
L 306.621818 169.090162 
L 303.578182 169.090162 
z
" clip-path="url(#p72086c6b93)" style="fill: #1f77b4"/>
   </g>
   <g id="patch_81">
    <path d="M 306.621818 252 
L 309.665455 252 
L 309.665455 169.899472 
L 306.621818 169.899472 
z
" clip-path="url(#p72086c6b93)" style="fill: #1f77b4"/>
   </g>
   <g id="patch_82">
    <path d="M 309.665455 252 
L 312.709091 252 
L 312.709091 171.77702 
L 309.665455 171.77702 
z
" clip-path="url(#p72086c6b93)" style="fill: #1f77b4"/>
   </g>
   <g id="patch_83">
    <path d="M 312.709091 252 
L 315.752727 252 
L 315.752727 172.748942 
L 312.709091 172.748942 
z
" clip-path="url(#p72086c6b93)" style="fill: #1f77b4"/>
   </g>
   <g id="patch_84">
    <path d="M 315.752727 252 
L 318.796364 252 
L 318.796364 174.244977 
L 315.752727 174.244977 
z
" clip-path="url(#p72086c6b93)" style="fill: #1f77b4"/>
   </g>
   <g id="patch_85">
    <path d="M 318.796364 252 
L 321.84 252 
L 321.84 175.674716 
L 318.796364 175.674716 
z
" clip-path="url(#p72086c6b93)" style="fill: #1f77b4"/>
   </g>
   <g id="patch_86">
    <path d="M 321.84 252 
L 324.883636 252 
L 324.883636 177.379645 
L 321.84 177.379645 
z
" clip-path="url(#p72086c6b93)" style="fill: #1f77b4"/>
   </g>
   <g id="patch_87">
    <path d="M 324.883636 252 
L 327.927273 252 
L 327.927273 178.465396 
L 324.883636 178.465396 
z
" clip-path="url(#p72086c6b93)" style="fill: #1f77b4"/>
   </g>
   <g id="patch_88">
    <path d="M 327.927273 252 
L 330.970909 252 
L 330.970909 180.000207 
L 327.927273 180.000207 
z
" clip-path="url(#p72086c6b93)" style="fill: #1f77b4"/>
   </g>
   <g id="patch_89">
    <path d="M 330.970909 252 
L 334.014545 252 
L 334.014545 180.688183 
L 330.970909 180.688183 
z
" clip-path="url(#p72086c6b93)" style="fill: #1f77b4"/>
   </g>
   <g id="patch_90">
    <path d="M 334.014545 252 
L 337.058182 252 
L 337.058182 182.135434 
L 334.014545 182.135434 
z
" clip-path="url(#p72086c6b93)" style="fill: #1f77b4"/>
   </g>
   <g id="patch_91">
    <path d="M 337.058182 252 
L 340.101818 252 
L 340.101818 183.146133 
L 337.058182 183.146133 
z
" clip-path="url(#p72086c6b93)" style="fill: #1f77b4"/>
   </g>
   <g id="patch_92">
    <path d="M 340.101818 252 
L 343.145455 252 
L 343.145455 184.445782 
L 340.101818 184.445782 
z
" clip-path="url(#p72086c6b93)" style="fill: #1f77b4"/>
   </g>
   <g id="patch_93">
    <path d="M 343.145455 252 
L 346.189091 252 
L 346.189091 185.366418 
L 343.145455 185.366418 
z
" clip-path="url(#p72086c6b93)" style="fill: #1f77b4"/>
   </g>
   <g id="patch_94">
    <path d="M 346.189091 252 
L 349.232727 252 
L 349.232727 186.205749 
L 346.189091 186.205749 
z
" clip-path="url(#p72086c6b93)" style="fill: #1f77b4"/>
   </g>
   <g id="patch_95">
    <path d="M 349.232727 252 
L 352.276364 252 
L 352.276364 187.325273 
L 349.232727 187.325273 
z
" clip-path="url(#p72086c6b93)" style="fill: #1f77b4"/>
   </g>
   <g id="patch_96">
    <path d="M 352.276364 252 
L 355.32 252 
L 355.32 188.701224 
L 352.276364 188.701224 
z
" clip-path="url(#p72086c6b93)" style="fill: #1f77b4"/>
   </g>
   <g id="patch_97">
    <path d="M 355.32 252 
L 358.363636 252 
L 358.363636 189.773216 
L 355.32 189.773216 
z
" clip-path="url(#p72086c6b93)" style="fill: #1f77b4"/>
   </g>
   <g id="patch_98">
    <path d="M 358.363636 252 
L 361.407273 252 
L 361.407273 190.842705 
L 358.363636 190.842705 
z
" clip-path="url(#p72086c6b93)" style="fill: #1f77b4"/>
   </g>
   <g id="patch_99">
    <path d="M 361.407273 252 
L 364.450909 252 
L 364.450909 192.047288 
L 361.407273 192.047288 
z
" clip-path="url(#p72086c6b93)" style="fill: #1f77b4"/>
   </g>
   <g id="patch_100">
    <path d="M 364.450909 252 
L 367.494545 252 
L 367.494545 192.558892 
L 364.450909 192.558892 
z
" clip-path="url(#p72086c6b93)" style="fill: #1f77b4"/>
   </g>
   <g id="patch_101">
    <path d="M 367.494545 252 
L 370.538182 252 
L 370.538182 193.742211 
L 367.494545 193.742211 
z
" clip-path="url(#p72086c6b93)" style="fill: #1f77b4"/>
   </g>
   <g id="patch_102">
    <path d="M 370.538182 252 
L 373.581818 252 
L 373.581818 194.253814 
L 370.538182 194.253814 
z
" clip-path="url(#p72086c6b93)" style="fill: #1f77b4"/>
   </g>
   <g id="matplotlib.axis_1">
    <g id="xtick_1">
     <g id="line2d_1">
      <defs>
       <path id="m1c880cad31" d="M 0 0 
L 0 3.5 
" style="stroke: #000000; stroke-width: 0.8"/>
      </defs>
      <g>
       <use xlink:href="#m1c880cad31" x="68.670569" y="252" style="stroke: #000000; stroke-width: 0.8"/>
      </g>
     </g>
     <g id="text_1">
      <!-- 0 -->
      <g transform="translate(65.489319 266.598437)scale(0.1 -0.1)">
       <defs>
        <path id="DejaVuSans-30" d="M 2034 4250 
Q 1547 4250 1301 3770 
Q 1056 3291 1056 2328 
Q 1056 1369 1301 889 
Q 1547 409 2034 409 
Q 2525 409 2770 889 
Q 3016 1369 3016 2328 
Q 3016 3291 2770 3770 
Q 2525 4250 2034 4250 
z
M 2034 4750 
Q 2819 4750 3233 4129 
Q 3647 3509 3647 2328 
Q 3647 1150 3233 529 
Q 2819 -91 2034 -91 
Q 1250 -91 836 529 
Q 422 1150 422 2328 
Q 422 3509 836 4129 
Q 1250 4750 2034 4750 
z
" transform="scale(0.015625)"/>
       </defs>
       <use xlink:href="#DejaVuSans-30"/>
      </g>
     </g>
    </g>
    <g id="xtick_2">
     <g id="line2d_2">
      <g>
       <use xlink:href="#m1c880cad31" x="129.65282" y="252" style="stroke: #000000; stroke-width: 0.8"/>
      </g>
     </g>
     <g id="text_2">
      <!-- 20 -->
      <g transform="translate(123.29032 266.598437)scale(0.1 -0.1)">
       <defs>
        <path id="DejaVuSans-32" d="M 1228 531 
L 3431 531 
L 3431 0 
L 469 0 
L 469 531 
Q 828 903 1448 1529 
Q 2069 2156 2228 2338 
Q 2531 2678 2651 2914 
Q 2772 3150 2772 3378 
Q 2772 3750 2511 3984 
Q 2250 4219 1831 4219 
Q 1534 4219 1204 4116 
Q 875 4013 500 3803 
L 500 4441 
Q 881 4594 1212 4672 
Q 1544 4750 1819 4750 
Q 2544 4750 2975 4387 
Q 3406 4025 3406 3419 
Q 3406 3131 3298 2873 
Q 3191 2616 2906 2266 
Q 2828 2175 2409 1742 
Q 1991 1309 1228 531 
z
" transform="scale(0.015625)"/>
       </defs>
       <use xlink:href="#DejaVuSans-32"/>
       <use xlink:href="#DejaVuSans-30" x="63.623047"/>
      </g>
     </g>
    </g>
    <g id="xtick_3">
     <g id="line2d_3">
      <g>
       <use xlink:href="#m1c880cad31" x="190.635071" y="252" style="stroke: #000000; stroke-width: 0.8"/>
      </g>
     </g>
     <g id="text_3">
      <!-- 40 -->
      <g transform="translate(184.272571 266.598437)scale(0.1 -0.1)">
       <defs>
        <path id="DejaVuSans-34" d="M 2419 4116 
L 825 1625 
L 2419 1625 
L 2419 4116 
z
M 2253 4666 
L 3047 4666 
L 3047 1625 
L 3713 1625 
L 3713 1100 
L 3047 1100 
L 3047 0 
L 2419 0 
L 2419 1100 
L 313 1100 
L 313 1709 
L 2253 4666 
z
" transform="scale(0.015625)"/>
       </defs>
       <use xlink:href="#DejaVuSans-34"/>
       <use xlink:href="#DejaVuSans-30" x="63.623047"/>
      </g>
     </g>
    </g>
    <g id="xtick_4">
     <g id="line2d_4">
      <g>
       <use xlink:href="#m1c880cad31" x="251.617322" y="252" style="stroke: #000000; stroke-width: 0.8"/>
      </g>
     </g>
     <g id="text_4">
      <!-- 60 -->
      <g transform="translate(245.254822 266.598437)scale(0.1 -0.1)">
       <defs>
        <path id="DejaVuSans-36" d="M 2113 2584 
Q 1688 2584 1439 2293 
Q 1191 2003 1191 1497 
Q 1191 994 1439 701 
Q 1688 409 2113 409 
Q 2538 409 2786 701 
Q 3034 994 3034 1497 
Q 3034 2003 2786 2293 
Q 2538 2584 2113 2584 
z
M 3366 4563 
L 3366 3988 
Q 3128 4100 2886 4159 
Q 2644 4219 2406 4219 
Q 1781 4219 1451 3797 
Q 1122 3375 1075 2522 
Q 1259 2794 1537 2939 
Q 1816 3084 2150 3084 
Q 2853 3084 3261 2657 
Q 3669 2231 3669 1497 
Q 3669 778 3244 343 
Q 2819 -91 2113 -91 
Q 1303 -91 875 529 
Q 447 1150 447 2328 
Q 447 3434 972 4092 
Q 1497 4750 2381 4750 
Q 2619 4750 2861 4703 
Q 3103 4656 3366 4563 
z
" transform="scale(0.015625)"/>
       </defs>
       <use xlink:href="#DejaVuSans-36"/>
       <use xlink:href="#DejaVuSans-30" x="63.623047"/>
      </g>
     </g>
    </g>
    <g id="xtick_5">
     <g id="line2d_5">
      <g>
       <use xlink:href="#m1c880cad31" x="312.599573" y="252" style="stroke: #000000; stroke-width: 0.8"/>
      </g>
     </g>
     <g id="text_5">
      <!-- 80 -->
      <g transform="translate(306.237073 266.598437)scale(0.1 -0.1)">
       <defs>
        <path id="DejaVuSans-38" d="M 2034 2216 
Q 1584 2216 1326 1975 
Q 1069 1734 1069 1313 
Q 1069 891 1326 650 
Q 1584 409 2034 409 
Q 2484 409 2743 651 
Q 3003 894 3003 1313 
Q 3003 1734 2745 1975 
Q 2488 2216 2034 2216 
z
M 1403 2484 
Q 997 2584 770 2862 
Q 544 3141 544 3541 
Q 544 4100 942 4425 
Q 1341 4750 2034 4750 
Q 2731 4750 3128 4425 
Q 3525 4100 3525 3541 
Q 3525 3141 3298 2862 
Q 3072 2584 2669 2484 
Q 3125 2378 3379 2068 
Q 3634 1759 3634 1313 
Q 3634 634 3220 271 
Q 2806 -91 2034 -91 
Q 1263 -91 848 271 
Q 434 634 434 1313 
Q 434 1759 690 2068 
Q 947 2378 1403 2484 
z
M 1172 3481 
Q 1172 3119 1398 2916 
Q 1625 2713 2034 2713 
Q 2441 2713 2670 2916 
Q 2900 3119 2900 3481 
Q 2900 3844 2670 4047 
Q 2441 4250 2034 4250 
Q 1625 4250 1398 4047 
Q 1172 3844 1172 3481 
z
" transform="scale(0.015625)"/>
       </defs>
       <use xlink:href="#DejaVuSans-38"/>
       <use xlink:href="#DejaVuSans-30" x="63.623047"/>
      </g>
     </g>
    </g>
    <g id="xtick_6">
     <g id="line2d_6">
      <g>
       <use xlink:href="#m1c880cad31" x="373.581824" y="252" style="stroke: #000000; stroke-width: 0.8"/>
      </g>
     </g>
     <g id="text_6">
      <!-- 100 -->
      <g transform="translate(364.038074 266.598437)scale(0.1 -0.1)">
       <defs>
        <path id="DejaVuSans-31" d="M 794 531 
L 1825 531 
L 1825 4091 
L 703 3866 
L 703 4441 
L 1819 4666 
L 2450 4666 
L 2450 531 
L 3481 531 
L 3481 0 
L 794 0 
L 794 531 
z
" transform="scale(0.015625)"/>
       </defs>
       <use xlink:href="#DejaVuSans-31"/>
       <use xlink:href="#DejaVuSans-30" x="63.623047"/>
       <use xlink:href="#DejaVuSans-30" x="127.246094"/>
      </g>
     </g>
    </g>
    <g id="text_7">
     <!-- Maximum circle of confusion [px] -->
     <g transform="translate(138.128906 280.276563)scale(0.1 -0.1)">
      <defs>
       <path id="DejaVuSans-4d" d="M 628 4666 
L 1569 4666 
L 2759 1491 
L 3956 4666 
L 4897 4666 
L 4897 0 
L 4281 0 
L 4281 4097 
L 3078 897 
L 2444 897 
L 1241 4097 
L 1241 0 
L 628 0 
L 628 4666 
z
" transform="scale(0.015625)"/>
       <path id="DejaVuSans-61" d="M 2194 1759 
Q 1497 1759 1228 1600 
Q 959 1441 959 1056 
Q 959 750 1161 570 
Q 1363 391 1709 391 
Q 2188 391 2477 730 
Q 2766 1069 2766 1631 
L 2766 1759 
L 2194 1759 
z
M 3341 1997 
L 3341 0 
L 2766 0 
L 2766 531 
Q 2569 213 2275 61 
Q 1981 -91 1556 -91 
Q 1019 -91 701 211 
Q 384 513 384 1019 
Q 384 1609 779 1909 
Q 1175 2209 1959 2209 
L 2766 2209 
L 2766 2266 
Q 2766 2663 2505 2880 
Q 2244 3097 1772 3097 
Q 1472 3097 1187 3025 
Q 903 2953 641 2809 
L 641 3341 
Q 956 3463 1253 3523 
Q 1550 3584 1831 3584 
Q 2591 3584 2966 3190 
Q 3341 2797 3341 1997 
z
" transform="scale(0.015625)"/>
       <path id="DejaVuSans-78" d="M 3513 3500 
L 2247 1797 
L 3578 0 
L 2900 0 
L 1881 1375 
L 863 0 
L 184 0 
L 1544 1831 
L 300 3500 
L 978 3500 
L 1906 2253 
L 2834 3500 
L 3513 3500 
z
" transform="scale(0.015625)"/>
       <path id="DejaVuSans-69" d="M 603 3500 
L 1178 3500 
L 1178 0 
L 603 0 
L 603 3500 
z
M 603 4863 
L 1178 4863 
L 1178 4134 
L 603 4134 
L 603 4863 
z
" transform="scale(0.015625)"/>
       <path id="DejaVuSans-6d" d="M 3328 2828 
Q 3544 3216 3844 3400 
Q 4144 3584 4550 3584 
Q 5097 3584 5394 3201 
Q 5691 2819 5691 2113 
L 5691 0 
L 5113 0 
L 5113 2094 
Q 5113 2597 4934 2840 
Q 4756 3084 4391 3084 
Q 3944 3084 3684 2787 
Q 3425 2491 3425 1978 
L 3425 0 
L 2847 0 
L 2847 2094 
Q 2847 2600 2669 2842 
Q 2491 3084 2119 3084 
Q 1678 3084 1418 2786 
Q 1159 2488 1159 1978 
L 1159 0 
L 581 0 
L 581 3500 
L 1159 3500 
L 1159 2956 
Q 1356 3278 1631 3431 
Q 1906 3584 2284 3584 
Q 2666 3584 2933 3390 
Q 3200 3197 3328 2828 
z
" transform="scale(0.015625)"/>
       <path id="DejaVuSans-75" d="M 544 1381 
L 544 3500 
L 1119 3500 
L 1119 1403 
Q 1119 906 1312 657 
Q 1506 409 1894 409 
Q 2359 409 2629 706 
Q 2900 1003 2900 1516 
L 2900 3500 
L 3475 3500 
L 3475 0 
L 2900 0 
L 2900 538 
Q 2691 219 2414 64 
Q 2138 -91 1772 -91 
Q 1169 -91 856 284 
Q 544 659 544 1381 
z
M 1991 3584 
L 1991 3584 
z
" transform="scale(0.015625)"/>
       <path id="DejaVuSans-20" transform="scale(0.015625)"/>
       <path id="DejaVuSans-63" d="M 3122 3366 
L 3122 2828 
Q 2878 2963 2633 3030 
Q 2388 3097 2138 3097 
Q 1578 3097 1268 2742 
Q 959 2388 959 1747 
Q 959 1106 1268 751 
Q 1578 397 2138 397 
Q 2388 397 2633 464 
Q 2878 531 3122 666 
L 3122 134 
Q 2881 22 2623 -34 
Q 2366 -91 2075 -91 
Q 1284 -91 818 406 
Q 353 903 353 1747 
Q 353 2603 823 3093 
Q 1294 3584 2113 3584 
Q 2378 3584 2631 3529 
Q 2884 3475 3122 3366 
z
" transform="scale(0.015625)"/>
       <path id="DejaVuSans-72" d="M 2631 2963 
Q 2534 3019 2420 3045 
Q 2306 3072 2169 3072 
Q 1681 3072 1420 2755 
Q 1159 2438 1159 1844 
L 1159 0 
L 581 0 
L 581 3500 
L 1159 3500 
L 1159 2956 
Q 1341 3275 1631 3429 
Q 1922 3584 2338 3584 
Q 2397 3584 2469 3576 
Q 2541 3569 2628 3553 
L 2631 2963 
z
" transform="scale(0.015625)"/>
       <path id="DejaVuSans-6c" d="M 603 4863 
L 1178 4863 
L 1178 0 
L 603 0 
L 603 4863 
z
" transform="scale(0.015625)"/>
       <path id="DejaVuSans-65" d="M 3597 1894 
L 3597 1613 
L 953 1613 
Q 991 1019 1311 708 
Q 1631 397 2203 397 
Q 2534 397 2845 478 
Q 3156 559 3463 722 
L 3463 178 
Q 3153 47 2828 -22 
Q 2503 -91 2169 -91 
Q 1331 -91 842 396 
Q 353 884 353 1716 
Q 353 2575 817 3079 
Q 1281 3584 2069 3584 
Q 2775 3584 3186 3129 
Q 3597 2675 3597 1894 
z
M 3022 2063 
Q 3016 2534 2758 2815 
Q 2500 3097 2075 3097 
Q 1594 3097 1305 2825 
Q 1016 2553 972 2059 
L 3022 2063 
z
" transform="scale(0.015625)"/>
       <path id="DejaVuSans-6f" d="M 1959 3097 
Q 1497 3097 1228 2736 
Q 959 2375 959 1747 
Q 959 1119 1226 758 
Q 1494 397 1959 397 
Q 2419 397 2687 759 
Q 2956 1122 2956 1747 
Q 2956 2369 2687 2733 
Q 2419 3097 1959 3097 
z
M 1959 3584 
Q 2709 3584 3137 3096 
Q 3566 2609 3566 1747 
Q 3566 888 3137 398 
Q 2709 -91 1959 -91 
Q 1206 -91 779 398 
Q 353 888 353 1747 
Q 353 2609 779 3096 
Q 1206 3584 1959 3584 
z
" transform="scale(0.015625)"/>
       <path id="DejaVuSans-66" d="M 2375 4863 
L 2375 4384 
L 1825 4384 
Q 1516 4384 1395 4259 
Q 1275 4134 1275 3809 
L 1275 3500 
L 2222 3500 
L 2222 3053 
L 1275 3053 
L 1275 0 
L 697 0 
L 697 3053 
L 147 3053 
L 147 3500 
L 697 3500 
L 697 3744 
Q 697 4328 969 4595 
Q 1241 4863 1831 4863 
L 2375 4863 
z
" transform="scale(0.015625)"/>
       <path id="DejaVuSans-6e" d="M 3513 2113 
L 3513 0 
L 2938 0 
L 2938 2094 
Q 2938 2591 2744 2837 
Q 2550 3084 2163 3084 
Q 1697 3084 1428 2787 
Q 1159 2491 1159 1978 
L 1159 0 
L 581 0 
L 581 3500 
L 1159 3500 
L 1159 2956 
Q 1366 3272 1645 3428 
Q 1925 3584 2291 3584 
Q 2894 3584 3203 3211 
Q 3513 2838 3513 2113 
z
" transform="scale(0.015625)"/>
       <path id="DejaVuSans-73" d="M 2834 3397 
L 2834 2853 
Q 2591 2978 2328 3040 
Q 2066 3103 1784 3103 
Q 1356 3103 1142 2972 
Q 928 2841 928 2578 
Q 928 2378 1081 2264 
Q 1234 2150 1697 2047 
L 1894 2003 
Q 2506 1872 2764 1633 
Q 3022 1394 3022 966 
Q 3022 478 2636 193 
Q 2250 -91 1575 -91 
Q 1294 -91 989 -36 
Q 684 19 347 128 
L 347 722 
Q 666 556 975 473 
Q 1284 391 1588 391 
Q 1994 391 2212 530 
Q 2431 669 2431 922 
Q 2431 1156 2273 1281 
Q 2116 1406 1581 1522 
L 1381 1569 
Q 847 1681 609 1914 
Q 372 2147 372 2553 
Q 372 3047 722 3315 
Q 1072 3584 1716 3584 
Q 2034 3584 2315 3537 
Q 2597 3491 2834 3397 
z
" transform="scale(0.015625)"/>
       <path id="DejaVuSans-5b" d="M 550 4863 
L 1875 4863 
L 1875 4416 
L 1125 4416 
L 1125 -397 
L 1875 -397 
L 1875 -844 
L 550 -844 
L 550 4863 
z
" transform="scale(0.015625)"/>
       <path id="DejaVuSans-70" d="M 1159 525 
L 1159 -1331 
L 581 -1331 
L 581 3500 
L 1159 3500 
L 1159 2969 
Q 1341 3281 1617 3432 
Q 1894 3584 2278 3584 
Q 2916 3584 3314 3078 
Q 3713 2572 3713 1747 
Q 3713 922 3314 415 
Q 2916 -91 2278 -91 
Q 1894 -91 1617 61 
Q 1341 213 1159 525 
z
M 3116 1747 
Q 3116 2381 2855 2742 
Q 2594 3103 2138 3103 
Q 1681 3103 1420 2742 
Q 1159 2381 1159 1747 
Q 1159 1113 1420 752 
Q 1681 391 2138 391 
Q 2594 391 2855 752 
Q 3116 1113 3116 1747 
z
" transform="scale(0.015625)"/>
       <path id="DejaVuSans-5d" d="M 1947 4863 
L 1947 -844 
L 622 -844 
L 622 -397 
L 1369 -397 
L 1369 4416 
L 622 4416 
L 622 4863 
L 1947 4863 
z
" transform="scale(0.015625)"/>
      </defs>
      <use xlink:href="#DejaVuSans-4d"/>
      <use xlink:href="#DejaVuSans-61" x="86.279297"/>
      <use xlink:href="#DejaVuSans-78" x="147.558594"/>
      <use xlink:href="#DejaVuSans-69" x="206.738281"/>
      <use xlink:href="#DejaVuSans-6d" x="234.521484"/>
      <use xlink:href="#DejaVuSans-75" x="331.933594"/>
      <use xlink:href="#DejaVuSans-6d" x="395.3125"/>
      <use xlink:href="#DejaVuSans-20" x="492.724609"/>
      <use xlink:href="#DejaVuSans-63" x="524.511719"/>
      <use xlink:href="#DejaVuSans-69" x="579.492188"/>
      <use xlink:href="#DejaVuSans-72" x="607.275391"/>
      <use xlink:href="#DejaVuSans-63" x="646.138672"/>
      <use xlink:href="#DejaVuSans-6c" x="701.119141"/>
      <use xlink:href="#DejaVuSans-65" x="728.902344"/>
      <use xlink:href="#DejaVuSans-20" x="790.425781"/>
      <use xlink:href="#DejaVuSans-6f" x="822.212891"/>
      <use xlink:href="#DejaVuSans-66" x="883.394531"/>
      <use xlink:href="#DejaVuSans-20" x="918.599609"/>
      <use xlink:href="#DejaVuSans-63" x="950.386719"/>
      <use xlink:href="#DejaVuSans-6f" x="1005.367188"/>
      <use xlink:href="#DejaVuSans-6e" x="1066.548828"/>
      <use xlink:href="#DejaVuSans-66" x="1129.927734"/>
      <use xlink:href="#DejaVuSans-75" x="1165.132812"/>
      <use xlink:href="#DejaVuSans-73" x="1228.511719"/>
      <use xlink:href="#DejaVuSans-69" x="1280.611328"/>
      <use xlink:href="#DejaVuSans-6f" x="1308.394531"/>
      <use xlink:href="#DejaVuSans-6e" x="1369.576172"/>
      <use xlink:href="#DejaVuSans-20" x="1432.955078"/>
      <use xlink:href="#DejaVuSans-5b" x="1464.742188"/>
      <use xlink:href="#DejaVuSans-70" x="1503.755859"/>
      <use xlink:href="#DejaVuSans-78" x="1567.232422"/>
      <use xlink:href="#DejaVuSans-5d" x="1626.412109"/>
     </g>
    </g>
   </g>
   <g id="matplotlib.axis_2">
    <g id="ytick_1">
     <g id="line2d_7">
      <defs>
       <path id="m0bc7ad9971" d="M 0 0 
L -3.5 0 
" style="stroke: #000000; stroke-width: 0.8"/>
      </defs>
      <g>
       <use xlink:href="#m0bc7ad9971" x="54" y="252" style="stroke: #000000; stroke-width: 0.8"/>
      </g>
     </g>
     <g id="text_8">
      <!-- 0.000 -->
      <g transform="translate(18.371875 255.799219)scale(0.1 -0.1)">
       <defs>
        <path id="DejaVuSans-2e" d="M 684 794 
L 1344 794 
L 1344 0 
L 684 0 
L 684 794 
z
" transform="scale(0.015625)"/>
       </defs>
       <use xlink:href="#DejaVuSans-30"/>
       <use xlink:href="#DejaVuSans-2e" x="63.623047"/>
       <use xlink:href="#DejaVuSans-30" x="95.410156"/>
       <use xlink:href="#DejaVuSans-30" x="159.033203"/>
       <use xlink:href="#DejaVuSans-30" x="222.65625"/>
      </g>
     </g>
    </g>
    <g id="ytick_2">
     <g id="line2d_8">
      <g>
       <use xlink:href="#m0bc7ad9971" x="54" y="227.02763" style="stroke: #000000; stroke-width: 0.8"/>
      </g>
     </g>
     <g id="text_9">
      <!-- 0.002 -->
      <g transform="translate(18.371875 230.826848)scale(0.1 -0.1)">
       <use xlink:href="#DejaVuSans-30"/>
       <use xlink:href="#DejaVuSans-2e" x="63.623047"/>
       <use xlink:href="#DejaVuSans-30" x="95.410156"/>
       <use xlink:href="#DejaVuSans-30" x="159.033203"/>
       <use xlink:href="#DejaVuSans-32" x="222.65625"/>
      </g>
     </g>
    </g>
    <g id="ytick_3">
     <g id="line2d_9">
      <g>
       <use xlink:href="#m0bc7ad9971" x="54" y="202.055259" style="stroke: #000000; stroke-width: 0.8"/>
      </g>
     </g>
     <g id="text_10">
      <!-- 0.004 -->
      <g transform="translate(18.371875 205.854478)scale(0.1 -0.1)">
       <use xlink:href="#DejaVuSans-30"/>
       <use xlink:href="#DejaVuSans-2e" x="63.623047"/>
       <use xlink:href="#DejaVuSans-30" x="95.410156"/>
       <use xlink:href="#DejaVuSans-30" x="159.033203"/>
       <use xlink:href="#DejaVuSans-34" x="222.65625"/>
      </g>
     </g>
    </g>
    <g id="ytick_4">
     <g id="line2d_10">
      <g>
       <use xlink:href="#m0bc7ad9971" x="54" y="177.082889" style="stroke: #000000; stroke-width: 0.8"/>
      </g>
     </g>
     <g id="text_11">
      <!-- 0.006 -->
      <g transform="translate(18.371875 180.882108)scale(0.1 -0.1)">
       <use xlink:href="#DejaVuSans-30"/>
       <use xlink:href="#DejaVuSans-2e" x="63.623047"/>
       <use xlink:href="#DejaVuSans-30" x="95.410156"/>
       <use xlink:href="#DejaVuSans-30" x="159.033203"/>
       <use xlink:href="#DejaVuSans-36" x="222.65625"/>
      </g>
     </g>
    </g>
    <g id="ytick_5">
     <g id="line2d_11">
      <g>
       <use xlink:href="#m0bc7ad9971" x="54" y="152.110519" style="stroke: #000000; stroke-width: 0.8"/>
      </g>
     </g>
     <g id="text_12">
      <!-- 0.008 -->
      <g transform="translate(18.371875 155.909737)scale(0.1 -0.1)">
       <use xlink:href="#DejaVuSans-30"/>
       <use xlink:href="#DejaVuSans-2e" x="63.623047"/>
       <use xlink:href="#DejaVuSans-30" x="95.410156"/>
       <use xlink:href="#DejaVuSans-30" x="159.033203"/>
       <use xlink:href="#DejaVuSans-38" x="222.65625"/>
      </g>
     </g>
    </g>
    <g id="ytick_6">
     <g id="line2d_12">
      <g>
       <use xlink:href="#m0bc7ad9971" x="54" y="127.138148" style="stroke: #000000; stroke-width: 0.8"/>
      </g>
     </g>
     <g id="text_13">
      <!-- 0.010 -->
      <g transform="translate(18.371875 130.937367)scale(0.1 -0.1)">
       <use xlink:href="#DejaVuSans-30"/>
       <use xlink:href="#DejaVuSans-2e" x="63.623047"/>
       <use xlink:href="#DejaVuSans-30" x="95.410156"/>
       <use xlink:href="#DejaVuSans-31" x="159.033203"/>
       <use xlink:href="#DejaVuSans-30" x="222.65625"/>
      </g>
     </g>
    </g>
    <g id="ytick_7">
     <g id="line2d_13">
      <g>
       <use xlink:href="#m0bc7ad9971" x="54" y="102.165778" style="stroke: #000000; stroke-width: 0.8"/>
      </g>
     </g>
     <g id="text_14">
      <!-- 0.012 -->
      <g transform="translate(18.371875 105.964997)scale(0.1 -0.1)">
       <use xlink:href="#DejaVuSans-30"/>
       <use xlink:href="#DejaVuSans-2e" x="63.623047"/>
       <use xlink:href="#DejaVuSans-30" x="95.410156"/>
       <use xlink:href="#DejaVuSans-31" x="159.033203"/>
       <use xlink:href="#DejaVuSans-32" x="222.65625"/>
      </g>
     </g>
    </g>
    <g id="ytick_8">
     <g id="line2d_14">
      <g>
       <use xlink:href="#m0bc7ad9971" x="54" y="77.193408" style="stroke: #000000; stroke-width: 0.8"/>
      </g>
     </g>
     <g id="text_15">
      <!-- 0.014 -->
      <g transform="translate(18.371875 80.992626)scale(0.1 -0.1)">
       <use xlink:href="#DejaVuSans-30"/>
       <use xlink:href="#DejaVuSans-2e" x="63.623047"/>
       <use xlink:href="#DejaVuSans-30" x="95.410156"/>
       <use xlink:href="#DejaVuSans-31" x="159.033203"/>
       <use xlink:href="#DejaVuSans-34" x="222.65625"/>
      </g>
     </g>
    </g>
    <g id="ytick_9">
     <g id="line2d_15">
      <g>
       <use xlink:href="#m0bc7ad9971" x="54" y="52.221037" style="stroke: #000000; stroke-width: 0.8"/>
      </g>
     </g>
     <g id="text_16">
      <!-- 0.016 -->
      <g transform="translate(18.371875 56.020256)scale(0.1 -0.1)">
       <use xlink:href="#DejaVuSans-30"/>
       <use xlink:href="#DejaVuSans-2e" x="63.623047"/>
       <use xlink:href="#DejaVuSans-30" x="95.410156"/>
       <use xlink:href="#DejaVuSans-31" x="159.033203"/>
       <use xlink:href="#DejaVuSans-36" x="222.65625"/>
      </g>
     </g>
    </g>
   </g>
   <g id="patch_103">
    <path d="M 54 252 
L 54 34.56 
" style="fill: none; stroke: #000000; stroke-width: 0.8; stroke-linejoin: miter; stroke-linecap: square"/>
   </g>
   <g id="patch_104">
    <path d="M 388.8 252 
L 388.8 34.56 
" style="fill: none; stroke: #000000; stroke-width: 0.8; stroke-linejoin: miter; stroke-linecap: square"/>
   </g>
   <g id="patch_105">
    <path d="M 54 252 
L 388.8 252 
" style="fill: none; stroke: #000000; stroke-width: 0.8; stroke-linejoin: miter; stroke-linecap: square"/>
   </g>
   <g id="patch_106">
    <path d="M 54 34.56 
L 388.8 34.56 
" style="fill: none; stroke: #000000; stroke-width: 0.8; stroke-linejoin: miter; stroke-linecap: square"/>
   </g>
  </g>
 </g>
 <defs>
  <clipPath id="p72086c6b93">
   <rect x="54" y="34.56" width="334.8" height="217.44"/>
  </clipPath>
 </defs>
</svg>
