<?xml version="1.0" encoding="utf-8"?>
<!-- Generator: Adobe Illustrator 26.3.1, SVG Export Plug-In . SVG Version: 6.00 Build 0)  -->
<svg version="1.1"
	 id="svg2" xmlns:rdf="http://www.w3.org/1999/02/22-rdf-syntax-ns#" xmlns:sodipodi="http://sodipodi.sourceforge.net/DTD/sodipodi-0.dtd" xmlns:dc="http://purl.org/dc/elements/1.1/" xmlns:svg="http://www.w3.org/2000/svg" xmlns:inkscape="http://www.inkscape.org/namespaces/inkscape" xmlns:cc="http://web.resource.org/cc/"
	 xmlns="http://www.w3.org/2000/svg" xmlns:xlink="http://www.w3.org/1999/xlink" x="0px" y="0px" viewBox="0 0 944.7 432.8"
	 style="enable-background:new 0 0 944.7 432.8;" xml:space="preserve">
<style type="text/css">
	.st0{fill-rule:evenodd;clip-rule:evenodd;fill:#C8C8FF;stroke:#000000;}
	.st1{fill:none;stroke:#FDAF31;}
	.st2{fill:none;stroke:#A21D9A;}
	.st3{fill:none;stroke:#0D0887;}
	.st4{fill:none;stroke:#000000;stroke-width:4;}
	.st5{fill:none;stroke:#000000;}
	.st6{fill-rule:evenodd;clip-rule:evenodd;}
	.st7{fill-rule:evenodd;clip-rule:evenodd;stroke:#000000;stroke-width:0.8;}
	.st8{font-family:'TimesNewRomanPS-ItalicMT';}
	.st9{font-size:36px;}
	.st10{font-family:'TimesNewRomanPSMT';}
	.st11{font-size:20.988px;}
	.st12{fill:none;stroke:#000000;stroke-width:3;stroke-dasharray:9,3;}
	.st13{fill:none;}
</style>
<sodipodi:namedview  bordercolor="#666666" borderopacity="1.0" gridempspacing="4" gridspacingx="2px" gridspacingy="2px" gridtolerance="50" guidetolerance="10" id="base" inkscape:current-layer="layer1" inkscape:cx="526.6416" inkscape:cy="239.00971" inkscape:document-units="px" inkscape:grid-points="true" inkscape:object-bbox="true" inkscape:object-nodes="true" inkscape:object-points="true" inkscape:pageopacity="0.0" inkscape:pageshadow="2" inkscape:window-height="746" inkscape:window-width="1164" inkscape:window-x="3" inkscape:window-y="58" inkscape:zoom="0.98994949" objecttolerance="10000" pagecolor="#ffffff" showgrid="true">
	</sodipodi:namedview>
<g id="layer1" transform="translate(224.7498,-284.3622)" inkscape:label="Layer 1" inkscape:groupmode="layer">
	<path id="path1872" sodipodi:nodetypes="cc" class="st0" d="M319.3,381.1c-40.7,96.8,0,192,0,192"/>
	<path id="path1874" sodipodi:nodetypes="cc" class="st0" d="M319.3,381.1c39.3,104.8,0,192,0,192"/>
	<path id="path2766" sodipodi:nodetypes="ccc" class="st1" d="M-224.7,381.1h544l320,160"/>
	<path id="path2768" sodipodi:nodetypes="ccc" class="st1" d="M-224.7,573.1h544l320-160"/>
	<path id="path2772" sodipodi:nodetypes="ccccc" class="st2" d="M639.3,493.1l-320-112l-512,96l512,96l320-112"/>
	<path id="path2774" sodipodi:nodetypes="ccc" class="st3" d="M-64.4,476.7l383.6-95.6l320,96"/>
	<path id="path2776" sodipodi:nodetypes="ccc" class="st3" d="M-63.9,476.3l383.1,96.8l320-96"/>
	<path id="path2778" sodipodi:nodetypes="cc" class="st4" d="M639.3,637.1v-320"/>
	<path id="path2780" sodipodi:nodetypes="cc" class="st5" d="M319.3,573.1v112"/>
	<path id="path2782" sodipodi:nodetypes="cc" class="st5" d="M511.8,485.2l-0.5,152"/>
	<path id="path2784" class="st5" d="M679.8,460.6c-32,0-32,0-32,0"/>
	<path id="path2786" class="st5" d="M678.8,493.6h-32"/>
	<g id="g2349">
		<path id="path2788" class="st6" d="M671.2,436.6v24h1v-24H671.2z"/>
		<path id="path2355" class="st7" d="M671.8,450.6l-4-4l4,14l4-14L671.8,450.6z"/>
	</g>
	<g id="g2357">
		<path id="path2790" class="st6" d="M671.2,493.6h-1l0.5,23.5h1L671.2,493.6z"/>
		<path id="path2363" class="st7" d="M671,503.6l4.1,3.9l-4.3-13.9l-3.7,14.1L671,503.6z"/>
	</g>
	<g id="g2389">
		<path id="path2972" class="st6" d="M391.2,620.6l-71.7,0.8v1l71.7-0.8V620.6z"/>
		<path id="path2395" class="st7" d="M329.5,621.9l4-4l-14,4.2l14,3.8L329.5,621.9z"/>
	</g>
	<g id="g2373">
		<path id="path2974" class="st6" d="M439.2,620.6v1h72v-1H439.2z"/>
		<path id="path2379" class="st7" d="M501.3,621.1l-4,4l14-4l-14-4L501.3,621.1z"/>
	</g>
	<path id="path2976" sodipodi:nodetypes="cc" class="st5" d="M-64.7,549.1v96"/>
	<path id="path2978" class="st5" d="M-192.7,485.7v199.5"/>
	<g id="g2421">
		<path id="path2980" class="st6" d="M-64.8,628.6v1h192v-1H-64.8z"/>
		<path id="path2427" class="st7" d="M-54.7,629.1l4-4l-14,4l14,4L-54.7,629.1z"/>
	</g>
	<g id="g2413">
		<path id="path2982" class="st6" d="M-192.8,668.6v1h232v-1H-192.8z"/>
		<path id="path2419" class="st7" d="M-182.7,669.1l4-4l-14,4l14,4L-182.7,669.1z"/>
	</g>
	<g id="g2397">
		<path id="path2984" class="st6" d="M183.2,628.6v1h136v-1H183.2z"/>
		<path id="path2403" class="st7" d="M309.3,629.1l-4,4l14-4l-14-4L309.3,629.1z"/>
	</g>
	<g id="g2405">
		<path id="path2986" class="st6" d="M95.2,668.6v1h224v-1H95.2z"/>
		<path id="path2411" class="st7" d="M309.3,669.1l-4,4l14-4l-14-4L309.3,669.1z"/>
	</g>
	<text transform="matrix(1 0 0 1 412.8068 629.1122)" class="st8 st9">f</text>
	<text transform="matrix(1 0 0 1 659.9494 425.2743)" class="st10 st9">c</text>
	<text transform="matrix(1 0 0 1 137.5412 639.8309)" class="st8 st9">z</text>
	<text transform="matrix(1 0 0 1 155.5412 651.8192)" class="st8 st11">f</text>
	<path id="path2827" class="st12" d="M-64.7,413.1c0,128,0,128,0,128"/>
	<text transform="matrix(1 0 0 1 58.5412 679.8309)" class="st8 st9">z</text>
	<path id="path2845" class="st5" d="M359.8,381.1c-32,0-32,0-32,0"/>
	<path id="path2847" class="st5" d="M360.3,572.6h-32"/>
	<g id="g2341">
		<path id="path2849" class="st6" d="M350.8,357.1v24h1v-24H350.8z"/>
		<path id="path2347" class="st7" d="M351.3,371.1l-4-4l4,14l4-14L351.3,371.1z"/>
	</g>
	<g id="g2333">
		<path id="path2851" class="st6" d="M350.8,573.1v24h1v-24H350.8z"/>
		<path id="path2339" class="st7" d="M351.3,583.1l4,4l-4-14l-4,14L351.3,583.1z"/>
	</g>
	<text transform="matrix(1 0 0 1 337.1017 351.3564)" class="st8 st9">A</text>
	<text transform="matrix(1 0 0 1 111.2502 765.3622)" style="font-family:'ArialMT'; font-size:12px;">v</text>
</g>
<rect x="561" y="42" class="st13" width="24" height="2"/>
<polygon class="st13" points="373.5,343 385,343 385,343 "/>
</svg>
