<?xml version="1.0" encoding="UTF-8"?>
<svg id="Layer_2" data-name="Layer 2" xmlns="http://www.w3.org/2000/svg" viewBox="0 0 399.979549 334.265561">
  <defs>
    <style>
      .cls-1 {
        fill: #fff;
      }

      .cls-1, .cls-2, .cls-3 {
        stroke: #231f20;
        stroke-miterlimit: 10;
        stroke-width: 7px;
      }

      .cls-2 {
        fill: #231f20;
      }

      .cls-3 {
        fill: none;
      }
    </style>
  </defs>
  <g id="Layer_1-2" data-name="Layer 1">
    <g>
      <path class="cls-1" d="M7.978327,187.422803l139.599529,140.247086c4.097455,4.115072,10.755025,4.129354,14.870097.031898l67.32869-67.040452c4.115072-4.097455,4.129354-10.755025.031898-14.870097l-116.564787-117.113307c-.88899-.892812-2.170625-1.272917-3.402632-1.009146l-16.427841,3.517177c-3.020641.646715-5.460577-2.468375-4.109126-5.246161l17.203835-35.360924c.690257-1.418761.406757-3.118977-.706494-4.237015l-7.373625-7.405328c-1.444435-1.450646-3.791362-1.45568-5.242007-.011245L7.900979,165.812002c-5.897975,6.008751-5.863487,15.644424.077348,21.610801Z"/>
      <g>
        <path class="cls-1" d="M144.236473,43.728849h179.367311c2.959107,0,5.361526,2.402419,5.361526,5.361526v145.236596c0,2.959107-2.402419,5.361526-5.361526,5.361526h-179.367311V43.728849h0Z" transform="translate(-16.935921 202.406059) rotate(-44.877094)"/>
        <line class="cls-1" x1="235.119335" y1="13.139567" x2="345.162643" y2="123.656002"/>
        <line class="cls-1" x1="168.053147" y1="79.91864" x2="278.096455" y2="190.435076"/>
      </g>
      <path class="cls-3" d="M116.12778,131.621712l-30.793536,38.757192c-4.244651,5.34238-3.814962,13.01701.999513,17.852185l107.628532,108.091277"/>
      <path class="cls-1" d="M36.563088,140.870433h39.689046c2.178767,0,3.947649,1.768882,3.947649,3.947649v11.571785h-47.584345v-11.571785c0-2.178767,1.768882-3.947649,3.947649-3.947649Z" transform="translate(-88.435761 83.108111) rotate(-44.877094)"/>
      <line class="cls-1" x1="89.47714" y1="129.492528" x2="37.518928" y2="181.228303"/>
      <rect class="cls-1" x="190.321561" y="57.461325" width="48.433777" height="2.71072" rx="1.355359" ry="1.355359" transform="translate(21.011422 168.513715) rotate(-44.877094)"/>
      <rect class="cls-1" x="202.646243" y="69.838997" width="48.433777" height="2.71072" rx="1.355359" ry="1.355359" transform="translate(15.869023 180.816448) rotate(-44.877094)"/>
      <rect class="cls-1" x="214.988114" y="82.233931" width="48.433777" height="2.71072" rx="1.355359" ry="1.355359" transform="translate(10.719452 193.136339) rotate(-44.877094)"/>
      <rect class="cls-1" x="227.312796" y="94.611603" width="48.433777" height="2.71072" rx="1.355358" ry="1.355358" transform="translate(5.577052 205.439073) rotate(-44.877094)"/>
      <rect class="cls-1" x="239.637478" y="106.989274" width="48.433777" height="2.71072" rx="1.355359" ry="1.355359" transform="translate(.434653 217.741806) rotate(-44.877094)"/>
      <rect class="cls-1" x="251.96216" y="119.366946" width="48.433777" height="2.71072" rx="1.355358" ry="1.355358" transform="translate(-4.707746 230.044539) rotate(-44.877094)"/>
      <rect class="cls-1" x="264.304031" y="131.76188" width="48.433777" height="2.71072" rx="1.355359" ry="1.355359" transform="translate(-9.857317 242.36443) rotate(-44.877094)"/>
      <rect class="cls-1" x="276.628713" y="144.139552" width="48.433777" height="2.71072" rx="1.355359" ry="1.355359" transform="translate(-14.999716 254.667164) rotate(-44.877094)"/>
    </g>
    <g>
      <path class="cls-3" d="M368.477332,269.401439c37.674548-37.513243,37.283901-98.87766-.873411-137.199046"/>
      <path class="cls-2" d="M353.694002,288.905965l19.959933-5.144505c1.85702-.478631,2.491785-2.793389,1.138672-4.15232l-14.729834-14.793171c-1.353113-1.358932-3.670573-.734104-4.157168,1.120845l-5.2301,19.937676c-.480389,1.831292,1.185159,3.504002,3.018496,3.031475Z"/>
    </g>
  </g>
</svg>