<?xml version="1.0" encoding="UTF-8"?>
<svg id="Layer_2" data-name="Layer 2" xmlns="http://www.w3.org/2000/svg" xmlns:xlink="http://www.w3.org/1999/xlink" viewBox="0 0 344.697368 353.996354">
  <defs>
    <style>
      .cls-1 {
        fill: #fff;
      }

      .cls-1, .cls-2, .cls-3 {
        stroke: #231f20;
        stroke-miterlimit: 10;
        stroke-width: 7px;
      }

      .cls-4 {
        mask: url(#mask);
      }

      .cls-5 {
        filter: url(#luminosity-invert-noclip);
      }

      .cls-2 {
        fill: #231f20;
      }

      .cls-3 {
        fill: none;
      }
    </style>
    <filter id="luminosity-invert-noclip" x="0" y="5.139465" width="336.821922" height="348.856889" color-interpolation-filters="sRGB" filterUnits="userSpaceOnUse">
      <feColorMatrix result="cm" values="-1 0 0 0 1 0 -1 0 0 1 0 0 -1 0 1 0 0 0 1 0"/>
      <feFlood flood-color="#fff" result="bg"/>
      <feBlend in="cm" in2="bg"/>
    </filter>
    <mask id="mask" x="0" y="5.139465" width="336.821922" height="348.856889" maskUnits="userSpaceOnUse">
      <g class="cls-5">
        <rect class="cls-1" x="59.165509" y="143.395778" width="174.406673" height="134.079738" rx="14.501767" ry="14.501767" transform="translate(-108.291061 181.189576) rotate(-48.628041)"/>
      </g>
    </mask>
  </defs>
  <g id="Layer_1-2" data-name="Layer 1">
    <g>
      <g class="cls-4">
        <path class="cls-1" d="M146.046844,343.37019c-7.671804,8.710544-20.952321,9.552608-29.662865,1.880804L10.626164,252.104886c-8.710544-7.671804-9.552608-20.952321-1.880804-29.662865l17.454114-19.817349c2.015271-2.288133,2.960627-5.326283,2.599409-8.353888l-2.211436-18.535509c-.937818-7.860472,1.516579-15.748324,6.748762-21.688929l44.173197-50.154117c4.83504-5.48969,11.80158-8.494264,19.112995-8.24404l18.035596.618393c3.205594.109911,6.29198-1.22135,8.411945-3.628352L190.775422,15.765629c7.671804-8.710544,20.952321-9.552608,29.662865-1.880804l105.757188,93.145557c8.71089,7.672109,9.552988,20.953154,1.880879,29.664044l-182.02951,206.675765Z"/>
      </g>
      <circle class="cls-1" cx="260.143681" cy="121.649574" r="29.666948"/>
      <rect class="cls-1" x="53.535403" y="134.492807" width="46.040439" height="28.909802" rx="8.904594" ry="8.904594" transform="translate(-85.818927 107.951503) rotate(-48.628041)"/>
      <path class="cls-1" d="M134.385153,40.558287h36.425065c2.178767,0,3.947649,1.768882,3.947649,3.947649v10.507252h-44.320364v-10.507252c0-2.178767,1.768882-3.947649,3.947649-3.947649Z" transform="translate(15.878985 130.716596) rotate(-48.628041)"/>
      <circle class="cls-1" cx="46.580251" cy="260.95227" r="2.324409"/>
      <circle class="cls-1" cx="62.262998" cy="274.764836" r="2.324409"/>
      <circle class="cls-1" cx="77.945745" cy="288.577403" r="2.324409"/>
      <circle class="cls-1" cx="192.298718" cy="101.4282" r="9.876944"/>
      <rect class="cls-1" x="203.002399" y="57.810253" width="39.810219" height="17.729634" rx="7.100707" ry="7.100707" transform="translate(25.542695 189.884051) rotate(-48.628041)"/>
      <line class="cls-1" x1="216.255043" y1="60.815917" x2="228.961107" y2="72.006772"/>
      <rect class="cls-1" x="240.93383" y="99.615059" width="4.633814" height="14.312136" rx="1.651276" ry="1.651276" transform="translate(2.350705 218.745095) rotate(-48.628041)"/>
      <rect class="cls-1" x="274.719718" y="129.371952" width="4.633814" height="14.312136" rx="1.651276" ry="1.651276" transform="translate(-8.524612 254.188428) rotate(-48.628041)"/>
      <rect class="cls-1" x="243.226322" y="131.070816" width="4.633814" height="14.312136" rx="1.651276" ry="1.651276" transform="translate(338.447047 404.247615) rotate(-138.628041)"/>
      <rect class="cls-1" x="272.705221" y="97.600562" width="4.633814" height="14.312136" rx="1.651276" ry="1.651276" transform="translate(412.169919 365.144045) rotate(-138.628041)"/>
      <circle class="cls-1" cx="93.628492" cy="302.389969" r="2.324409"/>
      <rect class="cls-3" x="65.161644" y="145.712024" width="165.977056" height="126.934567" rx="7.100707" ry="7.100707" transform="translate(-106.744292 182.100376) rotate(-48.628041)"/>
    </g>
    <g>
      <path class="cls-3" d="M83.918817,18.556501C31.065029,30.001418-2.442504,82.031112,9.002413,134.884901"/>
      <path class="cls-2" d="M107.279355,10.019603l-19.949032-6.397965c-1.818314-.583162-3.586051,1.020745-3.181927,2.887032l4.433716,20.475351c.404124,1.866287,2.677017,2.595239,4.091207,1.312114l15.515316-14.077386c1.41419-1.283125.909034-3.615984-.90928-4.199146Z"/>
    </g>
    <g>
      <path class="cls-3" d="M265.667137,312.197672c52.650663-12.345717,85.264913-64.939962,72.919195-117.590625"/>
      <path class="cls-2" d="M242.455771,321.132203l20.055368,6.056406c1.828006.552029,3.568099-1.081828,3.132168-2.940942l-4.782683-20.396661c-.435932-1.859115-2.72094-2.549151-4.113014-1.242066l-15.272685,14.340255c-1.392074,1.307085-.84716,3.630979.980847,4.183008Z"/>
    </g>
  </g>
</svg>