<svg version="1.1" id="Calque_1" xmlns="http://www.w3.org/2000/svg" xmlns:xlink="http://www.w3.org/1999/xlink" x="0px" y="0px" width="315px" height="129.771px" viewBox="0 0 315 129.771" enable-background="new 0 0 315 129.771" xml:space="preserve">
<g>
	<path d="M138.349,16.652h3.152V32.38c0,4.062-2.908,8.164-9.418,8.164c-5.904,0-9.424-2.991-9.424-8.017V16.652h3.554v15.434   c0,4.047,1.958,5.923,6.16,5.923c4.126,0,5.976-2.973,5.976-5.923V16.652z"/>
	<path d="M151.61,16.652h-3.054V40.1h3.048V22.173l14.037,17.929h3.213V16.652h-3.058v18.148L151.61,16.652z"/>
	<path d="M179.923,16.652V40.1h-3.524V16.652H179.923z"/>
	<path d="M184.895,16.652h3.588l5.793,17.59l6.379-17.59h3.009L194.721,40.1h-1.804L184.895,16.652z"/>
	<path d="M222.396,16.652v2.472h-10.42v7.646h8.334v2.462h-8.334v8.388h10.42v2.482h-13.969V16.652H222.396z"/>
	<path d="M237.953,29.088l0.393-0.112c1.799-0.533,4.414-3.301,4.414-6.434c0-2.839-2.613-5.89-8.345-5.89h-6.419V40.1h3.554V18.85   h2.546c3.795,0,5.143,2.183,5.143,4.055c0,1.973-1.609,4.747-5.182,4.747c0,0-0.603,0-0.885,0l7.877,12.449h4.196L237.953,29.088z"/>
	<path d="M259.654,34.58c0-2.203-2.088-3.458-4.5-4.916l-0.812-0.492c-2.682-1.631-5.539-3.656-5.539-6.987   c0-3.418,3.025-6.005,7.037-6.005c3.439,0,5.35,0.802,6.23,1.187c-0.075,0.168-0.881,2.113-0.967,2.327   c-0.774-0.355-2.416-1.047-4.65-1.047c-2.541,0-4.126,1.106-4.126,2.888c0,2.167,1.786,3.271,4.058,4.664l1.031,0.631   c-0.005,0,0.145,0.094,0.145,0.094c2.338,1.479,5.866,3.713,5.866,6.937c0,3.997-4.271,6.687-8.271,6.687   c-3.842,0-6.038-1.07-6.95-1.53c0.082-0.188,0.907-2.039,0.996-2.244c0.006,0.005,0.024,0.012,0.024,0.012   c1.028,0.459,2.951,1.304,6.002,1.304C257.662,38.084,259.654,36.509,259.654,34.58z"/>
	<path d="M272.898,16.652V40.1h-3.516V16.652H272.898z"/>
	<path d="M296.426,16.652v2.472h-7.666v20.978h-3.554V19.124H277.5v-2.472H296.426z"/>
	<g>
		<path d="M304.582,19.124v7.646h8.334v2.462h-8.334v8.388c0,0,10.165,0,10.418,0v2.482h-13.977V16.652H315v2.472H304.582z"/>
		<path d="M311.511,8.849l1.38,2.065l-6.026,3.293l-0.824-1.278L311.511,8.849z"/>
	</g>
</g>
<g>
	<path d="M226.904,49.403v0.236c5.018,1.936,2.252,8.283,0.08,13.775l-10.995,27.801l-16.06-41.812h-10.73v0.236   c3.137,2.394,4.787,7.124,6.31,11.067l15.308,39.618h7.731l20.417-50.923L226.904,49.403L226.904,49.403z"/>
	<path d="M315,92.723c-2.964,1.357-6.228,2-9.857,2h-11v-45.32H282.25v0.236c3.729,1.272,3.643,7.094,3.643,10.679l-0.007,39.741   c-3.961-1.971-6.016-6.562-7.87-10.957l-16.817-39.699H248.42v0.236c3.833,1.138,2.376,4.41,1.21,7.192l-13.507,32.271   c-1.844,4.396-3.752,8.956-7.85,10.987v0.235h10.111l5.188-13.464h24.807l5.352,13.464H315V92.723z M245.764,81.16l10.092-25.175   l10.254,25.175H245.764z"/>
	<path d="M193.695,89.103l-16.824-39.699H164.1v0.236c3.832,1.138,2.375,4.41,1.213,7.192l-0.002,0.003l-0.002-0.003l-13.505,32.271   c-0.672,1.599-1.352,3.218-2.143,4.731c-1.95,0.577-4.021,0.89-6.23,0.89h-11.001V49.408h-11.891v0.237   c3.729,1.271,3.644,7.092,3.644,10.677l-0.006,40.004h29.888l5.187-13.464h24.808h0.004l5.349,13.464h12.216v-0.235   C197.398,97.953,195.559,93.515,193.695,89.103z M161.443,81.16l10.092-25.175l10.256,25.175H161.443z"/>
</g>
<path d="M0,0v101.413c0,8.729,6.723,15.562,15.303,15.562h24.102c3.222,0,7.417,2.175,9.516,8.278l1.161,3.375  c0.287,0.697,0.691,1.143,1.155,1.143c0.456,0,0.868-0.444,1.154-1.143l1.162-3.375c2.099-6.104,6.287-8.278,9.509-8.278h24.102  c8.583,0,15.302-6.833,15.302-15.562V0H0z"/>
<g>
	<rect x="2.447" y="2.448" fill="#EB212E" width="39.698" height="46.954"/>
	<path fill="#EB212E" d="M2.447,67.572v33.841c0,7.633,5.891,13.113,12.856,13.113c0,0,24.057,0,24.102,0   c0.87,0,1.797,0.123,2.74,0.391V67.572H2.447z"/>
	<rect x="60.315" y="2.448" fill="#EB212E" width="39.701" height="46.954"/>
	<path fill="#EB212E" d="M60.315,114.918c0.948-0.268,1.876-0.392,2.747-0.392c0.045,0,24.102,0,24.102,0   c6.965,0,12.852-5.48,12.852-13.113V67.572H60.315V114.918z"/>
</g>
<path fill="#FFCA30" d="M60.315,49.402V2.448h-18.17v46.954H2.447v18.17h39.698v47.345c3.448,0.969,7.13,3.837,9.092,9.545  c1.96-5.702,5.638-8.57,9.079-9.544V67.572h39.701v-18.17H60.315z"/>
<g>
	<path d="M17.092,21.836c0.083,0.298-0.111,0.537-0.33,0.647c-0.412,0.209-1.614,0.296-2.074,0.146c0,0-0.603,1.078-1.491,1.078   c-0.888,0-1.491-1.078-1.491-1.078c-0.46,0.15-1.662,0.063-2.075-0.146c-0.219-0.11-0.412-0.351-0.33-0.647   c0.254-0.964,1.06-4.092,1.333-5.189L9.01,17.249c-0.282,1.237-1.148,3.229-2.626,3.337c-0.213,0.02-0.521-0.069-0.502-0.271   c0.19-1.675,1.208-9.244,1.311-9.966c0.099-0.719,0.326-1.056,0.834-1.22C8.515,8.969,8.883,9.084,9.41,9.561   c0.406,0.36,1.879,1.726,1.879,1.726s0.164-1.244,0.208-1.644c-0.171,0-0.387,0-0.387,0c-0.212,0-0.384-0.172-0.384-0.381   L10.9,7.758c0-0.15,0.095-0.291,0.225-0.349c0,0,0.638-0.305,1.165-0.508c0.526-0.202,0.907-0.202,0.907-0.202   c0.425,0.012,0.754,0.127,1.028,0.342c0.314,0.241,0.501,0.59,0.545,1.009l0.336,3.236c0,0,1.472-1.364,1.877-1.726   c0.526-0.478,0.895-0.592,1.383-0.433c0.507,0.164,0.737,0.501,0.835,1.22c0.102,0.722,1.12,8.291,1.31,9.966   c0.019,0.202-0.289,0.291-0.501,0.271c-1.478-0.107-2.344-2.1-2.627-3.337l-1.624-0.604C16.033,17.744,16.838,20.872,17.092,21.836   z"/>
	<path d="M35.283,21.836c0.082,0.298-0.111,0.537-0.331,0.647c-0.413,0.209-1.614,0.296-2.074,0.146c0,0-0.603,1.078-1.491,1.078   c-0.888,0-1.491-1.078-1.491-1.078c-0.46,0.15-1.662,0.063-2.074-0.146c-0.219-0.11-0.412-0.351-0.33-0.647   c0.254-0.964,1.059-4.092,1.333-5.189L27.2,17.249c-0.282,1.237-1.148,3.229-2.626,3.337c-0.213,0.02-0.521-0.069-0.501-0.271   c0.19-1.675,1.208-9.244,1.31-9.966c0.098-0.719,0.326-1.056,0.835-1.22c0.488-0.159,0.855-0.045,1.382,0.433   c0.406,0.36,1.878,1.726,1.878,1.726s0.165-1.244,0.209-1.644c-0.171,0-0.387,0-0.387,0c-0.213,0-0.384-0.172-0.384-0.381   l0.174-1.505c0-0.15,0.095-0.291,0.226-0.349c0,0,0.638-0.305,1.164-0.508c0.526-0.202,0.907-0.202,0.907-0.202   c0.425,0.012,0.755,0.127,1.028,0.342c0.313,0.241,0.5,0.59,0.545,1.009l0.335,3.236c0,0,1.472-1.364,1.878-1.726   c0.527-0.478,0.896-0.592,1.383-0.433c0.508,0.164,0.736,0.501,0.834,1.22c0.102,0.722,1.12,8.291,1.311,9.966   c0.019,0.202-0.289,0.291-0.502,0.271c-1.478-0.107-2.344-2.1-2.626-3.337l-1.624-0.604C34.224,17.744,35.029,20.872,35.283,21.836   z"/>
	<path d="M17.092,43.278c0.083,0.298-0.111,0.537-0.33,0.646c-0.412,0.209-1.614,0.298-2.074,0.146c0,0-0.603,1.078-1.491,1.078   c-0.888,0-1.491-1.078-1.491-1.078c-0.46,0.151-1.662,0.062-2.075-0.146c-0.219-0.109-0.412-0.35-0.33-0.646   c0.254-0.965,1.06-4.093,1.333-5.189L9.01,38.691c-0.282,1.236-1.148,3.229-2.626,3.337c-0.213,0.019-0.521-0.071-0.502-0.272   c0.19-1.675,1.208-9.243,1.311-9.967c0.099-0.717,0.326-1.053,0.834-1.218c0.488-0.158,0.856-0.045,1.382,0.431   c0.406,0.362,1.879,1.728,1.879,1.728s0.164-1.243,0.208-1.645c-0.171,0-0.387,0-0.387,0c-0.212,0-0.384-0.171-0.384-0.381   l0.174-1.504c0-0.151,0.095-0.291,0.225-0.35c0,0,0.638-0.305,1.165-0.508c0.526-0.201,0.907-0.201,0.907-0.201   c0.425,0.012,0.754,0.127,1.028,0.342c0.314,0.241,0.501,0.59,0.545,1.009l0.336,3.236c0,0,1.472-1.364,1.877-1.728   c0.526-0.476,0.895-0.589,1.383-0.431c0.507,0.165,0.737,0.501,0.835,1.218c0.102,0.723,1.12,8.292,1.31,9.967   c0.019,0.201-0.289,0.291-0.501,0.272c-1.478-0.108-2.344-2.101-2.627-3.337l-1.624-0.604   C16.033,39.186,16.838,42.313,17.092,43.278z"/>
	<path d="M35.283,43.278c0.082,0.298-0.111,0.537-0.331,0.646c-0.413,0.209-1.614,0.298-2.074,0.146c0,0-0.603,1.078-1.491,1.078   c-0.888,0-1.491-1.078-1.491-1.078c-0.46,0.151-1.662,0.062-2.074-0.146c-0.219-0.109-0.412-0.35-0.33-0.646   c0.254-0.965,1.059-4.093,1.333-5.189L27.2,38.691c-0.282,1.236-1.148,3.229-2.626,3.337c-0.213,0.019-0.521-0.071-0.501-0.272   c0.19-1.675,1.208-9.243,1.31-9.967c0.098-0.717,0.326-1.053,0.835-1.218c0.488-0.158,0.855-0.045,1.382,0.431   c0.406,0.362,1.878,1.728,1.878,1.728s0.165-1.243,0.209-1.645c-0.171,0-0.387,0-0.387,0c-0.213,0-0.384-0.171-0.384-0.381   L29.09,29.2c0-0.151,0.095-0.291,0.226-0.35c0,0,0.638-0.305,1.164-0.508c0.526-0.201,0.907-0.201,0.907-0.201   c0.425,0.012,0.755,0.127,1.028,0.342c0.313,0.241,0.5,0.59,0.545,1.009l0.335,3.236c0,0,1.472-1.364,1.878-1.728   c0.527-0.476,0.896-0.589,1.383-0.431c0.508,0.165,0.736,0.501,0.834,1.218c0.102,0.723,1.12,8.292,1.311,9.967   c0.019,0.201-0.289,0.291-0.502,0.272c-1.478-0.108-2.344-2.101-2.626-3.337l-1.624-0.604   C34.224,39.186,35.029,42.313,35.283,43.278z"/>
	<path d="M74.961,21.836c0.083,0.298-0.111,0.537-0.33,0.647c-0.412,0.209-1.614,0.296-2.074,0.146c0,0-0.603,1.078-1.491,1.078   c-0.888,0-1.491-1.078-1.491-1.078c-0.46,0.15-1.662,0.063-2.074-0.146c-0.219-0.11-0.412-0.351-0.331-0.647   c0.254-0.964,1.06-4.092,1.333-5.189l-1.624,0.604c-0.283,1.237-1.148,3.229-2.626,3.337c-0.213,0.02-0.521-0.069-0.502-0.271   c0.19-1.675,1.208-9.244,1.31-9.966c0.099-0.719,0.327-1.056,0.835-1.22c0.488-0.158,0.856-0.045,1.383,0.433   c0.407,0.36,1.878,1.726,1.878,1.726s0.164-1.244,0.208-1.644c-0.17,0-0.387,0-0.387,0c-0.212,0-0.384-0.172-0.384-0.381   l0.175-1.505c0-0.15,0.095-0.291,0.225-0.349c0,0,0.638-0.305,1.165-0.508C70.685,6.7,71.065,6.7,71.065,6.7   c0.425,0.012,0.755,0.127,1.027,0.342c0.315,0.241,0.502,0.59,0.546,1.009l0.336,3.236c0,0,1.472-1.364,1.877-1.726   c0.526-0.478,0.894-0.591,1.383-0.433c0.508,0.164,0.736,0.501,0.835,1.22c0.102,0.722,1.12,8.291,1.31,9.966   c0.019,0.202-0.29,0.291-0.501,0.271c-1.478-0.107-2.344-2.1-2.627-3.337l-1.624-0.604C73.901,17.744,74.707,20.872,74.961,21.836z   "/>
	<path d="M93.151,21.836c0.082,0.298-0.111,0.537-0.331,0.647c-0.413,0.209-1.614,0.296-2.074,0.146c0,0-0.603,1.078-1.491,1.078   c-0.888,0-1.492-1.078-1.492-1.078c-0.459,0.15-1.662,0.063-2.074-0.146c-0.219-0.11-0.412-0.351-0.33-0.647   c0.254-0.964,1.059-4.092,1.332-5.189l-1.624,0.604c-0.283,1.237-1.148,3.229-2.626,3.337c-0.213,0.02-0.521-0.069-0.501-0.271   c0.19-1.675,1.208-9.244,1.31-9.966c0.099-0.719,0.327-1.056,0.835-1.22c0.488-0.158,0.856-0.045,1.382,0.433   c0.406,0.36,1.878,1.726,1.878,1.726s0.165-1.244,0.208-1.644c-0.171,0-0.386,0-0.386,0c-0.213,0-0.384-0.172-0.384-0.381   l0.174-1.505c0-0.15,0.095-0.291,0.226-0.349c0,0,0.638-0.305,1.164-0.508C88.873,6.7,89.254,6.7,89.254,6.7   c0.425,0.012,0.754,0.127,1.027,0.342c0.313,0.241,0.501,0.59,0.546,1.009l0.335,3.236c0,0,1.473-1.364,1.878-1.726   c0.526-0.478,0.895-0.591,1.383-0.433c0.508,0.164,0.736,0.501,0.835,1.22c0.102,0.722,1.12,8.291,1.311,9.966   c0.019,0.202-0.29,0.291-0.502,0.271c-1.478-0.107-2.344-2.1-2.627-3.337l-1.624-0.604C92.092,17.744,92.897,20.872,93.151,21.836z   "/>
	<path d="M74.961,43.278c0.083,0.298-0.111,0.537-0.33,0.646c-0.412,0.209-1.614,0.298-2.074,0.146c0,0-0.603,1.078-1.491,1.078   c-0.888,0-1.491-1.078-1.491-1.078c-0.46,0.151-1.662,0.062-2.074-0.146c-0.219-0.109-0.412-0.35-0.331-0.646   c0.254-0.965,1.06-4.093,1.333-5.189l-1.624,0.604c-0.283,1.237-1.148,3.229-2.626,3.337c-0.213,0.019-0.521-0.071-0.502-0.272   c0.19-1.675,1.208-9.243,1.31-9.967c0.099-0.717,0.327-1.053,0.835-1.218c0.488-0.158,0.856-0.045,1.383,0.431   c0.407,0.362,1.878,1.728,1.878,1.728s0.164-1.243,0.208-1.645c-0.17,0-0.387,0-0.387,0c-0.212,0-0.384-0.171-0.384-0.381   L68.77,29.2c0-0.151,0.095-0.291,0.225-0.35c0,0,0.638-0.305,1.165-0.508c0.526-0.201,0.906-0.201,0.906-0.201   c0.425,0.012,0.755,0.127,1.027,0.342c0.315,0.241,0.502,0.59,0.546,1.009l0.336,3.236c0,0,1.472-1.364,1.877-1.728   c0.526-0.476,0.894-0.589,1.383-0.431c0.508,0.165,0.736,0.501,0.835,1.218c0.102,0.723,1.12,8.292,1.31,9.967   c0.019,0.201-0.29,0.291-0.501,0.272c-1.478-0.108-2.344-2.101-2.627-3.337l-1.624-0.604   C73.901,39.186,74.707,42.313,74.961,43.278z"/>
	<path d="M93.151,43.278c0.082,0.298-0.111,0.537-0.331,0.646c-0.413,0.209-1.614,0.298-2.074,0.146c0,0-0.603,1.078-1.491,1.078   c-0.888,0-1.492-1.078-1.492-1.078c-0.459,0.151-1.662,0.062-2.074-0.146c-0.219-0.109-0.412-0.35-0.33-0.646   c0.254-0.965,1.059-4.093,1.332-5.189l-1.624,0.604c-0.283,1.237-1.148,3.229-2.626,3.337c-0.213,0.019-0.521-0.071-0.501-0.272   c0.19-1.675,1.208-9.243,1.31-9.967c0.099-0.717,0.327-1.053,0.835-1.218c0.488-0.158,0.856-0.045,1.382,0.431   c0.406,0.362,1.878,1.728,1.878,1.728s0.165-1.243,0.208-1.645c-0.171,0-0.386,0-0.386,0c-0.213,0-0.384-0.171-0.384-0.381   l0.174-1.504c0-0.151,0.095-0.291,0.226-0.35c0,0,0.638-0.305,1.164-0.508c0.526-0.201,0.907-0.201,0.907-0.201   c0.425,0.012,0.754,0.127,1.027,0.342c0.313,0.241,0.501,0.59,0.546,1.009l0.335,3.236c0,0,1.473-1.364,1.878-1.728   c0.526-0.476,0.895-0.589,1.383-0.431c0.508,0.165,0.736,0.501,0.835,1.218c0.102,0.724,1.12,8.292,1.311,9.967   c0.019,0.201-0.29,0.291-0.502,0.272c-1.478-0.108-2.344-2.101-2.627-3.337l-1.624-0.604   C92.092,39.186,92.897,42.313,93.151,43.278z"/>
	<path d="M17.092,86.96c0.083,0.297-0.111,0.538-0.33,0.647c-0.412,0.209-1.614,0.296-2.074,0.146c0,0-0.603,1.078-1.491,1.078   c-0.888,0-1.491-1.078-1.491-1.078c-0.46,0.15-1.662,0.063-2.075-0.146c-0.219-0.109-0.412-0.352-0.33-0.647   c0.254-0.965,1.06-4.093,1.333-5.188L9.01,82.373c-0.282,1.237-1.148,3.229-2.626,3.337c-0.213,0.02-0.521-0.069-0.502-0.271   c0.19-1.675,1.208-9.244,1.311-9.967c0.099-0.718,0.326-1.054,0.834-1.219c0.488-0.158,0.856-0.044,1.382,0.433   c0.406,0.36,1.879,1.726,1.879,1.726s0.164-1.244,0.208-1.644c-0.171,0-0.387,0-0.387,0c-0.212,0-0.384-0.173-0.384-0.382   l0.174-1.504c0-0.15,0.095-0.291,0.225-0.349c0,0,0.638-0.305,1.165-0.508c0.526-0.202,0.907-0.202,0.907-0.202   c0.425,0.012,0.754,0.127,1.028,0.342c0.314,0.241,0.501,0.591,0.545,1.01l0.336,3.235c0,0,1.472-1.364,1.877-1.726   c0.526-0.477,0.895-0.591,1.383-0.433c0.507,0.165,0.737,0.501,0.835,1.218c0.102,0.724,1.12,8.293,1.31,9.968   c0.019,0.202-0.289,0.291-0.501,0.271c-1.478-0.107-2.344-2.1-2.627-3.337l-1.624-0.603C16.033,82.867,16.838,85.995,17.092,86.96z   "/>
	<path d="M35.283,86.96c0.082,0.297-0.111,0.538-0.331,0.647c-0.413,0.209-1.614,0.296-2.074,0.146c0,0-0.603,1.078-1.491,1.078   c-0.888,0-1.491-1.078-1.491-1.078c-0.46,0.15-1.662,0.063-2.074-0.146c-0.219-0.109-0.412-0.352-0.33-0.647   c0.254-0.965,1.059-4.093,1.333-5.188L27.2,82.373c-0.282,1.237-1.148,3.229-2.626,3.337c-0.213,0.02-0.521-0.069-0.501-0.271   c0.19-1.675,1.208-9.244,1.31-9.967c0.098-0.718,0.326-1.054,0.835-1.219c0.488-0.158,0.855-0.044,1.382,0.433   c0.406,0.36,1.878,1.726,1.878,1.726s0.165-1.244,0.209-1.644c-0.171,0-0.387,0-0.387,0c-0.213,0-0.384-0.173-0.384-0.382   l0.174-1.504c0-0.15,0.095-0.291,0.226-0.349c0,0,0.638-0.305,1.164-0.508c0.526-0.202,0.907-0.202,0.907-0.202   c0.425,0.012,0.755,0.127,1.028,0.342c0.313,0.241,0.5,0.591,0.545,1.01l0.335,3.235c0,0,1.472-1.364,1.878-1.726   c0.527-0.477,0.896-0.591,1.383-0.433c0.508,0.165,0.736,0.501,0.834,1.218c0.102,0.724,1.12,8.293,1.311,9.968   c0.019,0.202-0.289,0.291-0.502,0.271c-1.478-0.107-2.344-2.1-2.626-3.337l-1.624-0.603C34.224,82.867,35.029,85.995,35.283,86.96z   "/>
	<path d="M17.092,108.402c0.083,0.299-0.111,0.537-0.33,0.646c-0.412,0.209-1.614,0.299-2.074,0.146c0,0-0.603,1.079-1.491,1.079   c-0.888,0-1.491-1.079-1.491-1.079c-0.46,0.152-1.662,0.062-2.075-0.146c-0.219-0.109-0.412-0.349-0.33-0.646   c0.254-0.965,1.06-4.092,1.333-5.189l-1.624,0.604c-0.282,1.236-1.148,3.229-2.626,3.337c-0.213,0.019-0.521-0.07-0.502-0.272   c0.19-1.675,1.208-9.244,1.311-9.966c0.099-0.718,0.326-1.055,0.834-1.219c0.488-0.158,0.856-0.045,1.382,0.432   c0.406,0.361,1.879,1.727,1.879,1.727s0.164-1.244,0.208-1.645c-0.171,0-0.387,0-0.387,0c-0.212,0-0.384-0.172-0.384-0.381   l0.174-1.504c0-0.151,0.095-0.291,0.225-0.349c0,0,0.638-0.306,1.165-0.509c0.526-0.201,0.907-0.201,0.907-0.201   c0.425,0.012,0.754,0.127,1.028,0.342c0.314,0.241,0.501,0.59,0.545,1.01l0.336,3.235c0,0,1.472-1.364,1.877-1.727   c0.526-0.477,0.895-0.59,1.383-0.432c0.507,0.164,0.737,0.501,0.835,1.219c0.102,0.722,1.12,8.291,1.31,9.966   c0.019,0.202-0.289,0.291-0.501,0.272c-1.478-0.108-2.344-2.101-2.627-3.337l-1.624-0.604   C16.033,104.311,16.838,107.438,17.092,108.402z"/>
	<path d="M35.283,108.402c0.082,0.299-0.111,0.537-0.331,0.646c-0.413,0.209-1.614,0.299-2.074,0.146c0,0-0.603,1.079-1.491,1.079   c-0.888,0-1.491-1.079-1.491-1.079c-0.46,0.152-1.662,0.062-2.074-0.146c-0.219-0.109-0.412-0.349-0.33-0.646   c0.254-0.965,1.059-4.092,1.333-5.189l-1.625,0.604c-0.282,1.236-1.148,3.229-2.626,3.337c-0.213,0.019-0.521-0.07-0.501-0.272   c0.19-1.675,1.208-9.244,1.31-9.966c0.098-0.718,0.326-1.055,0.835-1.219c0.488-0.158,0.855-0.045,1.382,0.432   c0.406,0.361,1.878,1.727,1.878,1.727s0.165-1.244,0.209-1.645c-0.171,0-0.387,0-0.387,0c-0.213,0-0.384-0.172-0.384-0.381   l0.174-1.504c0-0.151,0.095-0.291,0.226-0.349c0,0,0.638-0.306,1.164-0.509c0.526-0.201,0.907-0.201,0.907-0.201   c0.425,0.012,0.755,0.127,1.028,0.342c0.313,0.241,0.5,0.59,0.545,1.01l0.335,3.235c0,0,1.472-1.364,1.878-1.727   c0.527-0.477,0.896-0.59,1.383-0.432c0.508,0.164,0.736,0.501,0.834,1.219c0.102,0.722,1.12,8.291,1.311,9.966   c0.019,0.202-0.289,0.291-0.502,0.272c-1.478-0.108-2.344-2.101-2.626-3.337l-1.624-0.604   C34.224,104.311,35.029,107.438,35.283,108.402z"/>
	<path d="M74.961,86.96c0.083,0.297-0.111,0.538-0.33,0.647c-0.412,0.209-1.614,0.296-2.074,0.146c0,0-0.603,1.078-1.491,1.078   c-0.888,0-1.491-1.078-1.491-1.078c-0.46,0.15-1.662,0.063-2.074-0.146c-0.219-0.109-0.412-0.352-0.331-0.647   c0.254-0.965,1.06-4.093,1.333-5.188l-1.624,0.603c-0.283,1.237-1.148,3.229-2.626,3.337c-0.213,0.02-0.521-0.069-0.502-0.271   c0.19-1.675,1.208-9.244,1.31-9.967c0.099-0.718,0.327-1.054,0.835-1.219c0.488-0.157,0.856-0.044,1.383,0.433   c0.407,0.36,1.878,1.726,1.878,1.726s0.164-1.244,0.208-1.644c-0.17,0-0.387,0-0.387,0c-0.212,0-0.384-0.172-0.384-0.382   l0.175-1.504c0-0.15,0.095-0.291,0.225-0.349c0,0,0.638-0.305,1.165-0.508c0.526-0.202,0.906-0.202,0.906-0.202   c0.425,0.012,0.755,0.127,1.027,0.342c0.315,0.241,0.502,0.591,0.546,1.01l0.336,3.235c0,0,1.472-1.364,1.877-1.726   c0.526-0.477,0.894-0.591,1.383-0.433c0.508,0.165,0.736,0.501,0.835,1.219c0.102,0.723,1.12,8.292,1.31,9.967   c0.019,0.202-0.29,0.291-0.501,0.271c-1.478-0.107-2.344-2.1-2.627-3.337l-1.624-0.603C73.901,82.867,74.707,85.995,74.961,86.96z"/>
	<path d="M93.151,86.96c0.082,0.297-0.111,0.538-0.331,0.647c-0.413,0.209-1.614,0.296-2.074,0.146c0,0-0.603,1.078-1.491,1.078   c-0.888,0-1.492-1.078-1.492-1.078c-0.459,0.15-1.662,0.063-2.074-0.146c-0.219-0.109-0.412-0.352-0.33-0.647   c0.254-0.965,1.059-4.093,1.332-5.188l-1.624,0.603c-0.283,1.237-1.148,3.229-2.626,3.337c-0.213,0.02-0.521-0.069-0.501-0.271   c0.19-1.675,1.208-9.244,1.31-9.967c0.099-0.718,0.327-1.054,0.835-1.219c0.488-0.157,0.856-0.044,1.382,0.433   c0.406,0.36,1.878,1.726,1.878,1.726s0.165-1.244,0.208-1.644c-0.171,0-0.386,0-0.386,0c-0.213,0-0.384-0.172-0.384-0.382   l0.174-1.504c0-0.15,0.095-0.291,0.226-0.349c0,0,0.638-0.305,1.164-0.508c0.526-0.202,0.907-0.202,0.907-0.202   c0.425,0.012,0.754,0.127,1.027,0.342c0.313,0.241,0.501,0.591,0.546,1.01l0.335,3.235c0,0,1.473-1.364,1.878-1.726   c0.526-0.477,0.895-0.591,1.383-0.433c0.508,0.165,0.736,0.501,0.835,1.219c0.102,0.723,1.12,8.292,1.311,9.967   c0.019,0.202-0.29,0.291-0.502,0.271c-1.478-0.107-2.344-2.1-2.627-3.337l-1.624-0.603C92.092,82.867,92.897,85.995,93.151,86.96z"/>
	<path d="M74.961,108.402c0.083,0.299-0.111,0.537-0.33,0.646c-0.412,0.209-1.614,0.299-2.074,0.146c0,0-0.603,1.079-1.491,1.079   c-0.888,0-1.491-1.079-1.491-1.079c-0.46,0.152-1.662,0.062-2.074-0.146c-0.219-0.109-0.412-0.349-0.331-0.646   c0.254-0.965,1.06-4.092,1.333-5.189l-1.624,0.604c-0.283,1.236-1.148,3.229-2.626,3.337c-0.213,0.019-0.521-0.07-0.502-0.272   c0.19-1.675,1.208-9.244,1.31-9.966c0.099-0.718,0.327-1.055,0.835-1.219c0.488-0.158,0.856-0.045,1.383,0.432   c0.407,0.361,1.878,1.727,1.878,1.727s0.164-1.244,0.208-1.645c-0.17,0-0.387,0-0.387,0c-0.212,0-0.384-0.172-0.384-0.381   l0.175-1.504c0-0.151,0.095-0.291,0.225-0.349c0,0,0.638-0.306,1.165-0.509c0.526-0.201,0.906-0.201,0.906-0.201   c0.425,0.012,0.755,0.127,1.027,0.342c0.315,0.241,0.502,0.59,0.546,1.01l0.336,3.235c0,0,1.472-1.364,1.877-1.727   c0.526-0.477,0.894-0.59,1.383-0.432c0.508,0.164,0.736,0.501,0.835,1.219c0.102,0.722,1.12,8.291,1.31,9.966   c0.019,0.202-0.29,0.291-0.501,0.272c-1.478-0.108-2.344-2.101-2.627-3.337l-1.624-0.604   C73.901,104.311,74.707,107.438,74.961,108.402z"/>
	<path d="M93.151,108.402c0.082,0.299-0.111,0.537-0.331,0.646c-0.413,0.209-1.614,0.299-2.074,0.146c0,0-0.603,1.079-1.491,1.079   c-0.888,0-1.492-1.079-1.492-1.079c-0.459,0.152-1.662,0.062-2.074-0.146c-0.219-0.109-0.412-0.349-0.33-0.646   c0.254-0.965,1.059-4.092,1.332-5.189l-1.624,0.604c-0.283,1.236-1.148,3.229-2.626,3.337c-0.213,0.019-0.521-0.07-0.501-0.272   c0.19-1.675,1.208-9.244,1.31-9.966c0.099-0.718,0.327-1.055,0.835-1.219c0.488-0.158,0.856-0.045,1.382,0.432   c0.406,0.361,1.878,1.727,1.878,1.727s0.165-1.244,0.208-1.645c-0.171,0-0.386,0-0.386,0c-0.213,0-0.384-0.172-0.384-0.381   l0.174-1.504c0-0.151,0.095-0.291,0.226-0.349c0,0,0.638-0.306,1.164-0.509c0.526-0.201,0.907-0.201,0.907-0.201   c0.425,0.012,0.754,0.127,1.027,0.342c0.313,0.241,0.501,0.59,0.546,1.01l0.335,3.235c0,0,1.473-1.364,1.878-1.727   c0.526-0.477,0.895-0.59,1.383-0.432c0.508,0.164,0.736,0.501,0.835,1.219c0.102,0.722,1.12,8.291,1.311,9.966   c0.019,0.202-0.29,0.291-0.502,0.272c-1.478-0.108-2.344-2.101-2.627-3.337l-1.624-0.604   C92.092,104.311,92.897,107.438,93.151,108.402z"/>
</g>
<g>
	<path d="M51.233,32.616c0.782,0,1.46-0.409,1.852-1.022c0.308,0.158,0.653,0.25,1.02,0.25c1.14,0,2.075-0.867,2.191-1.978   c1.191-0.023,2.16-1.004,2.16-2.202c0-0.547-0.205-1.048-0.538-1.436c-0.532-0.64-2.457-2.954-2.487-2.991c0-0.135,0-1.243,0-1.243   c0-0.59-0.473-1.072-1.063-1.072c0,0-1.032,0-1.096,0c-0.123-0.119-0.993-0.982-0.999-0.999c-0.275-0.28-0.642-0.434-1.039-0.434   c-0.396,0-0.764,0.152-1.039,0.434c-0.006,0.017-0.876,0.88-0.998,0.999c-0.064,0-1.098,0-1.098,0   c-0.589,0-1.063,0.482-1.063,1.072c0,0,0,1.108,0,1.243c-0.031,0.037-1.955,2.353-2.487,2.991   c-0.333,0.388-0.538,0.889-0.538,1.436c0,1.198,0.969,2.179,2.161,2.202c0.115,1.109,1.05,1.978,2.19,1.978   c0.366,0,0.711-0.092,1.021-0.25C49.772,32.207,50.451,32.616,51.233,32.616z"/>
	<path d="M51.233,65.179c0.782,0,1.46-0.41,1.852-1.023c0.308,0.159,0.653,0.25,1.02,0.25c1.14,0,2.075-0.867,2.191-1.977   c1.191-0.024,2.16-1.006,2.16-2.202c0-0.547-0.205-1.048-0.538-1.438c-0.532-0.638-2.457-2.954-2.487-2.99c0-0.135,0-1.242,0-1.242   c0-0.591-0.473-1.073-1.063-1.073c0,0-1.032,0-1.096,0c-0.123-0.118-0.993-0.983-0.999-0.999c-0.275-0.28-0.642-0.434-1.039-0.434   c-0.396,0-0.764,0.152-1.039,0.434c-0.006,0.016-0.876,0.881-0.998,0.999c-0.064,0-1.098,0-1.098,0   c-0.589,0-1.063,0.482-1.063,1.073c0,0,0,1.107,0,1.242c-0.031,0.036-1.955,2.354-2.487,2.99c-0.333,0.39-0.538,0.891-0.538,1.438   c0,1.196,0.969,2.178,2.161,2.202c0.115,1.108,1.05,1.977,2.19,1.977c0.366,0,0.711-0.091,1.021-0.25   C49.772,64.769,50.451,65.179,51.233,65.179z"/>
	<path d="M22.296,65.179c0.782,0,1.46-0.41,1.852-1.023c0.308,0.159,0.654,0.25,1.021,0.25c1.139,0,2.074-0.867,2.19-1.977   c1.191-0.024,2.16-1.006,2.16-2.202c0-0.547-0.205-1.048-0.538-1.438c-0.532-0.638-2.456-2.954-2.487-2.99c0-0.135,0-1.242,0-1.242   c0-0.591-0.474-1.073-1.063-1.073c0,0-1.032,0-1.097,0c-0.122-0.118-0.992-0.983-1-0.999c-0.274-0.28-0.641-0.434-1.038-0.434   s-0.764,0.152-1.038,0.434c-0.006,0.016-0.877,0.881-1,0.999c-0.063,0-1.096,0-1.096,0c-0.589,0-1.063,0.482-1.063,1.073   c0,0,0,1.107,0,1.242c-0.03,0.036-1.955,2.354-2.486,2.99c-0.333,0.39-0.539,0.891-0.539,1.438c0,1.196,0.969,2.178,2.16,2.202   c0.116,1.108,1.051,1.977,2.191,1.977c0.366,0,0.711-0.091,1.02-0.25C20.836,64.769,21.515,65.179,22.296,65.179z"/>
	<path d="M80.165,65.179c0.782,0,1.46-0.41,1.852-1.023c0.309,0.159,0.653,0.25,1.021,0.25c1.139,0,2.075-0.867,2.19-1.977   c1.191-0.024,2.159-1.006,2.159-2.202c0-0.547-0.204-1.048-0.537-1.438c-0.531-0.638-2.457-2.954-2.487-2.99   c0-0.135,0-1.242,0-1.242c0-0.591-0.473-1.073-1.062-1.073c0,0-1.033,0-1.097,0c-0.123-0.118-0.993-0.983-0.999-0.999   c-0.275-0.28-0.642-0.434-1.039-0.434s-0.764,0.152-1.039,0.434c-0.005,0.016-0.876,0.881-0.999,0.999c-0.064,0-1.097,0-1.097,0   c-0.589,0-1.062,0.482-1.062,1.073c0,0,0,1.107,0,1.242c-0.031,0.036-1.956,2.354-2.487,2.99c-0.333,0.39-0.538,0.891-0.538,1.438   c0,1.196,0.969,2.178,2.16,2.202c0.116,1.108,1.051,1.977,2.19,1.977c0.367,0,0.711-0.091,1.02-0.25   C78.704,64.769,79.382,65.179,80.165,65.179z"/>
	<path d="M51.233,97.741c0.782,0,1.46-0.41,1.852-1.023c0.308,0.158,0.653,0.249,1.02,0.249c1.14,0,2.075-0.867,2.191-1.976   c1.191-0.025,2.16-1.006,2.16-2.203c0-0.547-0.205-1.048-0.538-1.436c-0.532-0.64-2.457-2.954-2.487-2.992c0-0.134,0-1.243,0-1.243   c0-0.59-0.473-1.072-1.063-1.072c0,0-1.032,0-1.096,0c-0.123-0.119-0.993-0.982-0.999-0.998c-0.275-0.281-0.642-0.435-1.039-0.435   c-0.396,0-0.764,0.152-1.039,0.435c-0.006,0.016-0.876,0.879-0.998,0.998c-0.064,0-1.098,0-1.098,0   c-0.589,0-1.063,0.482-1.063,1.072c0,0,0,1.109,0,1.243c-0.031,0.038-1.955,2.354-2.487,2.992   c-0.333,0.388-0.538,0.889-0.538,1.436c0,1.197,0.969,2.178,2.161,2.203c0.115,1.107,1.05,1.976,2.19,1.976   c0.366,0,0.711-0.091,1.021-0.249C49.772,97.331,50.451,97.741,51.233,97.741z"/>
</g>
<g>
	<path fill="#00AFEC" d="M51.233,31.893c0.513-0.03,0.957-0.312,1.197-0.736l-0.423-3.996c-0.011-0.152,0.098-0.29,0.253-0.312   c0.158-0.022,0.305,0.083,0.333,0.238l0.706,3.841c0.216,0.122,0.467,0.195,0.736,0.195c0.776,0,1.409-0.599,1.473-1.362   l-1.636-3.801c-0.065-0.147,0.003-0.322,0.153-0.39c0.145-0.062,0.311-0.001,0.382,0.139l1.767,3.438c0.006,0,0,0,0,0   c0.822,0,1.488-0.662,1.488-1.481c0-0.312-0.027-0.577-0.187-0.794l-2.807-3.364V21.99c0-0.169-0.119-0.312-0.3-0.312   c-0.006,0-1.411,0-1.411,0l-1.222-1.225c-0.128-0.129-0.314-0.205-0.501-0.205s-0.373,0.076-0.5,0.205l-1.223,1.225   c0,0-1.405,0-1.412,0c-0.18,0-0.299,0.145-0.299,0.312v1.518l-2.807,3.364c-0.159,0.217-0.187,0.482-0.187,0.794   c0,0.819,0.666,1.481,1.488,1.481c0,0-0.006,0,0,0l1.767-3.438c0.07-0.14,0.238-0.201,0.383-0.139   c0.149,0.065,0.217,0.241,0.152,0.39l-1.635,3.801c0.064,0.765,0.696,1.362,1.472,1.362c0.27,0,0.52-0.073,0.737-0.195l0.705-3.841   c0.028-0.155,0.175-0.262,0.334-0.238c0.153,0.022,0.262,0.16,0.252,0.312l-0.424,3.996C50.277,31.58,50.72,31.862,51.233,31.893z"/>
	<path fill="#00AFEC" d="M51.233,64.455c0.513-0.031,0.957-0.312,1.197-0.736l-0.423-3.995c-0.011-0.153,0.098-0.291,0.253-0.313   c0.158-0.022,0.305,0.083,0.333,0.239l0.706,3.841c0.216,0.122,0.467,0.195,0.736,0.195c0.776,0,1.409-0.6,1.473-1.362   l-1.636-3.801c-0.065-0.149,0.003-0.323,0.153-0.39c0.145-0.062,0.311-0.002,0.382,0.138l1.767,3.438c0.006,0,0,0,0,0   c0.822,0,1.488-0.663,1.488-1.48c0-0.312-0.027-0.577-0.187-0.795l-2.807-3.363v-1.519c0-0.169-0.119-0.312-0.3-0.312   c-0.006,0-1.411,0-1.411,0l-1.222-1.225c-0.128-0.13-0.314-0.205-0.501-0.205s-0.373,0.075-0.5,0.205l-1.223,1.225   c0,0-1.405,0-1.412,0c-0.18,0-0.299,0.144-0.299,0.312v1.519l-2.807,3.363c-0.159,0.218-0.187,0.482-0.187,0.795   c0,0.817,0.666,1.48,1.488,1.48c0,0-0.006,0,0,0l1.767-3.438c0.07-0.14,0.238-0.2,0.383-0.138c0.149,0.065,0.217,0.239,0.152,0.39   l-1.635,3.801c0.064,0.764,0.696,1.362,1.472,1.362c0.27,0,0.52-0.073,0.737-0.195l0.705-3.841   c0.028-0.156,0.175-0.264,0.334-0.239c0.153,0.022,0.262,0.16,0.252,0.313l-0.424,3.995C50.277,64.143,50.72,64.424,51.233,64.455z   "/>
	<path fill="#00AFEC" d="M22.296,64.455c0.514-0.031,0.957-0.312,1.198-0.736l-0.423-3.995c-0.012-0.153,0.098-0.291,0.252-0.313   c0.158-0.022,0.305,0.083,0.333,0.239l0.707,3.841c0.216,0.122,0.466,0.195,0.736,0.195c0.775,0,1.408-0.6,1.473-1.362   l-1.636-3.801c-0.066-0.149,0.002-0.323,0.152-0.39c0.145-0.062,0.312-0.002,0.382,0.138l1.767,3.438c0.006,0,0,0,0,0   c0.822,0,1.488-0.663,1.488-1.48c0-0.312-0.028-0.577-0.186-0.795l-2.808-3.363v-1.519c0-0.169-0.119-0.312-0.299-0.312   c-0.006,0-1.412,0-1.412,0l-1.222-1.225c-0.128-0.13-0.314-0.205-0.501-0.205c-0.186,0-0.372,0.075-0.501,0.205l-1.221,1.225   c0,0-1.405,0-1.412,0c-0.18,0-0.299,0.144-0.299,0.312v1.519l-2.809,3.363c-0.159,0.218-0.187,0.482-0.187,0.795   c0,0.817,0.667,1.48,1.489,1.48c0,0-0.006,0,0,0l1.767-3.438c0.07-0.14,0.237-0.2,0.382-0.138c0.149,0.065,0.218,0.239,0.152,0.39   l-1.635,3.801c0.064,0.764,0.697,1.362,1.473,1.362c0.268,0,0.519-0.073,0.735-0.195l0.706-3.841   c0.029-0.156,0.175-0.264,0.333-0.239c0.155,0.022,0.264,0.16,0.252,0.313L21.1,63.719C21.34,64.143,21.784,64.424,22.296,64.455z"/>
	<path fill="#00AFEC" d="M80.165,64.455c0.514-0.031,0.957-0.312,1.198-0.736l-0.423-3.995c-0.011-0.153,0.098-0.291,0.253-0.313   c0.157-0.022,0.304,0.083,0.333,0.239l0.706,3.841c0.216,0.122,0.467,0.195,0.736,0.195c0.776,0,1.408-0.6,1.473-1.362   l-1.636-3.801c-0.066-0.149,0.003-0.323,0.152-0.39c0.145-0.062,0.312-0.002,0.382,0.138l1.767,3.438c0.007,0,0,0,0,0   c0.822,0,1.488-0.663,1.488-1.48c0-0.312-0.028-0.577-0.186-0.795L83.6,56.069v-1.519c0-0.169-0.119-0.312-0.299-0.312   c-0.006,0-1.412,0-1.412,0l-1.223-1.225c-0.127-0.13-0.314-0.205-0.5-0.205s-0.373,0.075-0.501,0.205l-1.222,1.225   c0,0-1.406,0-1.412,0c-0.18,0-0.299,0.144-0.299,0.312v1.519l-2.808,3.363c-0.159,0.218-0.187,0.482-0.187,0.795   c0,0.817,0.667,1.48,1.488,1.48c0,0-0.007,0,0,0l1.766-3.438c0.07-0.14,0.238-0.2,0.382-0.138c0.149,0.065,0.217,0.239,0.152,0.39   l-1.635,3.801c0.063,0.764,0.696,1.362,1.473,1.362c0.269,0,0.519-0.073,0.736-0.195l0.705-3.841   c0.029-0.156,0.176-0.264,0.334-0.239c0.154,0.022,0.263,0.16,0.252,0.313l-0.423,3.995C79.208,64.143,79.651,64.424,80.165,64.455   z"/>
	<path fill="#00AFEC" d="M51.233,97.016c0.513-0.029,0.957-0.312,1.197-0.735l-0.423-3.996c-0.011-0.153,0.098-0.29,0.253-0.312   c0.158-0.023,0.305,0.084,0.333,0.237l0.706,3.843c0.216,0.122,0.467,0.194,0.736,0.194c0.776,0,1.409-0.6,1.473-1.362   l-1.636-3.801c-0.065-0.149,0.003-0.323,0.153-0.389c0.145-0.063,0.311-0.002,0.382,0.138l1.767,3.438c0.006,0,0,0,0,0   c0.822,0,1.488-0.663,1.488-1.481c0-0.312-0.027-0.577-0.187-0.794l-2.807-3.364v-1.519c0-0.168-0.119-0.312-0.3-0.312   c-0.006,0-1.411,0-1.411,0l-1.222-1.225c-0.128-0.129-0.314-0.205-0.501-0.205s-0.373,0.076-0.5,0.205L49.51,86.8   c0,0-1.405,0-1.412,0c-0.18,0-0.299,0.145-0.299,0.312v1.519l-2.807,3.364c-0.159,0.217-0.187,0.482-0.187,0.794   c0,0.818,0.666,1.481,1.488,1.481c0,0-0.006,0,0,0l1.767-3.438c0.07-0.14,0.238-0.201,0.383-0.138   c0.149,0.064,0.217,0.238,0.152,0.389l-1.635,3.801c0.064,0.764,0.696,1.362,1.472,1.362c0.27,0,0.52-0.072,0.737-0.194   l0.705-3.843c0.028-0.153,0.175-0.262,0.334-0.237c0.153,0.022,0.262,0.159,0.252,0.312l-0.424,3.996   C50.277,96.705,50.72,96.986,51.233,97.016z"/>
</g>
<g>
	<path fill="#DCDDDE" d="M16.306,21.836c-0.265,0.098-0.853,0.146-1.146,0.12c-0.079-0.007-0.149-0.02-0.206-0.037l-0.041-0.031   l-0.59-2.861c-0.108-0.526-0.542-0.487-0.492,0.095l0.301,2.95c-0.08,0.152-0.517,0.876-0.936,0.876   c-0.418,0-0.856-0.724-0.936-0.876l0.3-2.95c0.052-0.582-0.383-0.621-0.491-0.095l-0.59,2.861l-0.041,0.031   c-0.057,0.019-0.127,0.03-0.207,0.037c-0.292,0.024-0.879-0.022-1.145-0.12c0.372-1.479,1.225-4.701,1.466-5.742   c0.038-0.157-0.057-0.431-0.371-0.443c-0.028,0-0.095,0.007-0.174,0.039c-0.368,0.139-1.424,0.539-1.758,0.659l0.222-2.354   c0.05-0.584-0.419-0.627-0.52-0.102c-0.463,2.081-0.723,4.903-2.23,5.829c0.117-0.995,1.101-8.386,1.241-9.374   C8,10.112,8.003,9.94,8.266,9.852c0.188-0.064,0.356,0.012,0.527,0.183c0.009,0.007,2.478,2.266,2.478,2.266   c0.095,0.12,0.256,0.179,0.405,0.134c0.143-0.044,0.257-0.171,0.276-0.323l0.343-2.804c0.012-0.108-0.02-0.217-0.096-0.292   c-0.07-0.083-0.174-0.135-0.278-0.135c0,0-0.197,0-0.388,0l0.102-0.867c0.278-0.135,1.034-0.478,1.389-0.533   c0.003,0,0.026-0.008,0.026-0.008c0.012-0.006,0.146-0.012,0.146-0.012c0.215,0,0.413,0.063,0.559,0.178   c0.152,0.119,0.241,0.279,0.259,0.494l0.432,3.979c0.02,0.152,0.127,0.279,0.27,0.323c0.149,0.045,0.311-0.014,0.406-0.134   c0,0,2.467-2.259,2.478-2.266c0.171-0.171,0.339-0.247,0.527-0.183c0.263,0.088,0.266,0.26,0.304,0.495   c0.141,0.988,1.123,8.379,1.241,9.374c-1.506-0.926-1.767-3.748-2.23-5.829c-0.1-0.525-0.57-0.482-0.52,0.102l0.222,2.354   c-0.333-0.12-1.389-0.521-1.757-0.659c-0.079-0.032-0.146-0.039-0.174-0.039c-0.314,0.014-0.41,0.286-0.372,0.443   C15.082,17.135,15.935,20.356,16.306,21.836z"/>
	<path fill="#DCDDDE" d="M34.497,21.836c-0.266,0.098-0.854,0.146-1.146,0.12c-0.079-0.007-0.148-0.02-0.206-0.037l-0.041-0.031   l-0.59-2.861c-0.108-0.526-0.542-0.487-0.491,0.095l0.301,2.95c-0.079,0.152-0.518,0.876-0.936,0.876   c-0.419,0-0.857-0.724-0.936-0.876l0.301-2.95c0.051-0.582-0.384-0.621-0.491-0.095l-0.59,2.861l-0.041,0.031   c-0.057,0.019-0.127,0.03-0.206,0.037c-0.292,0.024-0.88-0.022-1.146-0.12c0.371-1.479,1.225-4.701,1.466-5.742   c0.038-0.157-0.058-0.431-0.372-0.443c-0.028,0-0.095,0.007-0.174,0.039c-0.368,0.139-1.424,0.539-1.757,0.659l0.222-2.354   c0.05-0.584-0.42-0.627-0.52-0.102c-0.463,2.081-0.724,4.903-2.23,5.829c0.117-0.995,1.1-8.386,1.24-9.374   c0.038-0.235,0.041-0.407,0.304-0.495c0.187-0.064,0.355,0.012,0.527,0.183c0.009,0.007,2.478,2.266,2.478,2.266   c0.095,0.12,0.256,0.179,0.406,0.134c0.143-0.044,0.257-0.171,0.276-0.323l0.342-2.804c0.013-0.108-0.019-0.217-0.095-0.292   c-0.069-0.083-0.174-0.135-0.279-0.135c0,0-0.197,0-0.387,0l0.102-0.867c0.28-0.135,1.035-0.478,1.39-0.533   c0.002,0,0.025-0.008,0.025-0.008c0.012-0.006,0.146-0.012,0.146-0.012c0.215,0,0.412,0.063,0.558,0.178   c0.153,0.119,0.241,0.279,0.26,0.494l0.432,3.979c0.019,0.152,0.126,0.279,0.27,0.323c0.148,0.045,0.31-0.014,0.405-0.134   c0,0,2.468-2.259,2.478-2.266c0.171-0.171,0.339-0.247,0.527-0.183c0.262,0.088,0.266,0.26,0.304,0.495   c0.14,0.988,1.123,8.379,1.24,9.374c-1.506-0.926-1.766-3.748-2.229-5.829c-0.101-0.525-0.57-0.482-0.52,0.102l0.221,2.354   c-0.333-0.12-1.389-0.521-1.757-0.659c-0.079-0.032-0.146-0.039-0.175-0.039c-0.314,0.014-0.409,0.286-0.371,0.443   C33.272,17.135,34.125,20.356,34.497,21.836z"/>
	<path fill="#DCDDDE" d="M16.306,43.278c-0.265,0.097-0.853,0.145-1.146,0.12c-0.079-0.008-0.149-0.021-0.206-0.038l-0.041-0.031   l-0.59-2.861c-0.108-0.525-0.542-0.485-0.492,0.096l0.301,2.95c-0.08,0.15-0.517,0.876-0.936,0.876   c-0.418,0-0.856-0.726-0.936-0.876l0.3-2.95c0.052-0.581-0.383-0.621-0.491-0.096l-0.59,2.861L11.44,43.36   c-0.057,0.019-0.127,0.03-0.207,0.038c-0.292,0.023-0.879-0.023-1.145-0.12c0.372-1.479,1.225-4.701,1.466-5.742   c0.038-0.158-0.057-0.432-0.371-0.443c-0.028,0-0.095,0.007-0.174,0.038c-0.368,0.141-1.424,0.539-1.758,0.659l0.222-2.354   c0.05-0.584-0.419-0.627-0.52-0.102c-0.463,2.08-0.723,4.903-2.23,5.828c0.117-0.995,1.101-8.386,1.241-9.375   c0.038-0.233,0.041-0.405,0.304-0.495c0.188-0.062,0.356,0.014,0.527,0.186c0.009,0.007,2.478,2.265,2.478,2.265   c0.095,0.12,0.256,0.178,0.405,0.134c0.143-0.045,0.257-0.173,0.276-0.324l0.343-2.805c0.012-0.106-0.02-0.215-0.096-0.291   c-0.07-0.082-0.174-0.134-0.278-0.134c0,0-0.197,0-0.388,0l0.102-0.868c0.278-0.134,1.034-0.477,1.389-0.533   c0.003,0,0.026-0.007,0.026-0.007c0.012-0.006,0.146-0.013,0.146-0.013c0.215,0,0.413,0.062,0.559,0.178   c0.152,0.12,0.241,0.279,0.259,0.495l0.432,3.978c0.02,0.151,0.127,0.279,0.27,0.324c0.149,0.044,0.311-0.014,0.406-0.134   c0,0,2.467-2.258,2.478-2.265c0.171-0.172,0.339-0.247,0.527-0.186c0.263,0.09,0.266,0.262,0.304,0.495   c0.141,0.989,1.123,8.38,1.241,9.375c-1.506-0.925-1.767-3.748-2.23-5.828c-0.1-0.525-0.57-0.482-0.52,0.102l0.222,2.354   c-0.333-0.12-1.389-0.52-1.757-0.659c-0.079-0.031-0.146-0.038-0.174-0.038c-0.314,0.013-0.41,0.285-0.372,0.443   C15.082,38.577,15.935,41.799,16.306,43.278z"/>
	<path fill="#DCDDDE" d="M34.497,43.278c-0.266,0.097-0.854,0.145-1.146,0.12c-0.079-0.008-0.148-0.021-0.206-0.038l-0.041-0.031   l-0.59-2.861c-0.108-0.525-0.542-0.485-0.491,0.096l0.301,2.95c-0.079,0.15-0.518,0.876-0.936,0.876   c-0.419,0-0.857-0.726-0.936-0.876l0.301-2.95c0.051-0.581-0.384-0.621-0.491-0.096l-0.59,2.861L29.63,43.36   c-0.057,0.019-0.127,0.03-0.206,0.038c-0.292,0.023-0.88-0.023-1.146-0.12c0.371-1.479,1.225-4.701,1.466-5.742   c0.038-0.158-0.058-0.432-0.372-0.443c-0.028,0-0.095,0.007-0.174,0.038c-0.368,0.141-1.424,0.539-1.757,0.659l0.222-2.354   c0.05-0.584-0.42-0.627-0.52-0.102c-0.463,2.08-0.724,4.903-2.23,5.828c0.117-0.995,1.1-8.386,1.24-9.375   c0.038-0.233,0.041-0.405,0.304-0.495c0.187-0.062,0.355,0.014,0.527,0.186c0.009,0.007,2.478,2.265,2.478,2.265   c0.095,0.12,0.256,0.178,0.406,0.134c0.143-0.045,0.257-0.173,0.276-0.324l0.342-2.805c0.013-0.106-0.019-0.215-0.095-0.291   c-0.069-0.082-0.174-0.134-0.279-0.134c0,0-0.197,0-0.387,0l0.102-0.868c0.28-0.134,1.035-0.477,1.39-0.533   c0.002,0,0.025-0.007,0.025-0.007c0.012-0.006,0.146-0.013,0.146-0.013c0.215,0,0.412,0.062,0.558,0.178   c0.153,0.12,0.241,0.279,0.26,0.495l0.432,3.978c0.019,0.151,0.126,0.279,0.27,0.324c0.148,0.044,0.31-0.014,0.405-0.134   c0,0,2.468-2.258,2.478-2.265c0.171-0.172,0.339-0.247,0.527-0.186c0.262,0.09,0.266,0.262,0.304,0.495   c0.14,0.989,1.123,8.38,1.24,9.375c-1.506-0.925-1.766-3.748-2.229-5.828c-0.101-0.525-0.57-0.482-0.52,0.102l0.221,2.354   c-0.333-0.12-1.389-0.52-1.757-0.659c-0.079-0.031-0.146-0.038-0.175-0.038c-0.314,0.013-0.409,0.285-0.371,0.443   C33.272,38.577,34.125,41.799,34.497,43.278z"/>
	<path fill="#DCDDDE" d="M74.174,21.836c-0.264,0.098-0.853,0.146-1.145,0.12c-0.079-0.007-0.149-0.02-0.206-0.037l-0.041-0.031   l-0.59-2.861c-0.107-0.526-0.542-0.487-0.492,0.095l0.301,2.95c-0.08,0.152-0.517,0.876-0.936,0.876   c-0.418,0-0.856-0.724-0.936-0.876l0.301-2.95c0.051-0.582-0.383-0.621-0.491-0.095l-0.59,2.861l-0.041,0.031   c-0.057,0.019-0.127,0.03-0.207,0.037c-0.292,0.024-0.88-0.022-1.145-0.12c0.371-1.479,1.225-4.701,1.465-5.742   c0.038-0.157-0.057-0.431-0.37-0.443c-0.029,0-0.096,0.007-0.175,0.039c-0.368,0.139-1.425,0.539-1.758,0.659l0.222-2.354   c0.049-0.584-0.42-0.627-0.521-0.102c-0.463,2.081-0.723,4.903-2.229,5.829c0.116-0.995,1.1-8.386,1.24-9.374   c0.038-0.235,0.042-0.407,0.304-0.495c0.188-0.064,0.355,0.012,0.527,0.183c0.009,0.007,2.478,2.266,2.478,2.266   c0.095,0.12,0.256,0.179,0.406,0.134c0.143-0.044,0.257-0.171,0.276-0.323l0.342-2.804c0.012-0.108-0.019-0.217-0.095-0.292   C70,8.932,69.896,8.881,69.791,8.881c0,0-0.197,0-0.387,0l0.102-0.867c0.279-0.135,1.035-0.478,1.389-0.533   c0.003,0,0.026-0.008,0.026-0.008c0.012-0.006,0.145-0.012,0.145-0.012c0.216,0,0.414,0.063,0.559,0.178   c0.151,0.119,0.241,0.279,0.259,0.494l0.431,3.979c0.02,0.152,0.127,0.279,0.27,0.323c0.15,0.045,0.311-0.014,0.406-0.134   c0,0,2.467-2.259,2.478-2.266c0.171-0.171,0.339-0.247,0.526-0.183c0.263,0.088,0.267,0.26,0.305,0.495   c0.14,0.988,1.123,8.379,1.24,9.374c-1.506-0.926-1.767-3.748-2.229-5.829c-0.1-0.525-0.57-0.482-0.521,0.102l0.222,2.354   c-0.333-0.12-1.389-0.521-1.757-0.659c-0.079-0.032-0.146-0.039-0.174-0.039c-0.313,0.014-0.409,0.286-0.372,0.443   C72.95,17.135,73.804,20.356,74.174,21.836z"/>
	<path fill="#DCDDDE" d="M92.365,21.836c-0.266,0.098-0.853,0.146-1.146,0.12c-0.08-0.007-0.149-0.02-0.207-0.037l-0.041-0.031   l-0.59-2.861c-0.108-0.526-0.542-0.487-0.492,0.095l0.301,2.95c-0.079,0.152-0.517,0.876-0.935,0.876   c-0.419,0-0.856-0.724-0.936-0.876l0.301-2.95c0.051-0.582-0.384-0.621-0.491-0.095l-0.59,2.861l-0.041,0.031   c-0.056,0.019-0.127,0.03-0.206,0.037c-0.292,0.024-0.88-0.022-1.145-0.12c0.371-1.479,1.224-4.701,1.466-5.742   c0.038-0.157-0.058-0.431-0.372-0.443c-0.029,0-0.095,0.007-0.174,0.039c-0.368,0.139-1.425,0.539-1.758,0.659l0.222-2.354   c0.05-0.584-0.419-0.627-0.52-0.102c-0.463,2.081-0.723,4.903-2.23,5.829c0.117-0.995,1.1-8.386,1.24-9.374   c0.038-0.235,0.042-0.407,0.304-0.495c0.188-0.064,0.356,0.012,0.527,0.183c0.01,0.007,2.478,2.266,2.478,2.266   c0.095,0.12,0.256,0.179,0.405,0.134c0.143-0.044,0.257-0.171,0.277-0.323l0.342-2.804c0.013-0.108-0.019-0.217-0.095-0.292   c-0.07-0.083-0.175-0.135-0.279-0.135c0,0-0.197,0-0.388,0l0.102-0.867c0.279-0.135,1.034-0.478,1.389-0.533   c0.003,0,0.026-0.008,0.026-0.008c0.012-0.006,0.146-0.012,0.146-0.012c0.215,0,0.412,0.063,0.558,0.178   c0.152,0.119,0.241,0.279,0.26,0.494l0.432,3.979c0.019,0.152,0.126,0.279,0.27,0.323c0.149,0.045,0.311-0.014,0.406-0.134   c0,0,2.468-2.259,2.477-2.266c0.172-0.171,0.339-0.247,0.527-0.183c0.263,0.088,0.266,0.26,0.304,0.495   c0.14,0.988,1.124,8.379,1.241,9.374c-1.506-0.926-1.767-3.748-2.23-5.829c-0.1-0.525-0.57-0.482-0.52,0.102l0.222,2.354   c-0.333-0.12-1.389-0.521-1.757-0.659c-0.079-0.032-0.146-0.039-0.174-0.039c-0.314,0.014-0.409,0.286-0.372,0.443   C91.14,17.135,91.993,20.356,92.365,21.836z"/>
	<path fill="#DCDDDE" d="M74.174,43.278c-0.264,0.097-0.853,0.145-1.145,0.12c-0.079-0.008-0.149-0.021-0.206-0.038l-0.041-0.031   l-0.59-2.861c-0.107-0.525-0.542-0.485-0.492,0.096l0.301,2.95c-0.08,0.15-0.517,0.876-0.936,0.876   c-0.418,0-0.856-0.726-0.936-0.876l0.301-2.95c0.051-0.581-0.383-0.621-0.491-0.096l-0.59,2.861l-0.041,0.031   c-0.057,0.019-0.127,0.03-0.207,0.038c-0.292,0.023-0.88-0.023-1.145-0.12c0.371-1.479,1.225-4.701,1.465-5.742   c0.038-0.158-0.057-0.432-0.37-0.443c-0.029,0-0.096,0.007-0.175,0.038c-0.368,0.141-1.425,0.539-1.758,0.659l0.222-2.354   c0.049-0.584-0.42-0.627-0.521-0.102c-0.463,2.08-0.723,4.903-2.229,5.828c0.116-0.995,1.1-8.386,1.24-9.375   c0.038-0.233,0.042-0.405,0.304-0.495c0.188-0.062,0.355,0.014,0.527,0.186c0.009,0.007,2.478,2.265,2.478,2.265   c0.095,0.12,0.256,0.178,0.406,0.134c0.143-0.045,0.257-0.173,0.276-0.324l0.342-2.805c0.012-0.106-0.019-0.215-0.095-0.291   c-0.07-0.082-0.174-0.134-0.279-0.134c0,0-0.197,0-0.387,0l0.102-0.868c0.279-0.134,1.035-0.477,1.389-0.533   c0.003,0,0.026-0.007,0.026-0.007c0.012-0.006,0.145-0.013,0.145-0.013c0.216,0,0.414,0.062,0.559,0.178   c0.151,0.12,0.241,0.279,0.259,0.495l0.431,3.978c0.02,0.151,0.127,0.279,0.27,0.324c0.15,0.044,0.311-0.014,0.406-0.134   c0,0,2.467-2.258,2.478-2.265c0.171-0.172,0.339-0.247,0.526-0.186c0.263,0.09,0.267,0.262,0.305,0.495   c0.14,0.989,1.123,8.38,1.24,9.375c-1.506-0.925-1.767-3.748-2.229-5.828c-0.1-0.525-0.57-0.482-0.521,0.102l0.222,2.354   c-0.333-0.12-1.389-0.52-1.757-0.659c-0.079-0.031-0.146-0.038-0.174-0.038c-0.313,0.013-0.409,0.285-0.372,0.443   C72.95,38.577,73.804,41.799,74.174,43.278z"/>
	<path fill="#DCDDDE" d="M92.365,43.278c-0.266,0.097-0.853,0.145-1.146,0.12c-0.08-0.008-0.149-0.021-0.207-0.038l-0.041-0.031   l-0.59-2.861c-0.108-0.525-0.542-0.485-0.492,0.096l0.301,2.95c-0.079,0.15-0.517,0.876-0.935,0.876   c-0.419,0-0.856-0.726-0.936-0.876l0.301-2.95c0.051-0.581-0.384-0.621-0.491-0.096l-0.59,2.861l-0.041,0.031   c-0.056,0.019-0.127,0.03-0.206,0.038c-0.292,0.023-0.88-0.023-1.145-0.12c0.371-1.479,1.224-4.701,1.466-5.742   c0.038-0.158-0.058-0.432-0.372-0.443c-0.029,0-0.095,0.007-0.174,0.038c-0.368,0.141-1.425,0.539-1.758,0.659l0.222-2.354   c0.05-0.584-0.419-0.627-0.52-0.102c-0.463,2.08-0.723,4.903-2.23,5.828c0.117-0.995,1.1-8.386,1.24-9.375   c0.038-0.233,0.042-0.405,0.304-0.495c0.188-0.062,0.356,0.014,0.527,0.186c0.01,0.007,2.478,2.265,2.478,2.265   c0.095,0.12,0.256,0.178,0.405,0.134c0.143-0.045,0.257-0.173,0.277-0.324l0.342-2.805c0.013-0.106-0.019-0.215-0.095-0.291   c-0.07-0.082-0.175-0.134-0.279-0.134c0,0-0.197,0-0.388,0l0.102-0.868c0.279-0.134,1.034-0.477,1.389-0.533   c0.003,0,0.026-0.007,0.026-0.007c0.012-0.006,0.146-0.013,0.146-0.013c0.215,0,0.412,0.062,0.558,0.178   c0.152,0.12,0.241,0.279,0.26,0.495l0.432,3.978c0.019,0.151,0.126,0.279,0.27,0.324c0.149,0.044,0.311-0.014,0.406-0.134   c0,0,2.468-2.258,2.477-2.265c0.172-0.172,0.339-0.247,0.527-0.186c0.263,0.09,0.266,0.262,0.304,0.495   c0.14,0.989,1.124,8.38,1.241,9.375c-1.506-0.925-1.767-3.748-2.23-5.828c-0.1-0.525-0.57-0.482-0.52,0.102l0.222,2.354   c-0.333-0.12-1.389-0.52-1.757-0.659c-0.079-0.031-0.146-0.038-0.174-0.038c-0.314,0.013-0.409,0.285-0.372,0.443   C91.14,38.577,91.993,41.799,92.365,43.278z"/>
	<path fill="#DCDDDE" d="M16.306,86.96c-0.265,0.098-0.853,0.146-1.146,0.12c-0.079-0.008-0.149-0.019-0.206-0.038l-0.041-0.031   l-0.59-2.86c-0.108-0.526-0.542-0.486-0.492,0.096l0.301,2.949c-0.08,0.152-0.517,0.876-0.936,0.876   c-0.418,0-0.856-0.724-0.936-0.876l0.3-2.949c0.052-0.582-0.383-0.622-0.491-0.096l-0.59,2.86l-0.041,0.031   c-0.057,0.021-0.127,0.03-0.207,0.038c-0.292,0.024-0.879-0.022-1.145-0.12c0.372-1.479,1.225-4.701,1.466-5.741   c0.038-0.158-0.057-0.432-0.371-0.443c-0.028,0-0.095,0.007-0.174,0.038c-0.368,0.139-1.424,0.54-1.758,0.659l0.222-2.354   c0.05-0.583-0.419-0.627-0.52-0.101c-0.463,2.081-0.723,4.903-2.23,5.829c0.117-0.995,1.101-8.387,1.241-9.377   C8,75.236,8.003,75.065,8.266,74.975c0.188-0.063,0.356,0.013,0.527,0.185c0.009,0.006,2.478,2.265,2.478,2.265   c0.095,0.12,0.256,0.179,0.405,0.135c0.143-0.045,0.257-0.172,0.276-0.324l0.343-2.804c0.012-0.108-0.02-0.217-0.096-0.292   c-0.07-0.083-0.174-0.134-0.278-0.134c0,0-0.197,0-0.388,0l0.102-0.869c0.278-0.134,1.034-0.477,1.389-0.532   c0.003,0,0.026-0.007,0.026-0.007c0.012-0.007,0.146-0.013,0.146-0.013c0.215,0,0.413,0.063,0.559,0.177   c0.152,0.12,0.241,0.28,0.259,0.495l0.432,3.979c0.02,0.151,0.127,0.279,0.27,0.324c0.149,0.044,0.311-0.015,0.406-0.135   c0,0,2.467-2.259,2.478-2.265c0.171-0.172,0.339-0.248,0.527-0.185c0.263,0.09,0.266,0.261,0.304,0.494   c0.141,0.99,1.123,8.382,1.241,9.377c-1.506-0.926-1.767-3.748-2.23-5.829c-0.1-0.526-0.57-0.482-0.52,0.101l0.222,2.354   c-0.333-0.119-1.389-0.521-1.757-0.659c-0.079-0.031-0.146-0.038-0.174-0.038c-0.314,0.013-0.41,0.285-0.372,0.443   C15.082,82.259,15.935,85.48,16.306,86.96z"/>
	<path fill="#DCDDDE" d="M34.497,86.96c-0.266,0.098-0.854,0.146-1.146,0.12c-0.079-0.008-0.148-0.019-0.206-0.038l-0.041-0.031   l-0.59-2.86c-0.108-0.526-0.542-0.486-0.491,0.096l0.301,2.949c-0.079,0.152-0.518,0.876-0.936,0.876   c-0.419,0-0.857-0.724-0.936-0.876l0.301-2.949c0.051-0.582-0.384-0.622-0.491-0.096l-0.59,2.86l-0.041,0.031   c-0.057,0.021-0.127,0.03-0.206,0.038c-0.292,0.024-0.88-0.022-1.146-0.12c0.371-1.479,1.225-4.701,1.466-5.741   c0.038-0.158-0.058-0.432-0.372-0.443c-0.028,0-0.095,0.007-0.174,0.038c-0.368,0.139-1.424,0.54-1.757,0.659l0.222-2.354   c0.05-0.583-0.42-0.627-0.52-0.101c-0.463,2.081-0.724,4.903-2.23,5.829c0.117-0.995,1.1-8.387,1.24-9.377   c0.038-0.233,0.041-0.404,0.304-0.494c0.187-0.063,0.355,0.013,0.527,0.185c0.009,0.006,2.478,2.265,2.478,2.265   c0.095,0.12,0.256,0.179,0.406,0.135c0.143-0.045,0.257-0.172,0.276-0.324l0.342-2.804c0.013-0.108-0.019-0.217-0.095-0.292   c-0.069-0.083-0.174-0.134-0.279-0.134c0,0-0.197,0-0.387,0l0.102-0.869c0.28-0.134,1.035-0.477,1.39-0.532   c0.002,0,0.025-0.007,0.025-0.007c0.012-0.007,0.146-0.013,0.146-0.013c0.215,0,0.412,0.063,0.558,0.177   c0.153,0.12,0.241,0.28,0.26,0.495l0.432,3.979c0.019,0.151,0.126,0.279,0.27,0.324c0.148,0.044,0.31-0.015,0.405-0.135   c0,0,2.468-2.259,2.478-2.265c0.171-0.172,0.339-0.248,0.527-0.185c0.262,0.09,0.266,0.261,0.304,0.494   c0.14,0.99,1.123,8.382,1.24,9.377c-1.506-0.926-1.766-3.748-2.229-5.829c-0.101-0.526-0.57-0.482-0.52,0.101l0.221,2.354   c-0.333-0.119-1.389-0.521-1.757-0.659c-0.079-0.031-0.146-0.038-0.175-0.038c-0.314,0.013-0.409,0.285-0.371,0.443   C33.272,82.259,34.125,85.48,34.497,86.96z"/>
	<path fill="#DCDDDE" d="M16.306,108.402c-0.265,0.097-0.853,0.145-1.146,0.12c-0.079-0.007-0.149-0.021-0.206-0.038l-0.041-0.031   l-0.59-2.861c-0.108-0.526-0.542-0.487-0.492,0.096l0.301,2.95c-0.08,0.151-0.517,0.876-0.936,0.876   c-0.418,0-0.856-0.725-0.936-0.876l0.3-2.95c0.052-0.583-0.383-0.622-0.491-0.096l-0.59,2.861l-0.041,0.031   c-0.057,0.019-0.127,0.031-0.207,0.038c-0.292,0.023-0.879-0.023-1.145-0.12c0.372-1.479,1.225-4.701,1.466-5.742   c0.038-0.158-0.057-0.431-0.371-0.444c-0.028,0-0.095,0.009-0.174,0.039c-0.368,0.14-1.424,0.539-1.758,0.659l0.222-2.353   c0.05-0.585-0.419-0.628-0.52-0.103c-0.463,2.08-0.723,4.904-2.23,5.829c0.117-0.996,1.101-8.386,1.241-9.375   C8,96.677,8.003,96.506,8.266,96.417c0.188-0.062,0.356,0.014,0.527,0.186c0.009,0.006,2.478,2.264,2.478,2.264   c0.095,0.121,0.256,0.179,0.405,0.134c0.143-0.044,0.257-0.171,0.276-0.324l0.343-2.803c0.012-0.107-0.02-0.216-0.096-0.292   c-0.07-0.083-0.174-0.134-0.278-0.134c0,0-0.197,0-0.388,0l0.102-0.868c0.278-0.134,1.034-0.477,1.389-0.533   c0.003,0,0.026-0.007,0.026-0.007c0.012-0.006,0.146-0.012,0.146-0.012c0.215,0,0.413,0.062,0.559,0.178   c0.152,0.119,0.241,0.279,0.259,0.494l0.432,3.977c0.02,0.153,0.127,0.28,0.27,0.324c0.149,0.045,0.311-0.013,0.406-0.134   c0,0,2.467-2.258,2.478-2.264c0.171-0.172,0.339-0.248,0.527-0.186c0.263,0.089,0.266,0.261,0.304,0.496   c0.141,0.989,1.123,8.379,1.241,9.375c-1.506-0.925-1.767-3.749-2.23-5.829c-0.1-0.525-0.57-0.482-0.52,0.103l0.222,2.353   c-0.333-0.12-1.389-0.521-1.757-0.659c-0.079-0.03-0.146-0.039-0.174-0.039c-0.314,0.015-0.41,0.286-0.372,0.444   C15.082,103.701,15.935,106.923,16.306,108.402z"/>
	<path fill="#DCDDDE" d="M34.497,108.402c-0.266,0.097-0.854,0.145-1.146,0.12c-0.079-0.007-0.148-0.021-0.206-0.038l-0.041-0.031   l-0.59-2.861c-0.108-0.526-0.542-0.487-0.491,0.096l0.301,2.95c-0.079,0.151-0.518,0.876-0.936,0.876   c-0.419,0-0.857-0.725-0.936-0.876l0.301-2.95c0.051-0.583-0.384-0.622-0.491-0.096l-0.59,2.861l-0.041,0.031   c-0.057,0.019-0.127,0.031-0.206,0.038c-0.292,0.023-0.88-0.023-1.146-0.12c0.371-1.479,1.225-4.701,1.466-5.742   c0.038-0.158-0.058-0.431-0.372-0.444c-0.028,0-0.095,0.009-0.174,0.039c-0.368,0.14-1.424,0.539-1.757,0.659l0.222-2.353   c0.05-0.585-0.42-0.628-0.52-0.103c-0.463,2.08-0.724,4.904-2.23,5.829c0.117-0.996,1.1-8.386,1.24-9.375   c0.038-0.235,0.041-0.407,0.304-0.496c0.187-0.062,0.355,0.014,0.527,0.186c0.009,0.006,2.478,2.264,2.478,2.264   c0.095,0.121,0.256,0.179,0.406,0.134c0.143-0.044,0.257-0.171,0.276-0.324l0.342-2.803c0.013-0.107-0.019-0.216-0.095-0.292   c-0.069-0.083-0.174-0.134-0.279-0.134c0,0-0.197,0-0.387,0l0.102-0.868c0.28-0.134,1.035-0.477,1.39-0.533   c0.002,0,0.025-0.007,0.025-0.007c0.012-0.006,0.146-0.012,0.146-0.012c0.215,0,0.412,0.062,0.558,0.178   c0.153,0.119,0.241,0.279,0.26,0.494l0.432,3.977c0.019,0.153,0.126,0.28,0.27,0.324c0.148,0.045,0.31-0.013,0.405-0.134   c0,0,2.468-2.258,2.478-2.264c0.171-0.172,0.339-0.248,0.527-0.186c0.262,0.089,0.266,0.261,0.304,0.496   c0.14,0.989,1.123,8.379,1.24,9.375c-1.506-0.925-1.766-3.749-2.229-5.829c-0.101-0.525-0.57-0.482-0.52,0.103l0.221,2.353   c-0.333-0.12-1.389-0.521-1.757-0.659c-0.079-0.03-0.146-0.039-0.175-0.039c-0.314,0.015-0.409,0.286-0.371,0.444   C33.272,103.701,34.125,106.923,34.497,108.402z"/>
	<path fill="#DCDDDE" d="M74.174,86.96c-0.264,0.098-0.853,0.146-1.145,0.12c-0.079-0.008-0.149-0.019-0.206-0.038l-0.041-0.031   l-0.59-2.86c-0.107-0.526-0.542-0.486-0.492,0.096l0.301,2.949c-0.08,0.152-0.517,0.876-0.936,0.876   c-0.418,0-0.856-0.724-0.936-0.876l0.301-2.949c0.051-0.582-0.383-0.622-0.491-0.096l-0.59,2.86l-0.041,0.031   c-0.057,0.021-0.127,0.03-0.207,0.038c-0.292,0.024-0.88-0.022-1.145-0.12c0.371-1.479,1.225-4.701,1.465-5.741   c0.038-0.158-0.057-0.432-0.37-0.443c-0.029,0-0.096,0.007-0.175,0.038c-0.368,0.139-1.425,0.54-1.758,0.659l0.222-2.354   c0.049-0.583-0.42-0.627-0.521-0.101c-0.463,2.081-0.723,4.903-2.229,5.829c0.116-0.995,1.1-8.387,1.24-9.377   c0.038-0.233,0.042-0.404,0.304-0.494c0.188-0.063,0.355,0.013,0.527,0.185c0.009,0.006,2.478,2.265,2.478,2.265   c0.095,0.12,0.256,0.179,0.406,0.135c0.143-0.045,0.257-0.172,0.276-0.324l0.342-2.804c0.012-0.108-0.019-0.217-0.095-0.292   c-0.07-0.083-0.174-0.134-0.279-0.134c0,0-0.197,0-0.387,0l0.102-0.869c0.279-0.134,1.035-0.477,1.389-0.532   c0.003,0,0.026-0.007,0.026-0.007c0.012-0.007,0.145-0.013,0.145-0.013c0.216,0,0.414,0.063,0.559,0.177   c0.151,0.12,0.241,0.28,0.259,0.495l0.431,3.979c0.02,0.151,0.127,0.279,0.27,0.324c0.15,0.044,0.311-0.015,0.406-0.135   c0,0,2.467-2.259,2.478-2.265c0.171-0.172,0.339-0.248,0.526-0.185c0.263,0.09,0.267,0.261,0.305,0.494   c0.14,0.99,1.123,8.382,1.24,9.377c-1.506-0.926-1.767-3.748-2.229-5.829c-0.1-0.526-0.57-0.482-0.521,0.101l0.222,2.354   c-0.333-0.119-1.389-0.521-1.757-0.659c-0.079-0.031-0.146-0.038-0.174-0.038c-0.313,0.013-0.409,0.285-0.372,0.443   C72.95,82.259,73.804,85.48,74.174,86.96z"/>
	<path fill="#DCDDDE" d="M92.365,86.96c-0.266,0.098-0.853,0.146-1.146,0.12c-0.08-0.008-0.149-0.019-0.207-0.038l-0.041-0.031   l-0.59-2.86c-0.108-0.526-0.542-0.486-0.492,0.096l0.301,2.949c-0.079,0.152-0.517,0.876-0.935,0.876   c-0.419,0-0.856-0.724-0.936-0.876l0.301-2.949c0.051-0.582-0.384-0.622-0.491-0.096l-0.59,2.86l-0.041,0.031   c-0.056,0.021-0.127,0.03-0.206,0.038c-0.292,0.024-0.88-0.022-1.145-0.12c0.371-1.479,1.224-4.701,1.466-5.741   c0.038-0.158-0.058-0.432-0.372-0.443c-0.029,0-0.095,0.007-0.174,0.038c-0.368,0.139-1.425,0.54-1.758,0.659l0.222-2.354   c0.05-0.583-0.419-0.627-0.52-0.101c-0.463,2.081-0.723,4.903-2.23,5.829c0.117-0.995,1.1-8.387,1.24-9.377   c0.038-0.233,0.042-0.404,0.304-0.494c0.188-0.063,0.356,0.013,0.527,0.185c0.01,0.006,2.478,2.265,2.478,2.265   c0.095,0.12,0.256,0.179,0.405,0.135c0.143-0.045,0.257-0.172,0.277-0.324l0.342-2.804c0.013-0.108-0.019-0.217-0.095-0.292   c-0.07-0.083-0.175-0.134-0.279-0.134c0,0-0.197,0-0.388,0l0.102-0.869c0.279-0.134,1.034-0.477,1.389-0.532   c0.003,0,0.026-0.007,0.026-0.007c0.012-0.007,0.146-0.013,0.146-0.013c0.215,0,0.412,0.063,0.558,0.177   c0.152,0.12,0.241,0.28,0.26,0.495l0.432,3.979c0.019,0.151,0.126,0.279,0.27,0.324c0.149,0.044,0.311-0.015,0.406-0.135   c0,0,2.468-2.259,2.477-2.265c0.172-0.172,0.339-0.248,0.527-0.185c0.263,0.09,0.266,0.261,0.304,0.494   c0.14,0.99,1.124,8.382,1.241,9.377c-1.506-0.926-1.767-3.748-2.23-5.829c-0.1-0.526-0.57-0.482-0.52,0.101l0.222,2.354   c-0.333-0.119-1.389-0.521-1.757-0.659c-0.079-0.031-0.146-0.038-0.174-0.038c-0.314,0.013-0.409,0.285-0.372,0.443   C91.14,82.259,91.993,85.48,92.365,86.96z"/>
	<path fill="#DCDDDE" d="M74.174,108.402c-0.264,0.097-0.853,0.145-1.145,0.12c-0.079-0.007-0.149-0.021-0.206-0.038l-0.041-0.031   l-0.59-2.861c-0.107-0.526-0.542-0.487-0.492,0.096l0.301,2.95c-0.08,0.151-0.517,0.876-0.936,0.876   c-0.418,0-0.856-0.725-0.936-0.876l0.301-2.95c0.051-0.583-0.383-0.622-0.491-0.096l-0.59,2.861l-0.041,0.031   c-0.057,0.019-0.127,0.031-0.207,0.038c-0.292,0.023-0.88-0.023-1.145-0.12c0.371-1.479,1.225-4.701,1.465-5.742   c0.038-0.158-0.057-0.431-0.37-0.444c-0.029,0-0.096,0.009-0.175,0.039c-0.368,0.14-1.425,0.539-1.758,0.659l0.222-2.353   c0.049-0.585-0.42-0.628-0.521-0.103c-0.463,2.08-0.723,4.904-2.229,5.829c0.116-0.996,1.1-8.386,1.24-9.375   c0.038-0.235,0.042-0.407,0.304-0.496c0.188-0.062,0.355,0.014,0.527,0.186c0.009,0.006,2.478,2.264,2.478,2.264   c0.095,0.121,0.256,0.179,0.406,0.134c0.143-0.044,0.257-0.171,0.276-0.324l0.342-2.803c0.012-0.107-0.019-0.216-0.095-0.292   c-0.07-0.083-0.174-0.134-0.279-0.134c0,0-0.197,0-0.387,0l0.102-0.868c0.279-0.134,1.035-0.477,1.389-0.533   c0.003,0,0.026-0.007,0.026-0.007c0.012-0.006,0.145-0.012,0.145-0.012c0.216,0,0.414,0.062,0.559,0.178   c0.151,0.119,0.241,0.279,0.259,0.494l0.431,3.977c0.02,0.153,0.127,0.28,0.27,0.324c0.15,0.045,0.311-0.013,0.406-0.134   c0,0,2.467-2.258,2.478-2.264c0.171-0.172,0.339-0.248,0.526-0.186c0.263,0.089,0.267,0.261,0.305,0.496   c0.14,0.989,1.123,8.379,1.24,9.375c-1.506-0.925-1.767-3.749-2.229-5.829c-0.1-0.525-0.57-0.482-0.521,0.103l0.222,2.353   c-0.333-0.12-1.389-0.521-1.757-0.659c-0.079-0.03-0.146-0.039-0.174-0.039c-0.313,0.015-0.409,0.286-0.372,0.444   C72.95,103.701,73.804,106.923,74.174,108.402z"/>
	<path fill="#DCDDDE" d="M92.365,108.402c-0.266,0.097-0.853,0.145-1.146,0.12c-0.08-0.007-0.149-0.021-0.207-0.038l-0.041-0.031   l-0.59-2.861c-0.108-0.526-0.542-0.487-0.492,0.096l0.301,2.95c-0.079,0.151-0.517,0.876-0.935,0.876   c-0.419,0-0.856-0.725-0.936-0.876l0.301-2.95c0.051-0.583-0.384-0.622-0.491-0.096l-0.59,2.861l-0.041,0.031   c-0.056,0.019-0.127,0.031-0.206,0.038c-0.292,0.023-0.88-0.023-1.145-0.12c0.371-1.479,1.224-4.701,1.466-5.742   c0.038-0.158-0.058-0.431-0.372-0.444c-0.029,0-0.095,0.009-0.174,0.039c-0.368,0.14-1.425,0.539-1.758,0.659l0.222-2.353   c0.05-0.585-0.419-0.628-0.52-0.103c-0.463,2.08-0.723,4.904-2.23,5.829c0.117-0.996,1.1-8.386,1.24-9.375   c0.038-0.235,0.042-0.407,0.304-0.496c0.188-0.062,0.356,0.014,0.527,0.186c0.01,0.006,2.478,2.264,2.478,2.264   c0.095,0.121,0.256,0.179,0.405,0.134c0.143-0.044,0.257-0.171,0.277-0.324l0.342-2.803c0.013-0.107-0.019-0.216-0.095-0.292   c-0.07-0.083-0.175-0.134-0.279-0.134c0,0-0.197,0-0.388,0l0.102-0.868c0.279-0.134,1.034-0.477,1.389-0.533   c0.003,0,0.026-0.007,0.026-0.007c0.012-0.006,0.146-0.012,0.146-0.012c0.215,0,0.412,0.062,0.558,0.178   c0.152,0.119,0.241,0.279,0.26,0.494l0.432,3.977c0.019,0.153,0.126,0.28,0.27,0.324c0.149,0.045,0.311-0.013,0.406-0.134   c0,0,2.468-2.258,2.477-2.264c0.172-0.172,0.339-0.248,0.527-0.186c0.263,0.089,0.266,0.261,0.304,0.496   c0.14,0.989,1.124,8.379,1.241,9.375c-1.506-0.925-1.767-3.749-2.23-5.829c-0.1-0.525-0.57-0.482-0.52,0.103l0.222,2.353   c-0.333-0.12-1.389-0.521-1.757-0.659c-0.079-0.03-0.146-0.039-0.174-0.039c-0.314,0.015-0.409,0.286-0.372,0.444   C91.14,103.701,91.993,106.923,92.365,108.402z"/>
</g>
</svg>