<?xml version="1.0" encoding="utf-8"?>
<!-- Generator: Adobe Illustrator 16.0.0, SVG Export Plug-In . SVG Version: 6.00 Build 0)  -->
<!DOCTYPE svg PUBLIC "-//W3C//DTD SVG 1.1//EN" "http://www.w3.org/Graphics/SVG/1.1/DTD/svg11.dtd">
<svg version="1.1" id="Layer_2" xmlns="http://www.w3.org/2000/svg" xmlns:xlink="http://www.w3.org/1999/xlink" x="0px" y="0px"
	 width="320px" height="139px" viewBox="0 0 320 139" enable-background="new 0 0 320 139" xml:space="preserve">
<g>
	<g>
		<path d="M141.078,23.27h3.107v15.501c0,4.004-2.866,8.049-9.284,8.049c-5.819,0-9.289-2.948-9.289-7.902V23.27h3.503v15.212
			c0,3.99,1.93,5.841,6.071,5.841c4.068,0,5.892-2.932,5.892-5.841V23.27z"/>
		<path d="M154.15,23.27h-3.011v23.114h3.005V28.71l13.838,17.673h3.167V23.27h-3.016V41.16L154.15,23.27z"/>
		<path d="M182.059,23.27v23.114h-3.474V23.27H182.059z"/>
		<path d="M186.959,23.27h3.538l5.708,17.338l6.289-17.338h2.966l-8.814,23.114h-1.778L186.959,23.27z"/>
		<path d="M223.927,23.27v2.437h-10.271v7.534h8.218v2.428h-8.218v8.269h10.271v2.447h-13.768V23.27H223.927z"/>
		<path d="M239.263,35.527l0.388-0.112c1.773-0.525,4.35-3.251,4.35-6.341c0-2.797-2.576-5.805-8.227-5.805h-6.327v23.114h3.504
			V25.435h2.509c3.742,0,5.069,2.152,5.069,3.998c0,1.945-1.586,4.679-5.107,4.679c0,0-0.593,0-0.872,0l7.766,12.272h4.137
			L239.263,35.527z"/>
		<path d="M260.653,40.941c0-2.172-2.057-3.409-4.434-4.846l-0.802-0.485c-2.644-1.607-5.461-3.604-5.461-6.889
			c0-3.369,2.982-5.919,6.938-5.919c3.39,0,5.273,0.79,6.14,1.17c-0.072,0.166-0.866,2.083-0.952,2.293
			c-0.762-0.351-2.381-1.032-4.584-1.032c-2.505,0-4.068,1.092-4.068,2.846c0,2.136,1.762,3.223,4,4.597l1.018,0.622
			c-0.006,0,0.142,0.094,0.142,0.094c2.306,1.456,5.781,3.659,5.781,6.836c0,3.94-4.208,6.591-8.151,6.591
			c-3.787,0-5.952-1.056-6.852-1.509c0.081-0.184,0.895-2.011,0.982-2.213c0.006,0.005,0.024,0.013,0.024,0.013
			c1.013,0.451,2.908,1.283,5.918,1.283C258.688,44.395,260.653,42.841,260.653,40.941z"/>
		<path d="M273.711,23.27v23.114h-3.465V23.27H273.711z"/>
		<path d="M296.902,23.27v2.437h-7.555v20.678h-3.505V25.706h-7.595V23.27H296.902z"/>
		<g>
			<path d="M304.944,25.706v7.534h8.213v2.428h-8.213v8.269c0,0,10.017,0,10.267,0v2.447h-13.777V23.27h13.777v2.437H304.944z"/>
			<path d="M311.772,15.576l1.358,2.037l-5.939,3.246l-0.813-1.26L311.772,15.576z"/>
		</g>
	</g>
	<g>
		<path d="M228.37,55.553v0.233c4.947,1.909,2.221,8.167,0.078,13.58L217.61,96.771l-15.829-41.219h-10.579v0.233
			c3.093,2.359,4.72,7.022,6.221,10.911l15.089,39.052h7.622l20.126-50.196H228.37z"/>
		<path d="M315.211,98.255c-2.922,1.341-6.137,1.973-9.717,1.973h-10.843V55.553h-11.724v0.233c3.675,1.255,3.59,6.992,3.59,10.526
			l-0.004,39.175c-3.905-1.942-5.929-6.469-7.759-10.801l-16.578-39.134H249.58v0.233c3.779,1.122,2.342,4.349,1.192,7.091
			l-13.314,31.81c-1.816,4.332-3.699,8.828-7.736,10.832v0.23h9.965l5.114-13.271h24.455l5.274,13.271h40.681V98.255z
			 M246.961,86.858l9.95-24.816l10.106,24.816H246.961z"/>
		<path d="M195.636,94.687l-16.585-39.134h-12.589v0.233c3.776,1.122,2.342,4.349,1.195,7.091l-0.002,0.004l-0.001-0.004
			l-13.315,31.81c-0.661,1.576-1.332,3.172-2.111,4.664c-1.922,0.569-3.963,0.877-6.142,0.877h-10.844V55.559h-11.722v0.234
			c3.676,1.253,3.593,6.989,3.593,10.523l-0.006,39.433h29.46l5.114-13.271h24.453h0.005l5.271,13.271h12.043v-0.23
			C199.286,103.41,197.473,99.037,195.636,94.687z M163.843,86.858l9.947-24.816l10.11,24.816H163.843z"/>
	</g>
	<path d="M4.7,6.853v99.969c0,8.604,6.627,15.34,15.085,15.34h23.758c3.176,0,7.311,2.144,9.379,8.161l1.145,3.328
		c0.282,0.686,0.681,1.125,1.139,1.125c0.449,0,0.855-0.439,1.137-1.125l1.146-3.328c2.07-6.018,6.198-8.161,9.375-8.161h23.758
		c8.461,0,15.084-6.735,15.084-15.34V6.853H4.7z"/>
	<g>
		<rect x="7.112" y="9.267" fill="#E30613" width="39.132" height="46.286"/>
		<path fill="#E30613" d="M7.112,73.463v33.359c0,7.521,5.806,12.927,12.673,12.927c0,0,23.714,0,23.758,0
			c0.857,0,1.771,0.12,2.701,0.383V73.463H7.112z"/>
		<rect x="64.156" y="9.267" fill="#E30613" width="39.135" height="46.286"/>
		<path fill="#E30613" d="M64.156,120.136c0.934-0.266,1.849-0.387,2.708-0.387c0.044,0,23.758,0,23.758,0
			c6.866,0,12.668-5.405,12.668-12.927V73.463H64.156V120.136z"/>
	</g>
	<path fill="#FFCC00" d="M64.156,55.553V9.267H46.244v46.286H7.112v17.91h39.132v46.669c3.399,0.956,7.028,3.784,8.962,9.411
		c1.932-5.622,5.558-8.45,8.949-9.407V73.463h39.135v-17.91H64.156z"/>
	<g>
		<path d="M21.549,28.378c0.082,0.294-0.109,0.531-0.326,0.639c-0.407,0.206-1.591,0.292-2.044,0.143c0,0-0.594,1.063-1.47,1.063
			c-0.875,0-1.469-1.063-1.469-1.063c-0.453,0.149-1.639,0.063-2.045-0.143c-0.215-0.107-0.406-0.344-0.326-0.639
			c0.251-0.949,1.045-4.032,1.314-5.115l-1.601,0.594c-0.278,1.219-1.132,3.184-2.589,3.289c-0.209,0.02-0.513-0.069-0.494-0.268
			c0.188-1.65,1.191-9.113,1.292-9.824c0.097-0.708,0.321-1.04,0.822-1.201c0.481-0.156,0.844-0.044,1.363,0.425
			c0.401,0.357,1.851,1.701,1.851,1.701s0.163-1.226,0.207-1.619c-0.169,0-0.382,0-0.382,0c-0.21,0-0.378-0.169-0.378-0.375
			l0.172-1.484c0-0.148,0.094-0.287,0.223-0.342c0,0,0.628-0.301,1.146-0.5c0.52-0.201,0.894-0.201,0.894-0.201
			c0.419,0.012,0.744,0.125,1.014,0.337c0.309,0.239,0.494,0.581,0.538,0.996l0.332,3.188c0,0,1.45-1.344,1.85-1.701
			c0.519-0.469,0.882-0.581,1.363-0.425c0.501,0.162,0.727,0.494,0.824,1.201c0.1,0.711,1.104,8.174,1.292,9.824
			c0.018,0.199-0.286,0.288-0.495,0.268c-1.457-0.105-2.311-2.069-2.589-3.289l-1.601-0.594
			C20.505,24.346,21.299,27.429,21.549,28.378z"/>
		<path d="M39.479,28.378c0.081,0.294-0.11,0.531-0.326,0.639c-0.406,0.206-1.591,0.292-2.044,0.143c0,0-0.594,1.063-1.469,1.063
			c-0.876,0-1.47-1.063-1.47-1.063c-0.454,0.149-1.639,0.063-2.045-0.143c-0.215-0.107-0.406-0.344-0.325-0.639
			c0.25-0.949,1.045-4.032,1.314-5.115l-1.602,0.594c-0.278,1.219-1.132,3.184-2.588,3.289c-0.211,0.02-0.513-0.069-0.495-0.268
			c0.188-1.65,1.191-9.113,1.292-9.824c0.096-0.708,0.321-1.04,0.822-1.201c0.48-0.156,0.843-0.044,1.362,0.425
			c0.401,0.357,1.852,1.701,1.852,1.701s0.162-1.226,0.206-1.619c-0.169,0-0.381,0-0.381,0c-0.21,0-0.378-0.169-0.378-0.375
			l0.171-1.484c0-0.148,0.095-0.287,0.223-0.342c0,0,0.628-0.301,1.146-0.5c0.519-0.201,0.895-0.201,0.895-0.201
			c0.419,0.012,0.744,0.125,1.013,0.337c0.31,0.239,0.494,0.581,0.538,0.996l0.332,3.188c0,0,1.451-1.344,1.85-1.701
			c0.519-0.469,0.883-0.581,1.364-0.425c0.5,0.162,0.726,0.494,0.823,1.201c0.101,0.711,1.104,8.174,1.292,9.824
			c0.019,0.199-0.285,0.288-0.494,0.268c-1.457-0.105-2.312-2.069-2.589-3.289l-1.601-0.594
			C38.436,24.346,39.229,27.429,39.479,28.378z"/>
		<path d="M21.549,49.515c0.082,0.294-0.109,0.53-0.326,0.638c-0.407,0.208-1.591,0.293-2.044,0.145c0,0-0.594,1.063-1.47,1.063
			c-0.875,0-1.469-1.063-1.469-1.063c-0.453,0.148-1.639,0.063-2.045-0.145c-0.215-0.108-0.406-0.344-0.326-0.638
			c0.251-0.949,1.045-4.034,1.314-5.115l-1.601,0.594c-0.278,1.221-1.132,3.182-2.589,3.291c-0.209,0.018-0.513-0.071-0.494-0.27
			c0.188-1.65,1.191-9.111,1.292-9.824c0.097-0.706,0.321-1.038,0.822-1.201c0.481-0.156,0.844-0.044,1.363,0.426
			c0.401,0.355,1.851,1.701,1.851,1.701s0.163-1.228,0.207-1.621c-0.169,0-0.382,0-0.382,0c-0.21,0-0.378-0.169-0.378-0.375
			l0.172-1.482c0-0.15,0.094-0.287,0.223-0.346c0,0,0.628-0.299,1.146-0.5c0.52-0.197,0.894-0.197,0.894-0.197
			c0.419,0.01,0.744,0.125,1.014,0.335c0.309,0.237,0.494,0.583,0.538,0.995l0.332,3.19c0,0,1.45-1.346,1.85-1.701
			c0.519-0.471,0.882-0.583,1.363-0.426c0.501,0.163,0.727,0.495,0.824,1.201c0.1,0.712,1.104,8.173,1.292,9.824
			c0.018,0.199-0.286,0.288-0.495,0.27c-1.457-0.109-2.311-2.07-2.589-3.291l-1.601-0.594C20.505,45.48,21.299,48.565,21.549,49.515
			z"/>
		<path d="M39.479,49.515c0.081,0.294-0.11,0.53-0.326,0.638c-0.406,0.208-1.591,0.293-2.044,0.145c0,0-0.594,1.063-1.469,1.063
			c-0.876,0-1.47-1.063-1.47-1.063c-0.454,0.148-1.639,0.063-2.045-0.145c-0.215-0.108-0.406-0.344-0.325-0.638
			c0.25-0.949,1.045-4.034,1.314-5.115l-1.602,0.594c-0.278,1.221-1.132,3.182-2.588,3.291c-0.211,0.018-0.513-0.071-0.495-0.27
			c0.188-1.65,1.191-9.111,1.292-9.824c0.096-0.706,0.321-1.038,0.822-1.201c0.48-0.156,0.843-0.044,1.362,0.426
			c0.401,0.355,1.852,1.701,1.852,1.701s0.162-1.228,0.206-1.621c-0.169,0-0.381,0-0.381,0c-0.21,0-0.378-0.169-0.378-0.375
			l0.171-1.482c0-0.15,0.095-0.287,0.223-0.346c0,0,0.628-0.299,1.146-0.5c0.519-0.197,0.895-0.197,0.895-0.197
			c0.419,0.01,0.744,0.125,1.013,0.335c0.31,0.237,0.494,0.583,0.538,0.995l0.332,3.19c0,0,1.451-1.346,1.85-1.701
			c0.519-0.471,0.883-0.583,1.364-0.426c0.5,0.163,0.726,0.495,0.823,1.201c0.101,0.712,1.104,8.173,1.292,9.824
			c0.019,0.199-0.285,0.288-0.494,0.27c-1.457-0.109-2.312-2.07-2.589-3.291l-1.601-0.594C38.436,45.48,39.229,48.565,39.479,49.515
			z"/>
		<path d="M78.593,28.378c0.081,0.294-0.109,0.531-0.326,0.639c-0.406,0.206-1.591,0.292-2.044,0.143c0,0-0.595,1.063-1.47,1.063
			c-0.875,0-1.47-1.063-1.47-1.063c-0.453,0.149-1.638,0.063-2.044-0.143c-0.216-0.107-0.407-0.344-0.326-0.639
			c0.25-0.949,1.044-4.032,1.313-5.115l-1.601,0.594c-0.278,1.219-1.133,3.184-2.589,3.289c-0.21,0.02-0.513-0.069-0.495-0.268
			c0.188-1.65,1.191-9.113,1.291-9.824c0.097-0.708,0.322-1.04,0.823-1.201c0.481-0.156,0.844-0.044,1.363,0.425
			c0.4,0.357,1.851,1.701,1.851,1.701s0.162-1.226,0.206-1.619c-0.167,0-0.381,0-0.381,0c-0.209,0-0.378-0.169-0.378-0.375
			l0.172-1.484c0-0.148,0.094-0.287,0.222-0.342c0,0,0.629-0.301,1.148-0.5c0.519-0.201,0.894-0.201,0.894-0.201
			c0.419,0.012,0.745,0.125,1.013,0.337c0.31,0.239,0.494,0.581,0.539,0.996l0.332,3.188c0,0,1.45-1.344,1.85-1.701
			c0.519-0.469,0.882-0.581,1.364-0.425c0.5,0.162,0.725,0.494,0.822,1.201c0.1,0.711,1.104,8.174,1.292,9.824
			c0.018,0.199-0.285,0.288-0.494,0.268c-1.457-0.105-2.312-2.069-2.59-3.289l-1.6-0.594C77.548,24.346,78.343,27.429,78.593,28.378
			z"/>
		<path d="M96.524,28.378c0.081,0.294-0.11,0.531-0.326,0.639c-0.406,0.206-1.591,0.292-2.044,0.143c0,0-0.594,1.063-1.469,1.063
			c-0.876,0-1.47-1.063-1.47-1.063c-0.454,0.149-1.639,0.063-2.046-0.143c-0.214-0.107-0.405-0.344-0.324-0.639
			c0.25-0.949,1.043-4.032,1.313-5.115l-1.601,0.594c-0.279,1.219-1.132,3.184-2.589,3.289c-0.21,0.02-0.513-0.069-0.495-0.268
			c0.188-1.65,1.191-9.113,1.292-9.824c0.097-0.708,0.322-1.04,0.823-1.201c0.481-0.156,0.843-0.044,1.362,0.425
			c0.401,0.357,1.853,1.701,1.853,1.701s0.162-1.226,0.205-1.619c-0.169,0-0.38,0-0.38,0c-0.21,0-0.379-0.169-0.379-0.375
			L90.42,14.5c0-0.148,0.094-0.287,0.222-0.342c0,0,0.629-0.301,1.148-0.5c0.519-0.201,0.894-0.201,0.894-0.201
			c0.418,0.012,0.744,0.125,1.012,0.337c0.31,0.239,0.495,0.581,0.539,0.996l0.331,3.188c0,0,1.452-1.344,1.851-1.701
			c0.519-0.469,0.882-0.581,1.364-0.425c0.499,0.162,0.726,0.494,0.822,1.201c0.101,0.711,1.104,8.174,1.292,9.824
			c0.019,0.199-0.286,0.288-0.495,0.268c-1.458-0.105-2.311-2.069-2.59-3.289l-1.601-0.594
			C95.479,24.346,96.273,27.429,96.524,28.378z"/>
		<path d="M78.593,49.515c0.081,0.294-0.109,0.53-0.326,0.638c-0.406,0.208-1.591,0.293-2.044,0.145c0,0-0.595,1.063-1.47,1.063
			c-0.875,0-1.47-1.063-1.47-1.063c-0.453,0.148-1.638,0.063-2.044-0.145c-0.216-0.108-0.407-0.344-0.326-0.638
			c0.25-0.949,1.044-4.034,1.313-5.115l-1.601,0.594c-0.278,1.221-1.133,3.182-2.589,3.291c-0.21,0.018-0.513-0.071-0.495-0.27
			c0.188-1.65,1.191-9.111,1.291-9.824c0.097-0.706,0.322-1.038,0.823-1.201c0.481-0.156,0.844-0.044,1.363,0.426
			c0.4,0.355,1.851,1.701,1.851,1.701s0.162-1.228,0.206-1.621c-0.167,0-0.381,0-0.381,0c-0.209,0-0.378-0.169-0.378-0.375
			l0.172-1.482c0-0.15,0.094-0.287,0.222-0.346c0,0,0.629-0.299,1.148-0.5c0.519-0.197,0.894-0.197,0.894-0.197
			c0.419,0.01,0.745,0.125,1.013,0.335c0.31,0.237,0.494,0.583,0.539,0.995l0.332,3.19c0,0,1.45-1.346,1.85-1.701
			c0.519-0.471,0.882-0.583,1.364-0.426c0.5,0.163,0.725,0.495,0.822,1.201c0.1,0.712,1.104,8.173,1.292,9.824
			c0.018,0.199-0.285,0.288-0.494,0.27c-1.457-0.109-2.312-2.07-2.59-3.291l-1.6-0.594C77.548,45.48,78.343,48.565,78.593,49.515z"
			/>
		<path d="M96.524,49.515c0.081,0.294-0.11,0.53-0.326,0.638c-0.406,0.208-1.591,0.293-2.044,0.145c0,0-0.594,1.063-1.469,1.063
			c-0.876,0-1.47-1.063-1.47-1.063c-0.454,0.148-1.639,0.063-2.046-0.145c-0.214-0.108-0.405-0.344-0.324-0.638
			c0.25-0.949,1.043-4.034,1.313-5.115l-1.601,0.594c-0.279,1.221-1.132,3.182-2.589,3.291c-0.21,0.018-0.513-0.071-0.495-0.27
			c0.188-1.65,1.191-9.111,1.292-9.824c0.097-0.706,0.322-1.038,0.823-1.201c0.481-0.156,0.843-0.044,1.362,0.426
			c0.401,0.355,1.853,1.701,1.853,1.701s0.162-1.228,0.205-1.621c-0.169,0-0.38,0-0.38,0c-0.21,0-0.379-0.169-0.379-0.375
			l0.172-1.482c0-0.15,0.094-0.287,0.222-0.346c0,0,0.629-0.299,1.148-0.5c0.519-0.197,0.894-0.197,0.894-0.197
			c0.418,0.01,0.744,0.125,1.012,0.335c0.31,0.237,0.495,0.583,0.539,0.995l0.331,3.19c0,0,1.452-1.346,1.851-1.701
			c0.519-0.471,0.882-0.583,1.364-0.426c0.499,0.163,0.726,0.495,0.822,1.201c0.101,0.712,1.104,8.173,1.292,9.824
			c0.019,0.199-0.286,0.288-0.495,0.27c-1.458-0.109-2.311-2.07-2.59-3.291l-1.601-0.594C95.479,45.48,96.273,48.565,96.524,49.515z
			"/>
		<path d="M21.549,92.574c0.082,0.293-0.109,0.529-0.326,0.639c-0.407,0.207-1.591,0.293-2.044,0.145c0,0-0.594,1.063-1.47,1.063
			c-0.875,0-1.469-1.063-1.469-1.063c-0.453,0.148-1.639,0.063-2.045-0.145c-0.215-0.109-0.406-0.346-0.326-0.639
			c0.251-0.951,1.045-4.034,1.314-5.115l-1.601,0.594c-0.278,1.22-1.132,3.182-2.589,3.291c-0.209,0.017-0.513-0.071-0.494-0.271
			c0.188-1.651,1.191-9.111,1.292-9.823c0.097-0.708,0.321-1.038,0.822-1.201c0.481-0.156,0.844-0.045,1.363,0.426
			c0.401,0.355,1.851,1.701,1.851,1.701s0.163-1.227,0.207-1.622c-0.169,0-0.382,0-0.382,0c-0.21,0-0.378-0.168-0.378-0.375
			l0.172-1.48c0-0.151,0.094-0.288,0.223-0.346c0,0,0.628-0.3,1.146-0.5c0.52-0.199,0.894-0.199,0.894-0.199
			c0.419,0.012,0.744,0.125,1.014,0.337c0.309,0.237,0.494,0.583,0.538,0.996l0.332,3.189c0,0,1.45-1.346,1.85-1.701
			c0.519-0.471,0.882-0.582,1.363-0.426c0.501,0.163,0.727,0.493,0.824,1.201c0.1,0.712,1.104,8.172,1.292,9.823
			c0.018,0.199-0.286,0.287-0.495,0.271c-1.457-0.109-2.311-2.071-2.589-3.291l-1.601-0.594
			C20.505,88.54,21.299,91.623,21.549,92.574z"/>
		<path d="M39.479,92.574c0.081,0.293-0.11,0.529-0.326,0.639c-0.406,0.207-1.591,0.293-2.044,0.145c0,0-0.594,1.063-1.469,1.063
			c-0.876,0-1.47-1.063-1.47-1.063c-0.454,0.148-1.639,0.063-2.045-0.145c-0.215-0.109-0.406-0.346-0.325-0.639
			c0.25-0.951,1.045-4.034,1.314-5.115l-1.602,0.594c-0.278,1.22-1.132,3.182-2.588,3.291c-0.211,0.017-0.513-0.071-0.495-0.271
			c0.188-1.651,1.191-9.111,1.292-9.823c0.096-0.708,0.321-1.038,0.822-1.201c0.48-0.156,0.843-0.045,1.362,0.426
			c0.401,0.355,1.852,1.701,1.852,1.701s0.162-1.227,0.206-1.622c-0.169,0-0.381,0-0.381,0c-0.21,0-0.378-0.168-0.378-0.375
			l0.171-1.48c0-0.151,0.095-0.288,0.223-0.346c0,0,0.628-0.3,1.146-0.5c0.519-0.199,0.895-0.199,0.895-0.199
			c0.419,0.012,0.744,0.125,1.013,0.337c0.31,0.237,0.494,0.583,0.538,0.996l0.332,3.189c0,0,1.451-1.346,1.85-1.701
			c0.519-0.471,0.883-0.582,1.364-0.426c0.5,0.163,0.726,0.493,0.823,1.201c0.101,0.712,1.104,8.172,1.292,9.823
			c0.019,0.199-0.285,0.287-0.494,0.271c-1.457-0.109-2.312-2.071-2.589-3.291l-1.601-0.594
			C38.436,88.54,39.229,91.623,39.479,92.574z"/>
		<path d="M21.549,113.712c0.082,0.293-0.109,0.53-0.326,0.637c-0.407,0.206-1.591,0.293-2.044,0.144c0,0-0.594,1.064-1.47,1.064
			c-0.875,0-1.469-1.064-1.469-1.064c-0.453,0.149-1.639,0.063-2.045-0.144c-0.215-0.106-0.406-0.344-0.326-0.637
			c0.251-0.95,1.045-4.034,1.314-5.116l-1.601,0.594c-0.278,1.219-1.132,3.184-2.589,3.289c-0.209,0.02-0.513-0.069-0.494-0.269
			c0.188-1.65,1.191-9.112,1.292-9.823c0.097-0.708,0.321-1.038,0.822-1.201c0.481-0.156,0.844-0.043,1.363,0.424
			c0.401,0.359,1.851,1.701,1.851,1.701s0.163-1.224,0.207-1.618c-0.169,0-0.382,0-0.382,0c-0.21,0-0.378-0.17-0.378-0.375
			l0.172-1.482c0-0.15,0.094-0.288,0.223-0.344c0,0,0.628-0.3,1.146-0.501c0.52-0.2,0.894-0.2,0.894-0.2
			c0.419,0.013,0.744,0.125,1.014,0.339c0.309,0.236,0.494,0.581,0.538,0.994l0.332,3.188c0,0,1.45-1.342,1.85-1.701
			c0.519-0.467,0.882-0.58,1.363-0.424c0.501,0.163,0.727,0.493,0.824,1.201c0.1,0.711,1.104,8.173,1.292,9.823
			c0.018,0.199-0.286,0.288-0.495,0.269c-1.457-0.105-2.311-2.07-2.589-3.289l-1.601-0.594
			C20.505,109.678,21.299,112.762,21.549,113.712z"/>
		<path d="M39.479,113.712c0.081,0.293-0.11,0.53-0.326,0.637c-0.406,0.206-1.591,0.293-2.044,0.144c0,0-0.594,1.064-1.469,1.064
			c-0.876,0-1.47-1.064-1.47-1.064c-0.454,0.149-1.639,0.063-2.045-0.144c-0.215-0.106-0.406-0.344-0.325-0.637
			c0.25-0.95,1.045-4.034,1.314-5.116l-1.602,0.594c-0.278,1.219-1.132,3.184-2.588,3.289c-0.211,0.02-0.513-0.069-0.495-0.269
			c0.188-1.65,1.191-9.112,1.292-9.823c0.096-0.708,0.321-1.038,0.822-1.201c0.48-0.156,0.843-0.043,1.362,0.424
			c0.401,0.359,1.852,1.701,1.852,1.701s0.162-1.224,0.206-1.618c-0.169,0-0.381,0-0.381,0c-0.21,0-0.378-0.17-0.378-0.375
			l0.171-1.482c0-0.15,0.095-0.288,0.223-0.344c0,0,0.628-0.3,1.146-0.501c0.519-0.2,0.895-0.2,0.895-0.2
			c0.419,0.013,0.744,0.125,1.013,0.339c0.31,0.236,0.494,0.581,0.538,0.994l0.332,3.188c0,0,1.451-1.342,1.85-1.701
			c0.519-0.467,0.883-0.58,1.364-0.424c0.5,0.163,0.726,0.493,0.823,1.201c0.101,0.711,1.104,8.173,1.292,9.823
			c0.019,0.199-0.285,0.288-0.494,0.269c-1.457-0.105-2.312-2.07-2.589-3.289l-1.601-0.594
			C38.436,109.678,39.229,112.762,39.479,113.712z"/>
		<path d="M78.593,92.574c0.081,0.293-0.109,0.529-0.326,0.639c-0.406,0.207-1.591,0.293-2.044,0.145c0,0-0.595,1.063-1.47,1.063
			c-0.875,0-1.47-1.063-1.47-1.063c-0.453,0.148-1.638,0.063-2.044-0.145c-0.216-0.109-0.407-0.346-0.326-0.639
			c0.25-0.951,1.044-4.034,1.313-5.115l-1.601,0.594c-0.278,1.22-1.133,3.182-2.589,3.291c-0.21,0.017-0.513-0.071-0.495-0.271
			c0.188-1.651,1.191-9.111,1.291-9.823c0.097-0.708,0.322-1.038,0.823-1.201c0.481-0.156,0.844-0.045,1.363,0.426
			c0.4,0.355,1.851,1.701,1.851,1.701s0.162-1.227,0.206-1.622c-0.167,0-0.381,0-0.381,0c-0.209,0-0.378-0.168-0.378-0.375
			l0.172-1.48c0-0.151,0.094-0.288,0.222-0.346c0,0,0.629-0.3,1.148-0.5c0.519-0.199,0.894-0.199,0.894-0.199
			c0.419,0.012,0.745,0.125,1.013,0.337c0.31,0.237,0.494,0.583,0.539,0.996l0.332,3.189c0,0,1.45-1.346,1.85-1.701
			c0.519-0.471,0.882-0.582,1.364-0.426c0.5,0.163,0.725,0.493,0.822,1.201c0.1,0.712,1.104,8.172,1.292,9.823
			c0.018,0.199-0.285,0.287-0.494,0.271c-1.457-0.109-2.312-2.071-2.59-3.291l-1.6-0.594C77.548,88.54,78.343,91.623,78.593,92.574z
			"/>
		<path d="M96.524,92.574c0.081,0.293-0.11,0.529-0.326,0.639c-0.406,0.207-1.591,0.293-2.044,0.145c0,0-0.594,1.063-1.469,1.063
			c-0.876,0-1.47-1.063-1.47-1.063c-0.454,0.148-1.639,0.063-2.046-0.145c-0.214-0.109-0.405-0.346-0.324-0.639
			c0.25-0.951,1.043-4.034,1.313-5.115l-1.601,0.594c-0.279,1.22-1.132,3.182-2.589,3.291c-0.21,0.017-0.513-0.071-0.495-0.271
			c0.188-1.651,1.191-9.111,1.292-9.823c0.097-0.708,0.322-1.038,0.823-1.201c0.481-0.156,0.843-0.045,1.362,0.426
			c0.401,0.355,1.853,1.701,1.853,1.701s0.162-1.227,0.205-1.622c-0.169,0-0.38,0-0.38,0c-0.21,0-0.379-0.168-0.379-0.375
			l0.172-1.48c0-0.151,0.094-0.288,0.222-0.346c0,0,0.629-0.3,1.148-0.5c0.519-0.199,0.894-0.199,0.894-0.199
			c0.418,0.012,0.744,0.125,1.012,0.337c0.31,0.237,0.495,0.583,0.539,0.996l0.331,3.189c0,0,1.452-1.346,1.851-1.701
			c0.519-0.471,0.882-0.582,1.364-0.426c0.499,0.163,0.726,0.493,0.822,1.201c0.101,0.712,1.104,8.172,1.292,9.823
			c0.019,0.199-0.286,0.287-0.495,0.271c-1.458-0.109-2.311-2.071-2.59-3.291l-1.601-0.594
			C95.479,88.54,96.273,91.623,96.524,92.574z"/>
		<path d="M78.593,113.712c0.081,0.293-0.109,0.53-0.326,0.637c-0.406,0.206-1.591,0.293-2.044,0.144c0,0-0.595,1.064-1.47,1.064
			c-0.875,0-1.47-1.064-1.47-1.064c-0.453,0.149-1.638,0.063-2.044-0.144c-0.216-0.106-0.407-0.344-0.326-0.637
			c0.25-0.95,1.044-4.034,1.313-5.116l-1.601,0.594c-0.278,1.219-1.133,3.184-2.589,3.289c-0.21,0.02-0.513-0.069-0.495-0.269
			c0.188-1.65,1.191-9.112,1.291-9.823c0.097-0.708,0.322-1.038,0.823-1.201c0.481-0.156,0.844-0.043,1.363,0.424
			c0.4,0.359,1.851,1.701,1.851,1.701s0.162-1.224,0.206-1.618c-0.167,0-0.381,0-0.381,0c-0.209,0-0.378-0.17-0.378-0.375
			l0.172-1.482c0-0.15,0.094-0.288,0.222-0.344c0,0,0.629-0.3,1.148-0.501c0.519-0.2,0.894-0.2,0.894-0.2
			c0.419,0.013,0.745,0.125,1.013,0.339c0.31,0.236,0.494,0.581,0.539,0.994l0.332,3.188c0,0,1.45-1.342,1.85-1.701
			c0.519-0.467,0.882-0.58,1.364-0.424c0.5,0.163,0.725,0.493,0.822,1.201c0.1,0.711,1.104,8.173,1.292,9.823
			c0.018,0.199-0.285,0.288-0.494,0.269c-1.457-0.105-2.312-2.07-2.59-3.289l-1.6-0.594
			C77.548,109.678,78.343,112.762,78.593,113.712z"/>
		<path d="M96.524,113.712c0.081,0.293-0.11,0.53-0.326,0.637c-0.406,0.206-1.591,0.293-2.044,0.144c0,0-0.594,1.064-1.469,1.064
			c-0.876,0-1.47-1.064-1.47-1.064c-0.454,0.149-1.639,0.063-2.046-0.144c-0.214-0.106-0.405-0.344-0.324-0.637
			c0.25-0.95,1.043-4.034,1.313-5.116l-1.601,0.594c-0.279,1.219-1.132,3.184-2.589,3.289c-0.21,0.02-0.513-0.069-0.495-0.269
			c0.188-1.65,1.191-9.112,1.292-9.823c0.097-0.708,0.322-1.038,0.823-1.201c0.481-0.156,0.843-0.043,1.362,0.424
			c0.401,0.359,1.853,1.701,1.853,1.701s0.162-1.224,0.205-1.618c-0.169,0-0.38,0-0.38,0c-0.21,0-0.379-0.17-0.379-0.375
			l0.172-1.482c0-0.15,0.094-0.288,0.222-0.344c0,0,0.629-0.3,1.148-0.501c0.519-0.2,0.894-0.2,0.894-0.2
			c0.418,0.013,0.744,0.125,1.012,0.339c0.31,0.236,0.495,0.581,0.539,0.994l0.331,3.188c0,0,1.452-1.342,1.851-1.701
			c0.519-0.467,0.882-0.58,1.364-0.424c0.499,0.163,0.726,0.493,0.822,1.201c0.101,0.711,1.104,8.173,1.292,9.823
			c0.019,0.199-0.286,0.288-0.495,0.269c-1.458-0.105-2.311-2.07-2.59-3.289l-1.601-0.594
			C95.479,109.678,96.273,112.762,96.524,113.712z"/>
	</g>
	<g>
		<path d="M55.202,39.005c0.771,0,1.44-0.403,1.826-1.007c0.304,0.154,0.644,0.245,1.006,0.245c1.124,0,2.045-0.854,2.16-1.948
			c1.174-0.024,2.129-0.99,2.129-2.172c0-0.538-0.203-1.031-0.531-1.415c-0.523-0.63-2.421-2.912-2.451-2.948
			c0-0.133,0-1.226,0-1.226c0-0.581-0.467-1.056-1.047-1.056c0,0-1.019,0-1.081,0c-0.121-0.119-0.979-0.971-0.985-0.985
			c-0.271-0.276-0.633-0.426-1.024-0.426c-0.391,0-0.752,0.15-1.024,0.426c-0.006,0.015-0.864,0.867-0.984,0.985
			c-0.063,0-1.082,0-1.082,0c-0.58,0-1.048,0.476-1.048,1.056c0,0,0,1.093,0,1.226c-0.029,0.036-1.926,2.318-2.451,2.948
			c-0.328,0.383-0.53,0.877-0.53,1.415c0,1.182,0.955,2.147,2.129,2.172c0.114,1.094,1.036,1.948,2.159,1.948
			c0.362,0,0.702-0.091,1.007-0.245C53.763,38.602,54.432,39.005,55.202,39.005z"/>
		<path d="M55.202,71.104c0.771,0,1.44-0.404,1.826-1.009c0.304,0.156,0.644,0.247,1.006,0.247c1.124,0,2.045-0.855,2.16-1.949
			c1.174-0.023,2.129-0.991,2.129-2.171c0-0.537-0.203-1.031-0.531-1.416c-0.523-0.629-2.421-2.912-2.451-2.948
			c0-0.132,0-1.224,0-1.224c0-0.583-0.467-1.058-1.047-1.058c0,0-1.019,0-1.081,0c-0.121-0.117-0.979-0.969-0.985-0.984
			c-0.271-0.278-0.633-0.428-1.024-0.428c-0.391,0-0.752,0.15-1.024,0.428c-0.006,0.015-0.864,0.867-0.984,0.984
			c-0.063,0-1.082,0-1.082,0c-0.58,0-1.048,0.476-1.048,1.058c0,0,0,1.092,0,1.224c-0.029,0.036-1.926,2.319-2.451,2.948
			c-0.328,0.385-0.53,0.879-0.53,1.416c0,1.18,0.955,2.147,2.129,2.171c0.114,1.094,1.036,1.949,2.159,1.949
			c0.362,0,0.702-0.091,1.007-0.247C53.763,70.699,54.432,71.104,55.202,71.104z"/>
		<path d="M26.679,71.104c0.771,0,1.439-0.404,1.825-1.009c0.303,0.156,0.645,0.247,1.006,0.247c1.123,0,2.045-0.855,2.159-1.949
			c1.174-0.023,2.129-0.991,2.129-2.171c0-0.537-0.202-1.031-0.53-1.416c-0.525-0.629-2.421-2.912-2.452-2.948
			c0-0.132,0-1.224,0-1.224c0-0.583-0.467-1.058-1.048-1.058c0,0-1.019,0-1.082,0c-0.12-0.117-0.977-0.969-0.984-0.984
			c-0.271-0.278-0.632-0.428-1.023-0.428s-0.753,0.15-1.024,0.428c-0.006,0.015-0.864,0.867-0.984,0.984c-0.063,0-1.081,0-1.081,0
			c-0.582,0-1.048,0.476-1.048,1.058c0,0,0,1.092,0,1.224c-0.031,0.036-1.928,2.319-2.451,2.948
			c-0.329,0.385-0.531,0.879-0.531,1.416c0,1.18,0.954,2.147,2.128,2.171c0.115,1.094,1.036,1.949,2.16,1.949
			c0.361,0,0.702-0.091,1.005-0.247C25.239,70.699,25.908,71.104,26.679,71.104z"/>
		<path d="M83.722,71.104c0.771,0,1.439-0.404,1.824-1.009c0.305,0.156,0.645,0.247,1.007,0.247c1.123,0,2.045-0.855,2.158-1.949
			c1.174-0.023,2.129-0.991,2.129-2.171c0-0.537-0.201-1.031-0.53-1.416c-0.524-0.629-2.421-2.912-2.451-2.948
			c0-0.132,0-1.224,0-1.224c0-0.583-0.466-1.058-1.047-1.058c0,0-1.019,0-1.081,0c-0.122-0.117-0.979-0.969-0.985-0.984
			c-0.271-0.278-0.632-0.428-1.024-0.428c-0.391,0-0.753,0.15-1.024,0.428c-0.006,0.015-0.864,0.867-0.985,0.984
			c-0.063,0-1.081,0-1.081,0c-0.581,0-1.047,0.476-1.047,1.058c0,0,0,1.092,0,1.224c-0.03,0.036-1.928,2.319-2.452,2.948
			c-0.328,0.385-0.53,0.879-0.53,1.416c0,1.18,0.955,2.147,2.129,2.171c0.114,1.094,1.036,1.949,2.159,1.949
			c0.362,0,0.702-0.091,1.005-0.247C82.282,70.699,82.951,71.104,83.722,71.104z"/>
		<path d="M55.202,103.202c0.771,0,1.44-0.404,1.826-1.01c0.304,0.158,0.644,0.247,1.006,0.247c1.124,0,2.045-0.855,2.16-1.948
			c1.174-0.024,2.129-0.99,2.129-2.172c0-0.54-0.203-1.033-0.531-1.415c-0.523-0.628-2.421-2.912-2.451-2.948
			c0-0.132,0-1.226,0-1.226c0-0.581-0.467-1.058-1.047-1.058c0,0-1.019,0-1.081,0c-0.121-0.117-0.979-0.97-0.985-0.984
			c-0.271-0.276-0.633-0.428-1.024-0.428c-0.391,0-0.752,0.151-1.024,0.428c-0.006,0.015-0.864,0.867-0.984,0.984
			c-0.063,0-1.082,0-1.082,0c-0.58,0-1.048,0.477-1.048,1.058c0,0,0,1.094,0,1.226c-0.029,0.036-1.926,2.32-2.451,2.948
			c-0.328,0.382-0.53,0.875-0.53,1.415c0,1.182,0.955,2.147,2.129,2.172c0.114,1.093,1.036,1.948,2.159,1.948
			c0.362,0,0.702-0.089,1.007-0.247C53.763,102.798,54.432,103.202,55.202,103.202z"/>
	</g>
	<g>
		<path fill="#009FE3" d="M55.202,38.292c0.507-0.031,0.944-0.308,1.181-0.726l-0.417-3.939c-0.011-0.151,0.096-0.286,0.249-0.309
			c0.156-0.023,0.3,0.082,0.329,0.235l0.695,3.786c0.214,0.122,0.461,0.194,0.726,0.194c0.766,0,1.389-0.592,1.453-1.344
			l-1.613-3.746c-0.064-0.148,0.003-0.319,0.151-0.385c0.141-0.061,0.306,0,0.375,0.136l1.742,3.389c0.007,0,0,0,0,0
			c0.811,0,1.466-0.653,1.466-1.461c0-0.308-0.026-0.567-0.183-0.781l-2.768-3.317v-1.497c0-0.165-0.118-0.306-0.294-0.306
			c-0.006,0-1.393,0-1.393,0l-1.204-1.208c-0.126-0.126-0.31-0.203-0.495-0.203c-0.183,0-0.368,0.076-0.493,0.203l-1.205,1.208
			c0,0-1.386,0-1.392,0c-0.178,0-0.295,0.142-0.295,0.306v1.497l-2.768,3.317c-0.156,0.214-0.183,0.474-0.183,0.781
			c0,0.808,0.656,1.461,1.466,1.461c0,0-0.006,0,0,0l1.742-3.389c0.069-0.136,0.234-0.197,0.377-0.136
			c0.147,0.065,0.214,0.237,0.15,0.385l-1.612,3.746c0.063,0.752,0.686,1.344,1.451,1.344c0.266,0,0.512-0.072,0.726-0.194
			l0.695-3.786c0.028-0.153,0.172-0.258,0.328-0.235c0.152,0.023,0.259,0.158,0.25,0.309l-0.418,3.939
			C54.26,37.985,54.697,38.261,55.202,38.292z"/>
		<path fill="#009FE3" d="M55.202,70.39c0.507-0.029,0.944-0.306,1.181-0.726l-0.417-3.938c-0.011-0.15,0.096-0.286,0.249-0.31
			c0.156-0.021,0.3,0.082,0.329,0.235l0.695,3.787c0.214,0.12,0.461,0.192,0.726,0.192c0.766,0,1.389-0.591,1.453-1.344
			l-1.613-3.745c-0.064-0.147,0.003-0.319,0.151-0.385c0.141-0.061,0.306,0,0.375,0.137l1.742,3.388c0.007,0,0,0,0,0
			c0.811,0,1.466-0.651,1.466-1.46c0-0.308-0.026-0.568-0.183-0.782l-2.768-3.315v-1.498c0-0.166-0.118-0.308-0.294-0.308
			c-0.006,0-1.393,0-1.393,0l-1.204-1.206c-0.126-0.128-0.31-0.204-0.495-0.204c-0.183,0-0.368,0.076-0.493,0.204l-1.205,1.206
			c0,0-1.386,0-1.392,0c-0.178,0-0.295,0.142-0.295,0.308v1.498l-2.768,3.315c-0.156,0.214-0.183,0.475-0.183,0.782
			c0,0.809,0.656,1.46,1.466,1.46c0,0-0.006,0,0,0l1.742-3.388c0.069-0.137,0.234-0.197,0.377-0.137
			c0.147,0.065,0.214,0.237,0.15,0.385l-1.612,3.745c0.063,0.753,0.686,1.344,1.451,1.344c0.266,0,0.512-0.072,0.726-0.192
			l0.695-3.787c0.028-0.153,0.172-0.257,0.328-0.235c0.152,0.023,0.259,0.159,0.25,0.31l-0.418,3.938
			C54.26,70.084,54.697,70.36,55.202,70.39z"/>
		<path fill="#009FE3" d="M26.679,70.39c0.506-0.029,0.942-0.306,1.18-0.726l-0.417-3.938c-0.011-0.15,0.097-0.286,0.249-0.31
			c0.156-0.021,0.3,0.082,0.328,0.235l0.696,3.787c0.214,0.12,0.46,0.192,0.726,0.192c0.764,0,1.388-0.591,1.451-1.344l-1.611-3.745
			c-0.065-0.147,0.002-0.319,0.15-0.385c0.143-0.061,0.308,0,0.376,0.137l1.743,3.388c0.005,0,0,0,0,0
			c0.809,0,1.466-0.651,1.466-1.46c0-0.308-0.027-0.568-0.183-0.782l-2.769-3.315v-1.498c0-0.166-0.117-0.308-0.294-0.308
			c-0.006,0-1.391,0-1.391,0l-1.205-1.206c-0.126-0.128-0.31-0.204-0.494-0.204s-0.367,0.076-0.494,0.204l-1.205,1.206
			c0,0-1.385,0-1.391,0c-0.178,0-0.294,0.142-0.294,0.308v1.498l-2.768,3.315c-0.157,0.214-0.185,0.475-0.185,0.782
			c0,0.809,0.657,1.46,1.467,1.46c0,0-0.006,0,0,0l1.742-3.388c0.069-0.137,0.234-0.197,0.376-0.137
			c0.147,0.065,0.216,0.237,0.151,0.385l-1.612,3.745c0.063,0.753,0.687,1.344,1.453,1.344c0.265,0,0.512-0.072,0.725-0.192
			l0.695-3.787c0.029-0.153,0.173-0.257,0.329-0.235c0.152,0.023,0.26,0.159,0.248,0.31l-0.417,3.938
			C25.736,70.084,26.173,70.36,26.679,70.39z"/>
		<path fill="#009FE3" d="M83.722,70.39c0.506-0.029,0.943-0.306,1.18-0.726l-0.417-3.938c-0.011-0.15,0.097-0.286,0.25-0.31
			c0.155-0.021,0.299,0.082,0.328,0.235l0.694,3.787c0.214,0.12,0.461,0.192,0.726,0.192c0.766,0,1.389-0.591,1.452-1.344
			l-1.611-3.745c-0.065-0.147,0.002-0.319,0.148-0.385c0.143-0.061,0.308,0,0.378,0.137l1.741,3.388c0.007,0,0,0,0,0
			c0.81,0,1.467-0.651,1.467-1.46c0-0.308-0.028-0.568-0.184-0.782l-2.768-3.315v-1.498c0-0.166-0.117-0.308-0.294-0.308
			c-0.006,0-1.393,0-1.393,0l-1.204-1.206c-0.126-0.128-0.311-0.204-0.494-0.204c-0.184,0-0.367,0.076-0.494,0.204l-1.205,1.206
			c0,0-1.385,0-1.391,0c-0.178,0-0.295,0.142-0.295,0.308v1.498l-2.768,3.315c-0.156,0.214-0.183,0.475-0.183,0.782
			c0,0.809,0.656,1.46,1.467,1.46c0,0-0.007,0,0,0l1.741-3.388c0.069-0.137,0.234-0.197,0.376-0.137
			c0.147,0.065,0.216,0.237,0.151,0.385l-1.613,3.745c0.063,0.753,0.687,1.344,1.452,1.344c0.265,0,0.513-0.072,0.726-0.192
			l0.695-3.787c0.029-0.153,0.174-0.257,0.329-0.235c0.152,0.023,0.259,0.159,0.25,0.31l-0.418,3.938
			C82.779,70.084,83.216,70.36,83.722,70.39z"/>
		<path fill="#009FE3" d="M55.202,102.488c0.507-0.029,0.944-0.308,1.181-0.727l-0.417-3.939c-0.011-0.151,0.096-0.286,0.249-0.309
			c0.156-0.023,0.3,0.082,0.329,0.236l0.695,3.786c0.214,0.12,0.461,0.192,0.726,0.192c0.766,0,1.389-0.591,1.453-1.343
			l-1.613-3.748c-0.064-0.146,0.003-0.317,0.151-0.382c0.141-0.063,0.306-0.003,0.375,0.135l1.742,3.39c0.007,0,0,0,0,0
			c0.811,0,1.466-0.653,1.466-1.461c0-0.306-0.026-0.569-0.183-0.783l-2.768-3.315v-1.497c0-0.166-0.118-0.308-0.294-0.308
			c-0.006,0-1.393,0-1.393,0l-1.204-1.207c-0.126-0.125-0.31-0.201-0.495-0.201c-0.183,0-0.368,0.076-0.493,0.201l-1.205,1.207
			c0,0-1.386,0-1.392,0c-0.178,0-0.295,0.142-0.295,0.308v1.497l-2.768,3.315c-0.156,0.214-0.183,0.478-0.183,0.783
			c0,0.808,0.656,1.461,1.466,1.461c0,0-0.006,0,0,0l1.742-3.39c0.069-0.138,0.234-0.197,0.377-0.135
			c0.147,0.064,0.214,0.235,0.15,0.382l-1.612,3.748c0.063,0.752,0.686,1.343,1.451,1.343c0.266,0,0.512-0.072,0.726-0.192
			l0.695-3.786c0.028-0.154,0.172-0.26,0.328-0.236c0.152,0.022,0.259,0.157,0.25,0.309l-0.418,3.939
			C54.26,102.181,54.697,102.459,55.202,102.488z"/>
	</g>
	<g>
		<path fill="#E3E3E3" d="M20.774,28.378c-0.262,0.097-0.842,0.143-1.13,0.119c-0.077-0.007-0.146-0.018-0.203-0.036l-0.04-0.031
			l-0.582-2.82c-0.107-0.52-0.535-0.48-0.484,0.092l0.297,2.909c-0.078,0.15-0.51,0.862-0.923,0.862
			c-0.411,0-0.844-0.712-0.922-0.862l0.296-2.909c0.051-0.572-0.378-0.612-0.483-0.092l-0.583,2.82l-0.04,0.031
			c-0.056,0.018-0.125,0.029-0.203,0.036c-0.288,0.024-0.868-0.021-1.128-0.119c0.365-1.458,1.207-4.635,1.444-5.66
			c0.037-0.156-0.057-0.426-0.366-0.438c-0.028,0-0.095,0.006-0.173,0.038c-0.362,0.139-1.403,0.532-1.732,0.65l0.219-2.32
			c0.05-0.576-0.413-0.617-0.512-0.1c-0.457,2.052-0.712,4.835-2.198,5.747c0.116-0.982,1.085-8.267,1.223-9.241
			c0.037-0.232,0.041-0.401,0.3-0.489c0.184-0.063,0.35,0.012,0.519,0.183c0.01,0.005,2.442,2.231,2.442,2.231
			c0.094,0.119,0.253,0.176,0.4,0.132c0.141-0.043,0.254-0.168,0.273-0.319l0.337-2.764c0.012-0.105-0.019-0.212-0.094-0.287
			c-0.069-0.082-0.172-0.131-0.275-0.131c0,0-0.194,0-0.382,0l0.101-0.857c0.274-0.131,1.019-0.469,1.369-0.525
			c0.003,0,0.025-0.006,0.025-0.006c0.012-0.007,0.143-0.013,0.143-0.013c0.213,0,0.407,0.063,0.551,0.174
			c0.149,0.119,0.237,0.276,0.255,0.489l0.426,3.92c0.019,0.151,0.125,0.276,0.266,0.319c0.147,0.044,0.306-0.013,0.401-0.132
			c0,0,2.432-2.226,2.441-2.231c0.169-0.171,0.334-0.245,0.52-0.183c0.259,0.087,0.262,0.257,0.298,0.489
			c0.139,0.974,1.107,8.259,1.224,9.241c-1.485-0.911-1.741-3.695-2.198-5.747c-0.099-0.517-0.562-0.476-0.513,0.1l0.218,2.32
			c-0.328-0.118-1.369-0.511-1.731-0.65c-0.078-0.031-0.145-0.038-0.173-0.038c-0.309,0.011-0.403,0.281-0.366,0.438
			C19.566,23.743,20.408,26.92,20.774,28.378z"/>
		<path fill="#E3E3E3" d="M38.704,28.378c-0.261,0.097-0.84,0.143-1.129,0.119c-0.078-0.007-0.146-0.018-0.203-0.036l-0.04-0.031
			l-0.582-2.82c-0.106-0.52-0.535-0.48-0.484,0.092l0.297,2.909c-0.078,0.15-0.51,0.862-0.922,0.862
			c-0.413,0-0.845-0.712-0.923-0.862l0.297-2.909c0.05-0.572-0.378-0.612-0.484-0.092l-0.582,2.82l-0.041,0.031
			c-0.056,0.018-0.125,0.029-0.203,0.036c-0.288,0.024-0.868-0.021-1.129-0.119c0.366-1.458,1.208-4.635,1.445-5.66
			c0.037-0.156-0.057-0.426-0.366-0.438c-0.028,0-0.094,0.006-0.172,0.038c-0.362,0.139-1.404,0.532-1.732,0.65l0.219-2.32
			c0.05-0.576-0.414-0.617-0.512-0.1C31,22.6,30.743,25.384,29.258,26.295c0.115-0.982,1.084-8.267,1.223-9.241
			c0.036-0.232,0.04-0.401,0.299-0.489c0.185-0.063,0.351,0.012,0.52,0.183c0.009,0.005,2.441,2.231,2.441,2.231
			c0.095,0.119,0.253,0.176,0.401,0.132c0.141-0.043,0.253-0.168,0.272-0.319l0.336-2.764c0.013-0.105-0.018-0.212-0.093-0.287
			c-0.069-0.082-0.173-0.131-0.275-0.131c0,0-0.194,0-0.382,0l0.101-0.857c0.275-0.131,1.019-0.469,1.369-0.525
			c0.002,0,0.026-0.006,0.026-0.006c0.012-0.007,0.144-0.013,0.144-0.013c0.212,0,0.407,0.063,0.55,0.174
			c0.15,0.119,0.238,0.276,0.256,0.489l0.425,3.92c0.019,0.151,0.125,0.276,0.266,0.319c0.147,0.044,0.307-0.013,0.399-0.132
			c0,0,2.434-2.226,2.442-2.231c0.169-0.171,0.335-0.245,0.52-0.183c0.259,0.087,0.263,0.257,0.299,0.489
			c0.138,0.974,1.106,8.259,1.224,9.241c-1.486-0.911-1.742-3.695-2.198-5.747c-0.1-0.517-0.562-0.476-0.513,0.1l0.218,2.32
			c-0.328-0.118-1.37-0.511-1.732-0.65c-0.078-0.031-0.143-0.038-0.171-0.038c-0.311,0.011-0.405,0.281-0.367,0.438
			C37.497,23.743,38.338,26.92,38.704,28.378z"/>
		<path fill="#E3E3E3" d="M20.774,49.515c-0.262,0.095-0.842,0.143-1.13,0.118c-0.077-0.006-0.146-0.018-0.203-0.036l-0.04-0.031
			l-0.582-2.821c-0.107-0.519-0.535-0.479-0.484,0.095l0.297,2.907c-0.078,0.15-0.51,0.864-0.923,0.864
			c-0.411,0-0.844-0.714-0.922-0.864l0.296-2.907c0.051-0.574-0.378-0.614-0.483-0.095l-0.583,2.821l-0.04,0.031
			c-0.056,0.018-0.125,0.03-0.203,0.036c-0.288,0.025-0.868-0.023-1.128-0.118c0.365-1.458,1.207-4.633,1.444-5.66
			c0.037-0.156-0.057-0.424-0.366-0.438c-0.028,0-0.095,0.006-0.173,0.04c-0.362,0.136-1.403,0.529-1.732,0.648l0.219-2.32
			c0.05-0.576-0.413-0.619-0.512-0.099c-0.457,2.05-0.712,4.833-2.198,5.745c0.116-0.98,1.085-8.266,1.223-9.241
			c0.037-0.232,0.041-0.4,0.3-0.489c0.184-0.063,0.35,0.013,0.519,0.181c0.01,0.006,2.442,2.234,2.442,2.234
			c0.094,0.119,0.253,0.175,0.4,0.132c0.141-0.046,0.254-0.171,0.273-0.319l0.337-2.764c0.012-0.109-0.019-0.214-0.094-0.288
			c-0.069-0.083-0.172-0.133-0.275-0.133c0,0-0.194,0-0.382,0l0.101-0.855c0.274-0.132,1.019-0.471,1.369-0.525
			c0.003,0,0.025-0.008,0.025-0.008c0.012-0.003,0.143-0.01,0.143-0.01c0.213,0,0.407,0.063,0.551,0.174
			c0.149,0.119,0.237,0.276,0.255,0.487l0.426,3.922c0.019,0.148,0.125,0.273,0.266,0.319c0.147,0.043,0.306-0.013,0.401-0.132
			c0,0,2.432-2.228,2.441-2.234c0.169-0.168,0.334-0.244,0.52-0.181c0.259,0.089,0.262,0.257,0.298,0.489
			c0.139,0.976,1.107,8.261,1.224,9.241c-1.485-0.912-1.741-3.695-2.198-5.745c-0.099-0.52-0.562-0.477-0.513,0.099l0.218,2.32
			c-0.328-0.119-1.369-0.512-1.731-0.648c-0.078-0.033-0.145-0.04-0.173-0.04c-0.309,0.013-0.403,0.281-0.366,0.438
			C19.566,44.881,20.408,48.057,20.774,49.515z"/>
		<path fill="#E3E3E3" d="M38.704,49.515c-0.261,0.095-0.84,0.143-1.129,0.118c-0.078-0.006-0.146-0.018-0.203-0.036l-0.04-0.031
			l-0.582-2.821c-0.106-0.519-0.535-0.479-0.484,0.095l0.297,2.907c-0.078,0.15-0.51,0.864-0.922,0.864
			c-0.413,0-0.845-0.714-0.923-0.864l0.297-2.907c0.05-0.574-0.378-0.614-0.484-0.095l-0.582,2.821l-0.041,0.031
			c-0.056,0.018-0.125,0.03-0.203,0.036c-0.288,0.025-0.868-0.023-1.129-0.118c0.366-1.458,1.208-4.633,1.445-5.66
			c0.037-0.156-0.057-0.424-0.366-0.438c-0.028,0-0.094,0.006-0.172,0.04c-0.362,0.136-1.404,0.529-1.732,0.648l0.219-2.32
			c0.05-0.576-0.414-0.619-0.512-0.099c-0.457,2.05-0.713,4.833-2.198,5.745c0.115-0.98,1.084-8.266,1.223-9.241
			c0.036-0.232,0.04-0.4,0.299-0.489c0.185-0.063,0.351,0.013,0.52,0.181c0.009,0.006,2.441,2.234,2.441,2.234
			c0.095,0.119,0.253,0.175,0.401,0.132c0.141-0.046,0.253-0.171,0.272-0.319l0.336-2.764c0.013-0.109-0.018-0.214-0.093-0.288
			c-0.069-0.083-0.173-0.133-0.275-0.133c0,0-0.194,0-0.382,0l0.101-0.855c0.275-0.132,1.019-0.471,1.369-0.525
			c0.002,0,0.026-0.008,0.026-0.008c0.012-0.003,0.144-0.01,0.144-0.01c0.212,0,0.407,0.063,0.55,0.174
			c0.15,0.119,0.238,0.276,0.256,0.487l0.425,3.922c0.019,0.148,0.125,0.273,0.266,0.319c0.147,0.043,0.307-0.013,0.399-0.132
			c0,0,2.434-2.228,2.442-2.234c0.169-0.168,0.335-0.244,0.52-0.181c0.259,0.089,0.263,0.257,0.299,0.489
			c0.138,0.976,1.106,8.261,1.224,9.241c-1.486-0.912-1.742-3.695-2.198-5.745c-0.1-0.52-0.562-0.477-0.513,0.099l0.218,2.32
			c-0.328-0.119-1.37-0.512-1.732-0.648c-0.078-0.033-0.143-0.04-0.171-0.04c-0.311,0.013-0.405,0.281-0.367,0.438
			C37.497,44.881,38.338,48.057,38.704,49.515z"/>
		<path fill="#E3E3E3" d="M77.816,28.378c-0.26,0.097-0.84,0.143-1.129,0.119c-0.078-0.007-0.146-0.018-0.203-0.036l-0.04-0.031
			l-0.582-2.82c-0.106-0.52-0.535-0.48-0.484,0.092l0.296,2.909c-0.078,0.15-0.51,0.862-0.922,0.862s-0.845-0.712-0.923-0.862
			l0.297-2.909c0.051-0.572-0.377-0.612-0.484-0.092l-0.582,2.82l-0.039,0.031c-0.057,0.018-0.126,0.029-0.204,0.036
			c-0.289,0.024-0.869-0.021-1.129-0.119c0.365-1.458,1.207-4.635,1.445-5.66c0.037-0.156-0.057-0.426-0.365-0.438
			c-0.028,0-0.095,0.006-0.173,0.038c-0.362,0.139-1.404,0.532-1.732,0.65l0.219-2.32c0.048-0.576-0.414-0.617-0.514-0.1
			c-0.457,2.052-0.712,4.835-2.197,5.747c0.115-0.982,1.084-8.267,1.223-9.241c0.037-0.232,0.04-0.401,0.299-0.489
			c0.185-0.063,0.351,0.012,0.519,0.183c0.01,0.005,2.442,2.231,2.442,2.231c0.094,0.119,0.252,0.176,0.4,0.132
			c0.141-0.043,0.253-0.168,0.272-0.319l0.337-2.764c0.013-0.105-0.019-0.212-0.093-0.287c-0.069-0.082-0.173-0.131-0.275-0.131
			c0,0-0.194,0-0.382,0l0.101-0.857c0.275-0.131,1.02-0.469,1.37-0.525c0.003,0,0.025-0.006,0.025-0.006
			c0.011-0.007,0.143-0.013,0.143-0.013c0.213,0,0.407,0.063,0.55,0.174c0.15,0.119,0.238,0.276,0.256,0.489l0.425,3.92
			c0.02,0.151,0.126,0.276,0.267,0.319c0.147,0.044,0.307-0.013,0.4-0.132c0,0,2.432-2.226,2.442-2.231
			c0.169-0.171,0.334-0.245,0.519-0.183c0.259,0.087,0.262,0.257,0.3,0.489c0.137,0.974,1.106,8.259,1.222,9.241
			c-1.485-0.911-1.741-3.695-2.198-5.747c-0.099-0.517-0.562-0.476-0.512,0.1l0.219,2.32c-0.328-0.118-1.37-0.511-1.732-0.65
			c-0.078-0.031-0.145-0.038-0.172-0.038c-0.31,0.011-0.403,0.281-0.366,0.438C76.609,23.743,77.451,26.92,77.816,28.378z"/>
		<path fill="#E3E3E3" d="M95.748,28.378c-0.262,0.097-0.841,0.143-1.129,0.119c-0.079-0.007-0.146-0.018-0.203-0.036l-0.04-0.031
			l-0.582-2.82c-0.106-0.52-0.535-0.48-0.485,0.092l0.297,2.909c-0.078,0.15-0.51,0.862-0.922,0.862
			c-0.413,0-0.845-0.712-0.923-0.862l0.296-2.909c0.051-0.572-0.377-0.612-0.483-0.092l-0.582,2.82l-0.041,0.031
			c-0.056,0.018-0.125,0.029-0.203,0.036c-0.288,0.024-0.867-0.021-1.129-0.119c0.366-1.458,1.207-4.635,1.445-5.66
			c0.038-0.156-0.057-0.426-0.366-0.438c-0.028,0-0.093,0.006-0.171,0.038c-0.363,0.139-1.404,0.532-1.732,0.65l0.219-2.32
			c0.048-0.576-0.414-0.617-0.513-0.1c-0.457,2.052-0.713,4.835-2.199,5.747c0.115-0.982,1.085-8.267,1.223-9.241
			c0.037-0.232,0.041-0.401,0.299-0.489c0.185-0.063,0.352,0.012,0.52,0.183c0.009,0.005,2.442,2.231,2.442,2.231
			c0.094,0.119,0.252,0.176,0.4,0.132c0.141-0.043,0.253-0.168,0.272-0.319l0.336-2.764c0.013-0.105-0.018-0.212-0.094-0.287
			c-0.068-0.082-0.171-0.131-0.274-0.131c0,0-0.195,0-0.382,0l0.1-0.857c0.275-0.131,1.019-0.469,1.369-0.525
			c0.002,0,0.025-0.006,0.025-0.006c0.012-0.007,0.144-0.013,0.144-0.013c0.211,0,0.406,0.063,0.549,0.174
			c0.151,0.119,0.238,0.276,0.257,0.489l0.425,3.92c0.019,0.151,0.125,0.276,0.266,0.319c0.146,0.044,0.307-0.013,0.4-0.132
			c0,0,2.433-2.226,2.442-2.231c0.168-0.171,0.334-0.245,0.519-0.183c0.259,0.087,0.262,0.257,0.3,0.489
			c0.138,0.974,1.107,8.259,1.222,9.241c-1.485-0.911-1.741-3.695-2.198-5.747c-0.099-0.517-0.562-0.476-0.513,0.1l0.218,2.32
			c-0.329-0.118-1.369-0.511-1.732-0.65c-0.078-0.031-0.144-0.038-0.172-0.038c-0.309,0.011-0.404,0.281-0.366,0.438
			C94.541,23.743,95.382,26.92,95.748,28.378z"/>
		<path fill="#E3E3E3" d="M77.816,49.515c-0.26,0.095-0.84,0.143-1.129,0.118c-0.078-0.006-0.146-0.018-0.203-0.036l-0.04-0.031
			l-0.582-2.821c-0.106-0.519-0.535-0.479-0.484,0.095l0.296,2.907c-0.078,0.15-0.51,0.864-0.922,0.864s-0.845-0.714-0.923-0.864
			l0.297-2.907c0.051-0.574-0.377-0.614-0.484-0.095l-0.582,2.821l-0.039,0.031c-0.057,0.018-0.126,0.03-0.204,0.036
			c-0.289,0.025-0.869-0.023-1.129-0.118c0.365-1.458,1.207-4.633,1.445-5.66c0.037-0.156-0.057-0.424-0.365-0.438
			c-0.028,0-0.095,0.006-0.173,0.04c-0.362,0.136-1.404,0.529-1.732,0.648l0.219-2.32c0.048-0.576-0.414-0.619-0.514-0.099
			c-0.457,2.05-0.712,4.833-2.197,5.745c0.115-0.98,1.084-8.266,1.223-9.241c0.037-0.232,0.04-0.4,0.299-0.489
			c0.185-0.063,0.351,0.013,0.519,0.181c0.01,0.006,2.442,2.234,2.442,2.234c0.094,0.119,0.252,0.175,0.4,0.132
			c0.141-0.046,0.253-0.171,0.272-0.319l0.337-2.764c0.013-0.109-0.019-0.214-0.093-0.288c-0.069-0.083-0.173-0.133-0.275-0.133
			c0,0-0.194,0-0.382,0l0.101-0.855c0.275-0.132,1.02-0.471,1.37-0.525c0.003,0,0.025-0.008,0.025-0.008
			c0.011-0.003,0.143-0.01,0.143-0.01c0.213,0,0.407,0.063,0.55,0.174c0.15,0.119,0.238,0.276,0.256,0.487l0.425,3.922
			c0.02,0.148,0.126,0.273,0.267,0.319c0.147,0.043,0.307-0.013,0.4-0.132c0,0,2.432-2.228,2.442-2.234
			c0.169-0.168,0.334-0.244,0.519-0.181c0.259,0.089,0.262,0.257,0.3,0.489c0.137,0.976,1.106,8.261,1.222,9.241
			c-1.485-0.912-1.741-3.695-2.198-5.745c-0.099-0.52-0.562-0.477-0.512,0.099l0.219,2.32c-0.328-0.119-1.37-0.512-1.732-0.648
			c-0.078-0.033-0.145-0.04-0.172-0.04c-0.31,0.013-0.403,0.281-0.366,0.438C76.609,44.881,77.451,48.057,77.816,49.515z"/>
		<path fill="#E3E3E3" d="M95.748,49.515c-0.262,0.095-0.841,0.143-1.129,0.118c-0.079-0.006-0.146-0.018-0.203-0.036l-0.04-0.031
			l-0.582-2.821c-0.106-0.519-0.535-0.479-0.485,0.095l0.297,2.907c-0.078,0.15-0.51,0.864-0.922,0.864
			c-0.413,0-0.845-0.714-0.923-0.864l0.296-2.907c0.051-0.574-0.377-0.614-0.483-0.095l-0.582,2.821l-0.041,0.031
			c-0.056,0.018-0.125,0.03-0.203,0.036c-0.288,0.025-0.867-0.023-1.129-0.118c0.366-1.458,1.207-4.633,1.445-5.66
			c0.038-0.156-0.057-0.424-0.366-0.438c-0.028,0-0.093,0.006-0.171,0.04c-0.363,0.136-1.404,0.529-1.732,0.648l0.219-2.32
			c0.048-0.576-0.414-0.619-0.513-0.099c-0.457,2.05-0.713,4.833-2.199,5.745c0.115-0.98,1.085-8.266,1.223-9.241
			c0.037-0.232,0.041-0.4,0.299-0.489c0.185-0.063,0.352,0.013,0.52,0.181c0.009,0.006,2.442,2.234,2.442,2.234
			c0.094,0.119,0.252,0.175,0.4,0.132c0.141-0.046,0.253-0.171,0.272-0.319l0.336-2.764c0.013-0.109-0.018-0.214-0.094-0.288
			c-0.068-0.083-0.171-0.133-0.274-0.133c0,0-0.195,0-0.382,0l0.1-0.855c0.275-0.132,1.019-0.471,1.369-0.525
			c0.002,0,0.025-0.008,0.025-0.008c0.012-0.003,0.144-0.01,0.144-0.01c0.211,0,0.406,0.063,0.549,0.174
			c0.151,0.119,0.238,0.276,0.257,0.487l0.425,3.922c0.019,0.148,0.125,0.273,0.266,0.319c0.146,0.043,0.307-0.013,0.4-0.132
			c0,0,2.433-2.228,2.442-2.234c0.168-0.168,0.334-0.244,0.519-0.181c0.259,0.089,0.262,0.257,0.3,0.489
			c0.138,0.976,1.107,8.261,1.222,9.241c-1.485-0.912-1.741-3.695-2.198-5.745c-0.099-0.52-0.562-0.477-0.513,0.099l0.218,2.32
			c-0.329-0.119-1.369-0.512-1.732-0.648c-0.078-0.033-0.144-0.04-0.172-0.04c-0.309,0.013-0.404,0.281-0.366,0.438
			C94.541,44.881,95.382,48.057,95.748,49.515z"/>
		<path fill="#E3E3E3" d="M20.774,92.574c-0.262,0.096-0.842,0.143-1.13,0.118c-0.077-0.007-0.146-0.018-0.203-0.036l-0.04-0.033
			l-0.582-2.819c-0.107-0.519-0.535-0.479-0.484,0.094l0.297,2.908c-0.078,0.15-0.51,0.864-0.923,0.864
			c-0.411,0-0.844-0.714-0.922-0.864l0.296-2.908c0.051-0.572-0.378-0.612-0.483-0.094l-0.583,2.819l-0.04,0.033
			c-0.056,0.019-0.125,0.029-0.203,0.036c-0.288,0.024-0.868-0.022-1.128-0.118c0.365-1.458,1.207-4.633,1.444-5.66
			c0.037-0.156-0.057-0.424-0.366-0.438c-0.028,0-0.095,0.007-0.173,0.038c-0.362,0.137-1.403,0.531-1.732,0.649l0.219-2.319
			c0.05-0.576-0.413-0.618-0.512-0.099c-0.457,2.05-0.712,4.834-2.198,5.745c0.116-0.98,1.085-8.266,1.223-9.241
			c0.037-0.232,0.041-0.4,0.3-0.488c0.184-0.063,0.35,0.013,0.519,0.181c0.01,0.007,2.442,2.232,2.442,2.232
			c0.094,0.12,0.253,0.176,0.4,0.133c0.141-0.046,0.254-0.171,0.273-0.32l0.337-2.763c0.012-0.108-0.019-0.214-0.094-0.288
			c-0.069-0.082-0.172-0.133-0.275-0.133c0,0-0.194,0-0.382,0l0.101-0.855c0.274-0.132,1.019-0.471,1.369-0.526
			c0.003,0,0.025-0.007,0.025-0.007c0.012-0.005,0.143-0.012,0.143-0.012c0.213,0,0.407,0.063,0.551,0.177
			c0.149,0.118,0.237,0.274,0.255,0.486l0.426,3.921c0.019,0.149,0.125,0.274,0.266,0.32c0.147,0.043,0.306-0.013,0.401-0.133
			c0,0,2.432-2.226,2.441-2.232c0.169-0.168,0.334-0.244,0.52-0.181c0.259,0.088,0.262,0.256,0.298,0.488
			c0.139,0.976,1.107,8.261,1.224,9.241c-1.485-0.911-1.741-3.695-2.198-5.745c-0.099-0.52-0.562-0.478-0.513,0.099l0.218,2.319
			c-0.328-0.118-1.369-0.513-1.731-0.649c-0.078-0.031-0.145-0.038-0.173-0.038c-0.309,0.014-0.403,0.281-0.366,0.438
			C19.566,87.941,20.408,91.116,20.774,92.574z"/>
		<path fill="#E3E3E3" d="M38.704,92.574c-0.261,0.096-0.84,0.143-1.129,0.118c-0.078-0.007-0.146-0.018-0.203-0.036l-0.04-0.033
			l-0.582-2.819c-0.106-0.519-0.535-0.479-0.484,0.094l0.297,2.908c-0.078,0.15-0.51,0.864-0.922,0.864
			c-0.413,0-0.845-0.714-0.923-0.864l0.297-2.908c0.05-0.572-0.378-0.612-0.484-0.094l-0.582,2.819l-0.041,0.033
			c-0.056,0.019-0.125,0.029-0.203,0.036c-0.288,0.024-0.868-0.022-1.129-0.118c0.366-1.458,1.208-4.633,1.445-5.66
			c0.037-0.156-0.057-0.424-0.366-0.438c-0.028,0-0.094,0.007-0.172,0.038c-0.362,0.137-1.404,0.531-1.732,0.649l0.219-2.319
			c0.05-0.576-0.414-0.618-0.512-0.099c-0.457,2.05-0.713,4.834-2.198,5.745c0.115-0.98,1.084-8.266,1.223-9.241
			c0.036-0.232,0.04-0.4,0.299-0.488c0.185-0.063,0.351,0.013,0.52,0.181c0.009,0.007,2.441,2.232,2.441,2.232
			c0.095,0.12,0.253,0.176,0.401,0.133c0.141-0.046,0.253-0.171,0.272-0.32l0.336-2.763c0.013-0.108-0.018-0.214-0.093-0.288
			c-0.069-0.082-0.173-0.133-0.275-0.133c0,0-0.194,0-0.382,0l0.101-0.855c0.275-0.132,1.019-0.471,1.369-0.526
			c0.002,0,0.026-0.007,0.026-0.007c0.012-0.005,0.144-0.012,0.144-0.012c0.212,0,0.407,0.063,0.55,0.177
			c0.15,0.118,0.238,0.274,0.256,0.486l0.425,3.921c0.019,0.149,0.125,0.274,0.266,0.32c0.147,0.043,0.307-0.013,0.399-0.133
			c0,0,2.434-2.226,2.442-2.232c0.169-0.168,0.335-0.244,0.52-0.181c0.259,0.088,0.263,0.256,0.299,0.488
			c0.138,0.976,1.106,8.261,1.224,9.241c-1.486-0.911-1.742-3.695-2.198-5.745c-0.1-0.52-0.562-0.478-0.513,0.099l0.218,2.319
			c-0.328-0.118-1.37-0.513-1.732-0.649c-0.078-0.031-0.143-0.038-0.171-0.038c-0.311,0.014-0.405,0.281-0.367,0.438
			C37.497,87.941,38.338,91.116,38.704,92.574z"/>
		<path fill="#E3E3E3" d="M20.774,113.712c-0.262,0.096-0.842,0.142-1.13,0.119c-0.077-0.009-0.146-0.021-0.203-0.038l-0.04-0.031
			l-0.582-2.82c-0.107-0.52-0.535-0.48-0.484,0.093l0.297,2.908c-0.078,0.15-0.51,0.864-0.923,0.864
			c-0.411,0-0.844-0.714-0.922-0.864l0.296-2.908c0.051-0.573-0.378-0.612-0.483-0.093l-0.583,2.82l-0.04,0.031
			c-0.056,0.018-0.125,0.029-0.203,0.038c-0.288,0.022-0.868-0.023-1.128-0.119c0.365-1.457,1.207-4.634,1.444-5.659
			c0.037-0.158-0.057-0.426-0.366-0.439c-0.028,0-0.095,0.008-0.173,0.038c-0.362,0.138-1.403,0.533-1.732,0.651l0.219-2.32
			c0.05-0.575-0.413-0.618-0.512-0.1c-0.457,2.052-0.712,4.834-2.198,5.745c0.116-0.98,1.085-8.268,1.223-9.241
			c0.037-0.23,0.041-0.401,0.3-0.489c0.184-0.063,0.35,0.014,0.519,0.183c0.01,0.007,2.442,2.231,2.442,2.231
			c0.094,0.12,0.253,0.176,0.4,0.132c0.141-0.043,0.254-0.168,0.273-0.319l0.337-2.765c0.012-0.104-0.019-0.212-0.094-0.286
			c-0.069-0.082-0.172-0.132-0.275-0.132c0,0-0.194,0-0.382,0l0.101-0.855c0.274-0.133,1.019-0.47,1.369-0.526
			c0.003,0,0.025-0.006,0.025-0.006c0.012-0.007,0.143-0.014,0.143-0.014c0.213,0,0.407,0.063,0.551,0.176
			c0.149,0.119,0.237,0.275,0.255,0.489l0.426,3.919c0.019,0.151,0.125,0.276,0.266,0.319c0.147,0.044,0.306-0.012,0.401-0.132
			c0,0,2.432-2.225,2.441-2.231c0.169-0.169,0.334-0.245,0.52-0.183c0.259,0.088,0.262,0.259,0.298,0.489
			c0.139,0.974,1.107,8.261,1.224,9.241c-1.485-0.911-1.741-3.693-2.198-5.745c-0.099-0.519-0.562-0.476-0.513,0.1l0.218,2.32
			c-0.328-0.118-1.369-0.514-1.731-0.651c-0.078-0.03-0.145-0.038-0.173-0.038c-0.309,0.014-0.403,0.281-0.366,0.439
			C19.566,109.078,20.408,112.255,20.774,113.712z"/>
		<path fill="#E3E3E3" d="M38.704,113.712c-0.261,0.096-0.84,0.142-1.129,0.119c-0.078-0.009-0.146-0.021-0.203-0.038l-0.04-0.031
			l-0.582-2.82c-0.106-0.52-0.535-0.48-0.484,0.093l0.297,2.908c-0.078,0.15-0.51,0.864-0.922,0.864
			c-0.413,0-0.845-0.714-0.923-0.864l0.297-2.908c0.05-0.573-0.378-0.612-0.484-0.093l-0.582,2.82l-0.041,0.031
			c-0.056,0.018-0.125,0.029-0.203,0.038c-0.288,0.022-0.868-0.023-1.129-0.119c0.366-1.457,1.208-4.634,1.445-5.659
			c0.037-0.158-0.057-0.426-0.366-0.439c-0.028,0-0.094,0.008-0.172,0.038c-0.362,0.138-1.404,0.533-1.732,0.651l0.219-2.32
			c0.05-0.575-0.414-0.618-0.512-0.1c-0.457,2.052-0.713,4.834-2.198,5.745c0.115-0.98,1.084-8.268,1.223-9.241
			c0.036-0.23,0.04-0.401,0.299-0.489c0.185-0.063,0.351,0.014,0.52,0.183c0.009,0.007,2.441,2.231,2.441,2.231
			c0.095,0.12,0.253,0.176,0.401,0.132c0.141-0.043,0.253-0.168,0.272-0.319l0.336-2.765c0.013-0.104-0.018-0.212-0.093-0.286
			c-0.069-0.082-0.173-0.132-0.275-0.132c0,0-0.194,0-0.382,0l0.101-0.855c0.275-0.133,1.019-0.47,1.369-0.526
			c0.002,0,0.026-0.006,0.026-0.006c0.012-0.007,0.144-0.014,0.144-0.014c0.212,0,0.407,0.063,0.55,0.176
			c0.15,0.119,0.238,0.275,0.256,0.489l0.425,3.919c0.019,0.151,0.125,0.276,0.266,0.319c0.147,0.044,0.307-0.012,0.399-0.132
			c0,0,2.434-2.225,2.442-2.231c0.169-0.169,0.335-0.245,0.52-0.183c0.259,0.088,0.263,0.259,0.299,0.489
			c0.138,0.974,1.106,8.261,1.224,9.241c-1.486-0.911-1.742-3.693-2.198-5.745c-0.1-0.519-0.562-0.476-0.513,0.1l0.218,2.32
			c-0.328-0.118-1.37-0.514-1.732-0.651c-0.078-0.03-0.143-0.038-0.171-0.038c-0.311,0.014-0.405,0.281-0.367,0.439
			C37.497,109.078,38.338,112.255,38.704,113.712z"/>
		<path fill="#E3E3E3" d="M77.816,92.574c-0.26,0.096-0.84,0.143-1.129,0.118c-0.078-0.007-0.146-0.018-0.203-0.036l-0.04-0.033
			l-0.582-2.819c-0.106-0.519-0.535-0.479-0.484,0.094l0.296,2.908c-0.078,0.15-0.51,0.864-0.922,0.864s-0.845-0.714-0.923-0.864
			l0.297-2.908c0.051-0.572-0.377-0.612-0.484-0.094l-0.582,2.819l-0.039,0.033c-0.057,0.019-0.126,0.029-0.204,0.036
			c-0.289,0.024-0.869-0.022-1.129-0.118c0.365-1.458,1.207-4.633,1.445-5.66c0.037-0.156-0.057-0.424-0.365-0.438
			c-0.028,0-0.095,0.007-0.173,0.038c-0.362,0.137-1.404,0.531-1.732,0.649l0.219-2.319c0.048-0.576-0.414-0.618-0.514-0.099
			c-0.457,2.05-0.712,4.834-2.197,5.745c0.115-0.98,1.084-8.266,1.223-9.241c0.037-0.232,0.04-0.4,0.299-0.488
			c0.185-0.063,0.351,0.013,0.519,0.181c0.01,0.007,2.442,2.232,2.442,2.232c0.094,0.12,0.252,0.176,0.4,0.133
			c0.141-0.046,0.253-0.171,0.272-0.32l0.337-2.763c0.013-0.108-0.019-0.214-0.093-0.288c-0.069-0.082-0.173-0.133-0.275-0.133
			c0,0-0.194,0-0.382,0l0.101-0.855c0.275-0.132,1.02-0.471,1.37-0.526c0.003,0,0.025-0.007,0.025-0.007
			c0.011-0.005,0.143-0.012,0.143-0.012c0.213,0,0.407,0.063,0.55,0.177c0.15,0.118,0.238,0.274,0.256,0.486l0.425,3.921
			c0.02,0.149,0.126,0.274,0.267,0.32c0.147,0.043,0.307-0.013,0.4-0.133c0,0,2.432-2.226,2.442-2.232
			c0.169-0.168,0.334-0.244,0.519-0.181c0.259,0.088,0.262,0.256,0.3,0.488c0.137,0.976,1.106,8.261,1.222,9.241
			c-1.485-0.911-1.741-3.695-2.198-5.745c-0.099-0.52-0.562-0.478-0.512,0.099l0.219,2.319c-0.328-0.118-1.37-0.513-1.732-0.649
			c-0.078-0.031-0.145-0.038-0.172-0.038c-0.31,0.014-0.403,0.281-0.366,0.438C76.609,87.941,77.451,91.116,77.816,92.574z"/>
		<path fill="#E3E3E3" d="M95.748,92.574c-0.262,0.096-0.841,0.143-1.129,0.118c-0.079-0.007-0.146-0.018-0.203-0.036l-0.04-0.033
			l-0.582-2.819c-0.106-0.519-0.535-0.479-0.485,0.094l0.297,2.908c-0.078,0.15-0.51,0.864-0.922,0.864
			c-0.413,0-0.845-0.714-0.923-0.864l0.296-2.908c0.051-0.572-0.377-0.612-0.483-0.094l-0.582,2.819l-0.041,0.033
			c-0.056,0.019-0.125,0.029-0.203,0.036c-0.288,0.024-0.867-0.022-1.129-0.118c0.366-1.458,1.207-4.633,1.445-5.66
			c0.038-0.156-0.057-0.424-0.366-0.438c-0.028,0-0.093,0.007-0.171,0.038c-0.363,0.137-1.404,0.531-1.732,0.649l0.219-2.319
			c0.048-0.576-0.414-0.618-0.513-0.099c-0.457,2.05-0.713,4.834-2.199,5.745c0.115-0.98,1.085-8.266,1.223-9.241
			c0.037-0.232,0.041-0.4,0.299-0.488c0.185-0.063,0.352,0.013,0.52,0.181c0.009,0.007,2.442,2.232,2.442,2.232
			c0.094,0.12,0.252,0.176,0.4,0.133c0.141-0.046,0.253-0.171,0.272-0.32l0.336-2.763c0.013-0.108-0.018-0.214-0.094-0.288
			c-0.068-0.082-0.171-0.133-0.274-0.133c0,0-0.195,0-0.382,0l0.1-0.855c0.275-0.132,1.019-0.471,1.369-0.526
			c0.002,0,0.025-0.007,0.025-0.007c0.012-0.005,0.144-0.012,0.144-0.012c0.211,0,0.406,0.063,0.549,0.177
			c0.151,0.118,0.238,0.274,0.257,0.486l0.425,3.921c0.019,0.149,0.125,0.274,0.266,0.32c0.146,0.043,0.307-0.013,0.4-0.133
			c0,0,2.433-2.226,2.442-2.232c0.168-0.168,0.334-0.244,0.519-0.181c0.259,0.088,0.262,0.256,0.3,0.488
			c0.138,0.976,1.107,8.261,1.222,9.241c-1.485-0.911-1.741-3.695-2.198-5.745c-0.099-0.52-0.562-0.478-0.513,0.099l0.218,2.319
			c-0.329-0.118-1.369-0.513-1.732-0.649c-0.078-0.031-0.144-0.038-0.172-0.038c-0.309,0.014-0.404,0.281-0.366,0.438
			C94.541,87.941,95.382,91.116,95.748,92.574z"/>
		<path fill="#E3E3E3" d="M77.816,113.712c-0.26,0.096-0.84,0.142-1.129,0.119c-0.078-0.009-0.146-0.021-0.203-0.038l-0.04-0.031
			l-0.582-2.82c-0.106-0.52-0.535-0.48-0.484,0.093l0.296,2.908c-0.078,0.15-0.51,0.864-0.922,0.864s-0.845-0.714-0.923-0.864
			l0.297-2.908c0.051-0.573-0.377-0.612-0.484-0.093l-0.582,2.82l-0.039,0.031c-0.057,0.018-0.126,0.029-0.204,0.038
			c-0.289,0.022-0.869-0.023-1.129-0.119c0.365-1.457,1.207-4.634,1.445-5.659c0.037-0.158-0.057-0.426-0.365-0.439
			c-0.028,0-0.095,0.008-0.173,0.038c-0.362,0.138-1.404,0.533-1.732,0.651l0.219-2.32c0.048-0.575-0.414-0.618-0.514-0.1
			c-0.457,2.052-0.712,4.834-2.197,5.745c0.115-0.98,1.084-8.268,1.223-9.241c0.037-0.23,0.04-0.401,0.299-0.489
			c0.185-0.063,0.351,0.014,0.519,0.183c0.01,0.007,2.442,2.231,2.442,2.231c0.094,0.12,0.252,0.176,0.4,0.132
			c0.141-0.043,0.253-0.168,0.272-0.319l0.337-2.765c0.013-0.104-0.019-0.212-0.093-0.286c-0.069-0.082-0.173-0.132-0.275-0.132
			c0,0-0.194,0-0.382,0l0.101-0.855c0.275-0.133,1.02-0.47,1.37-0.526c0.003,0,0.025-0.006,0.025-0.006
			c0.011-0.007,0.143-0.014,0.143-0.014c0.213,0,0.407,0.063,0.55,0.176c0.15,0.119,0.238,0.275,0.256,0.489l0.425,3.919
			c0.02,0.151,0.126,0.276,0.267,0.319c0.147,0.044,0.307-0.012,0.4-0.132c0,0,2.432-2.225,2.442-2.231
			c0.169-0.169,0.334-0.245,0.519-0.183c0.259,0.088,0.262,0.259,0.3,0.489c0.137,0.974,1.106,8.261,1.222,9.241
			c-1.485-0.911-1.741-3.693-2.198-5.745c-0.099-0.519-0.562-0.476-0.512,0.1l0.219,2.32c-0.328-0.118-1.37-0.514-1.732-0.651
			c-0.078-0.03-0.145-0.038-0.172-0.038c-0.31,0.014-0.403,0.281-0.366,0.439C76.609,109.078,77.451,112.255,77.816,113.712z"/>
		<path fill="#E3E3E3" d="M95.748,113.712c-0.262,0.096-0.841,0.142-1.129,0.119c-0.079-0.009-0.146-0.021-0.203-0.038l-0.04-0.031
			l-0.582-2.82c-0.106-0.52-0.535-0.48-0.485,0.093l0.297,2.908c-0.078,0.15-0.51,0.864-0.922,0.864
			c-0.413,0-0.845-0.714-0.923-0.864l0.296-2.908c0.051-0.573-0.377-0.612-0.483-0.093l-0.582,2.82l-0.041,0.031
			c-0.056,0.018-0.125,0.029-0.203,0.038c-0.288,0.022-0.867-0.023-1.129-0.119c0.366-1.457,1.207-4.634,1.445-5.659
			c0.038-0.158-0.057-0.426-0.366-0.439c-0.028,0-0.093,0.008-0.171,0.038c-0.363,0.138-1.404,0.533-1.732,0.651l0.219-2.32
			c0.048-0.575-0.414-0.618-0.513-0.1c-0.457,2.052-0.713,4.834-2.199,5.745c0.115-0.98,1.085-8.268,1.223-9.241
			c0.037-0.23,0.041-0.401,0.299-0.489c0.185-0.063,0.352,0.014,0.52,0.183c0.009,0.007,2.442,2.231,2.442,2.231
			c0.094,0.12,0.252,0.176,0.4,0.132c0.141-0.043,0.253-0.168,0.272-0.319l0.336-2.765c0.013-0.104-0.018-0.212-0.094-0.286
			c-0.068-0.082-0.171-0.132-0.274-0.132c0,0-0.195,0-0.382,0l0.1-0.855c0.275-0.133,1.019-0.47,1.369-0.526
			c0.002,0,0.025-0.006,0.025-0.006c0.012-0.007,0.144-0.014,0.144-0.014c0.211,0,0.406,0.063,0.549,0.176
			c0.151,0.119,0.238,0.275,0.257,0.489l0.425,3.919c0.019,0.151,0.125,0.276,0.266,0.319c0.146,0.044,0.307-0.012,0.4-0.132
			c0,0,2.433-2.225,2.442-2.231c0.168-0.169,0.334-0.245,0.519-0.183c0.259,0.088,0.262,0.259,0.3,0.489
			c0.138,0.974,1.107,8.261,1.222,9.241c-1.485-0.911-1.741-3.693-2.198-5.745c-0.099-0.519-0.562-0.476-0.513,0.1l0.218,2.32
			c-0.329-0.118-1.369-0.514-1.732-0.651c-0.078-0.03-0.144-0.038-0.172-0.038c-0.309,0.014-0.404,0.281-0.366,0.439
			C94.541,109.078,95.382,112.255,95.748,113.712z"/>
	</g>
</g>
</svg>
