<svg xmlns="http://www.w3.org/2000/svg" xmlns:xlink="http://www.w3.org/1999/xlink" version="1.1" width="432pt" height="288pt" viewBox="0 0 432 288">
<defs>
<clipPath id="clip_0">
<path transform="matrix(1,0,0,-1,0,288)" d="M53.925 41.8H421.19999V277.19999H53.925Z"/>
</clipPath>
<clipPath id="clip_1">
<path transform="matrix(1,0,0,-1,0,288)" d="M53.925 41.8H421.19999V277.19999H53.925Z"/>
</clipPath>
<clipPath id="clip_2">
<path transform="matrix(1,0,0,-1,0,288)" d="M53.925 41.8H421.19999V277.19999H53.925Z"/>
</clipPath>
<clipPath id="clip_3">
<path transform="matrix(1,0,0,-1,0,288)" d="M53.925 41.8H421.19999V277.19999H53.925Z"/>
</clipPath>
<clipPath id="clip_4">
<path transform="matrix(1,0,0,-1,0,288)" d="M53.925 41.8H421.19999V277.19999H53.925Z"/>
</clipPath>
<clipPath id="clip_5">
<path transform="matrix(1,0,0,-1,0,288)" d="M53.925 41.8H421.19999V277.19999H53.925Z"/>
</clipPath>
</defs>
<path transform="matrix(1,0,0,-1,0,288)" d="M53.925 41.8H421.2V277.2H53.925Z" fill="#ffffff"/>
<g clip-path="url(#clip_0)">
<g>
<path transform="matrix(1,0,0,-1,0,288)" d="M70.619319 79.65467V56.07331L112.35512 53.63642 154.09091 53.16993 195.8267 55.157018 237.5625 52.677358 279.2983 52.5 321.0341 52.567464 362.7699 55.465364 404.50569 57.54732V83.76778L362.7699 74.30242 321.0341 60.576719 279.2983 60.461885 237.5625 61.909555 195.8267 77.25404 154.09091 69.39589 112.35512 70.157939 70.619319 79.65467Z" fill="#5505a6" fill-opacity=".2"/>
<path transform="matrix(1,0,0,-1,0,288)" stroke-width="1" stroke-linecap="butt" stroke-linejoin="round" fill="none" stroke="#5505a6" stroke-opacity=".2" d="M70.619319 79.65467V56.07331L112.35512 53.63642 154.09091 53.16993 195.8267 55.157018 237.5625 52.677358 279.2983 52.5 321.0341 52.567464 362.7699 55.465364 404.50569 57.54732V83.76778L362.7699 74.30242 321.0341 60.576719 279.2983 60.461885 237.5625 61.909555 195.8267 77.25404 154.09091 69.39589 112.35512 70.157939 70.619319 79.65467Z"/>
</g>
</g>
<g clip-path="url(#clip_1)">
<g>
<path transform="matrix(1,0,0,-1,0,288)" d="M70.619319 177.65523V100.26936L112.35512 97.18241 154.09091 100.9651 195.8267 109.47941 237.5625 119.969089 279.2983 126.62802 321.0341 130.68848 362.7699 143.02548 404.50569 145.40297V248.46984L362.7699 266.5 321.0341 229.8586 279.2983 236.22237 237.5625 215.80986 195.8267 196.41806 154.09091 179.0259 112.35512 167.01976 70.619319 177.65523Z" fill="#bf369b" fill-opacity=".2"/>
<path transform="matrix(1,0,0,-1,0,288)" stroke-width="1" stroke-linecap="butt" stroke-linejoin="round" fill="none" stroke="#bf369b" stroke-opacity=".2" d="M70.619319 177.65523V100.26936L112.35512 97.18241 154.09091 100.9651 195.8267 109.47941 237.5625 119.969089 279.2983 126.62802 321.0341 130.68848 362.7699 143.02548 404.50569 145.40297V248.46984L362.7699 266.5 321.0341 229.8586 279.2983 236.22237 237.5625 215.80986 195.8267 196.41806 154.09091 179.0259 112.35512 167.01976 70.619319 177.65523Z"/>
</g>
</g>
<g clip-path="url(#clip_2)">
<g>
<path transform="matrix(1,0,0,-1,0,288)" d="M70.619319 202.04857V114.6298L112.35512 113.501728 154.09091 115.35188 195.8267 119.71172 237.5625 130.66094 279.2983 133.09204 321.0341 136.79596 362.7699 140.92522 404.50569 143.83322V246.26798L362.7699 247.84252 321.0341 237.93494 279.2983 234.10272 237.5625 230.98348 195.8267 217.23935 154.09091 206.63591 112.35512 205.1271 70.619319 202.04857Z" fill="#f29d35" fill-opacity=".2"/>
<path transform="matrix(1,0,0,-1,0,288)" stroke-width="1" stroke-linecap="butt" stroke-linejoin="round" fill="none" stroke="#f29d35" stroke-opacity=".2" d="M70.619319 202.04857V114.6298L112.35512 113.501728 154.09091 115.35188 195.8267 119.71172 237.5625 130.66094 279.2983 133.09204 321.0341 136.79596 362.7699 140.92522 404.50569 143.83322V246.26798L362.7699 247.84252 321.0341 237.93494 279.2983 234.10272 237.5625 230.98348 195.8267 217.23935 154.09091 206.63591 112.35512 205.1271 70.619319 202.04857Z"/>
</g>
</g>
<path transform="matrix(1,0,0,-1,0,288)" d="M91.48721 41.8V38.3"/>
<path transform="matrix(1,0,0,-1,0,288)" stroke-width=".8" stroke-linecap="butt" stroke-linejoin="round" fill="none" stroke="#000000" d="M91.48721 41.8V38.3"/>
<text xml:space="preserve" transform="matrix(1 0 -0 1 85.12784 260.79377)" font-size="10" font-family="DejaVuSans"><tspan y="0" x="0 6.3600008">20</tspan></text>
<path transform="matrix(1,0,0,-1,0,288)" d="M133.223 41.8V38.3"/>
<path transform="matrix(1,0,0,-1,0,288)" stroke-width=".8" stroke-linecap="butt" stroke-linejoin="round" fill="none" stroke="#000000" d="M133.223 41.8V38.3"/>
<text xml:space="preserve" transform="matrix(1 0 -0 1 126.86363 260.79377)" font-size="10" font-family="DejaVuSans"><tspan y="0" x="0 6.3600008">30</tspan></text>
<path transform="matrix(1,0,0,-1,0,288)" d="M174.9588 41.8V38.3"/>
<path transform="matrix(1,0,0,-1,0,288)" stroke-width=".8" stroke-linecap="butt" stroke-linejoin="round" fill="none" stroke="#000000" d="M174.9588 41.8V38.3"/>
<text xml:space="preserve" transform="matrix(1 0 -0 1 168.59943 260.79377)" font-size="10" font-family="DejaVuSans"><tspan y="0" x="0 6.3600008">40</tspan></text>
<path transform="matrix(1,0,0,-1,0,288)" d="M216.6946 41.8V38.3"/>
<path transform="matrix(1,0,0,-1,0,288)" stroke-width=".8" stroke-linecap="butt" stroke-linejoin="round" fill="none" stroke="#000000" d="M216.6946 41.8V38.3"/>
<text xml:space="preserve" transform="matrix(1 0 -0 1 210.33522 260.79377)" font-size="10" font-family="DejaVuSans"><tspan y="0" x="0 6.3600008">50</tspan></text>
<path transform="matrix(1,0,0,-1,0,288)" d="M258.4304 41.8V38.3"/>
<path transform="matrix(1,0,0,-1,0,288)" stroke-width=".8" stroke-linecap="butt" stroke-linejoin="round" fill="none" stroke="#000000" d="M258.4304 41.8V38.3"/>
<text xml:space="preserve" transform="matrix(1 0 -0 1 252.07102 260.79377)" font-size="10" font-family="DejaVuSans"><tspan y="0" x="0 6.3600008">60</tspan></text>
<path transform="matrix(1,0,0,-1,0,288)" d="M300.1662 41.8V38.3"/>
<path transform="matrix(1,0,0,-1,0,288)" stroke-width=".8" stroke-linecap="butt" stroke-linejoin="round" fill="none" stroke="#000000" d="M300.1662 41.8V38.3"/>
<text xml:space="preserve" transform="matrix(1 0 -0 1 293.80683 260.79377)" font-size="10" font-family="DejaVuSans"><tspan y="0" x="0 6.3600008">70</tspan></text>
<path transform="matrix(1,0,0,-1,0,288)" d="M341.90199 41.8V38.3"/>
<path transform="matrix(1,0,0,-1,0,288)" stroke-width=".8" stroke-linecap="butt" stroke-linejoin="round" fill="none" stroke="#000000" d="M341.90199 41.8V38.3"/>
<text xml:space="preserve" transform="matrix(1 0 -0 1 335.5426 260.79377)" font-size="10" font-family="DejaVuSans"><tspan y="0" x="0 6.3600008">80</tspan></text>
<path transform="matrix(1,0,0,-1,0,288)" d="M383.6378 41.8V38.3"/>
<path transform="matrix(1,0,0,-1,0,288)" stroke-width=".8" stroke-linecap="butt" stroke-linejoin="round" fill="none" stroke="#000000" d="M383.6378 41.8V38.3"/>
<text xml:space="preserve" transform="matrix(1 0 -0 1 377.2784 260.79377)" font-size="10" font-family="DejaVuSans"><tspan y="0" x="0 6.3600008">90</tspan></text>
<text xml:space="preserve" transform="matrix(1 0 -0 1 211.27344 274.46565)" font-size="10" font-family="DejaVuSans"><tspan y="0" x="0 6.8600008 9.640001 15.980001 20.090003 23.270003 26.790003 32.920003 38.420003 42.340005 48.460004">Blur factor</tspan></text>
<path transform="matrix(1,0,0,-1,0,288)" d="M53.925 46.478456H50.425"/>
<path transform="matrix(1,0,0,-1,0,288)" stroke-width=".8" stroke-linecap="butt" stroke-linejoin="round" fill="none" stroke="#000000" d="M53.925 46.478456H50.425"/>
<text xml:space="preserve" transform="matrix(1 0 -0 1 24.659375 245.31842)" font-size="10" font-family="DejaVuSans"><tspan y="0" x="0 6.3600008 9.540001 15.900002">0.00</tspan></text>
<path transform="matrix(1,0,0,-1,0,288)" d="M53.925 74.57814H50.425"/>
<path transform="matrix(1,0,0,-1,0,288)" stroke-width=".8" stroke-linecap="butt" stroke-linejoin="round" fill="none" stroke="#000000" d="M53.925 74.57814H50.425"/>
<text xml:space="preserve" transform="matrix(1 0 -0 1 24.659375 217.21874)" font-size="10" font-family="DejaVuSans"><tspan y="0" x="0 6.3600008 9.540001 15.900002">0.01</tspan></text>
<path transform="matrix(1,0,0,-1,0,288)" d="M53.925 102.67782H50.425"/>
<path transform="matrix(1,0,0,-1,0,288)" stroke-width=".8" stroke-linecap="butt" stroke-linejoin="round" fill="none" stroke="#000000" d="M53.925 102.67782H50.425"/>
<text xml:space="preserve" transform="matrix(1 0 -0 1 24.659375 189.11905)" font-size="10" font-family="DejaVuSans"><tspan y="0" x="0 6.3600008 9.540001 15.900002">0.02</tspan></text>
<path transform="matrix(1,0,0,-1,0,288)" d="M53.925 130.77751H50.425"/>
<path transform="matrix(1,0,0,-1,0,288)" stroke-width=".8" stroke-linecap="butt" stroke-linejoin="round" fill="none" stroke="#000000" d="M53.925 130.77751H50.425"/>
<text xml:space="preserve" transform="matrix(1 0 -0 1 24.659375 161.01938)" font-size="10" font-family="DejaVuSans"><tspan y="0" x="0 6.3600008 9.540001 15.900002">0.03</tspan></text>
<path transform="matrix(1,0,0,-1,0,288)" d="M53.925 158.8772H50.425"/>
<path transform="matrix(1,0,0,-1,0,288)" stroke-width=".8" stroke-linecap="butt" stroke-linejoin="round" fill="none" stroke="#000000" d="M53.925 158.8772H50.425"/>
<text xml:space="preserve" transform="matrix(1 0 -0 1 24.659375 132.9197)" font-size="10" font-family="DejaVuSans"><tspan y="0" x="0 6.3600008 9.540001 15.900002">0.04</tspan></text>
<path transform="matrix(1,0,0,-1,0,288)" d="M53.925 186.97687H50.425"/>
<path transform="matrix(1,0,0,-1,0,288)" stroke-width=".8" stroke-linecap="butt" stroke-linejoin="round" fill="none" stroke="#000000" d="M53.925 186.97687H50.425"/>
<text xml:space="preserve" transform="matrix(1 0 -0 1 24.659375 104.82001)" font-size="10" font-family="DejaVuSans"><tspan y="0" x="0 6.3600008 9.540001 15.900002">0.05</tspan></text>
<path transform="matrix(1,0,0,-1,0,288)" d="M53.925 215.07656H50.425"/>
<path transform="matrix(1,0,0,-1,0,288)" stroke-width=".8" stroke-linecap="butt" stroke-linejoin="round" fill="none" stroke="#000000" d="M53.925 215.07656H50.425"/>
<text xml:space="preserve" transform="matrix(1 0 -0 1 24.659375 76.72032)" font-size="10" font-family="DejaVuSans"><tspan y="0" x="0 6.3600008 9.540001 15.900002">0.06</tspan></text>
<path transform="matrix(1,0,0,-1,0,288)" d="M53.925 243.17624H50.425"/>
<path transform="matrix(1,0,0,-1,0,288)" stroke-width=".8" stroke-linecap="butt" stroke-linejoin="round" fill="none" stroke="#000000" d="M53.925 243.17624H50.425"/>
<text xml:space="preserve" transform="matrix(1 0 -0 1 24.659375 48.620637)" font-size="10" font-family="DejaVuSans"><tspan y="0" x="0 6.3600008 9.540001 15.900002">0.07</tspan></text>
<path transform="matrix(1,0,0,-1,0,288)" d="M53.925 271.2759H50.425"/>
<path transform="matrix(1,0,0,-1,0,288)" stroke-width=".8" stroke-linecap="butt" stroke-linejoin="round" fill="none" stroke="#000000" d="M53.925 271.2759H50.425"/>
<text xml:space="preserve" transform="matrix(1 0 -0 1 24.659375 20.520966)" font-size="10" font-family="DejaVuSans"><tspan y="0" x="0 6.3600008 9.540001 15.900002">0.08</tspan></text>
<text xml:space="preserve" transform="matrix(0 -1 1 0 18.58125 176.29688)" font-size="10" font-family="DejaVuSans"><tspan y="0" x="0 7.7000005 10.4800009 15.690001 22.04 28.170002 32.280004 35.06 38.980005 44.9 48.08 54.230005 58.16813 62.05938 68.17938 72.28938 75.46938 79.369388 85.71938 91.63938">Disparity error (px)</tspan></text>
<g clip-path="url(#clip_3)">
<path transform="matrix(1,0,0,-1,0,288)" stroke-width="1.5" stroke-linecap="square" stroke-linejoin="round" fill="none" stroke="#5505a6" d="M70.619319 56.07331 112.35512 53.63642 154.09091 53.16993 195.8267 55.157018 237.5625 52.677358 279.2983 52.5 321.0341 52.567464 362.7699 55.465364 404.50569 57.54732"/>
</g>
<g clip-path="url(#clip_4)">
<path transform="matrix(1,0,0,-1,0,288)" stroke-width="1.5" stroke-linecap="square" stroke-linejoin="round" fill="none" stroke="#bf369b" d="M70.619319 100.26936 112.35512 97.18241 154.09091 100.9651 195.8267 109.47941 237.5625 119.969089 279.2983 126.62802 321.0341 130.68848 362.7699 143.02548 404.50569 145.40297"/>
</g>
<g clip-path="url(#clip_5)">
<path transform="matrix(1,0,0,-1,0,288)" stroke-width="1.5" stroke-linecap="square" stroke-linejoin="round" fill="none" stroke="#f29d35" d="M70.619319 114.6298 112.35512 113.501728 154.09091 115.35188 195.8267 119.71172 237.5625 130.66094 279.2983 133.09204 321.0341 136.79596 362.7699 140.92522 404.50569 143.83322"/>
</g>
<path transform="matrix(1,0,0,-1,0,288)" stroke-width=".8" stroke-linecap="square" stroke-miterlimit="10" stroke-linejoin="miter" fill="none" stroke="#000000" d="M53.925 41.8V277.2"/>
<path transform="matrix(1,0,0,-1,0,288)" stroke-width=".8" stroke-linecap="square" stroke-miterlimit="10" stroke-linejoin="miter" fill="none" stroke="#000000" d="M421.2 41.8V277.2"/>
<path transform="matrix(1,0,0,-1,0,288)" stroke-width=".8" stroke-linecap="square" stroke-miterlimit="10" stroke-linejoin="miter" fill="none" stroke="#000000" d="M53.925 41.8H421.2"/>
<path transform="matrix(1,0,0,-1,0,288)" stroke-width=".8" stroke-linecap="square" stroke-miterlimit="10" stroke-linejoin="miter" fill="none" stroke="#000000" d="M53.925 277.2H421.2"/>
<g>
<path transform="matrix(1,0,0,-1,0,288)" d="M295.5125 225.18437H414.2C415.53334 225.18437 416.2 225.85105 416.2 227.18437V270.2C416.2 271.53334 415.53334 272.2 414.2 272.2H295.5125C294.17918 272.2 293.5125 271.53334 293.5125 270.2V227.18437C293.5125 225.85105 294.17918 225.18437 295.5125 225.18437Z" fill="#ffffff" fill-opacity=".8"/>
<path transform="matrix(1,0,0,-1,0,288)" stroke-width="1" stroke-linecap="butt" stroke-miterlimit="10" stroke-linejoin="miter" fill="none" stroke="#d5d6d5" stroke-opacity=".8" d="M295.5125 225.18437H414.2C415.53334 225.18437 416.2 225.85105 416.2 227.18437V270.2C416.2 271.53334 415.53334 272.2 414.2 272.2H295.5125C294.17918 272.2 293.5125 271.53334 293.5125 270.2V227.18437C293.5125 225.85105 294.17918 225.18437 295.5125 225.18437Z"/>
</g>
<path transform="matrix(1,0,0,-1,0,288)" stroke-width="1.5" stroke-linecap="square" stroke-linejoin="round" fill="none" stroke="#5505a6" d="M297.5125 264.10627H307.5125 317.5125"/>
<text xml:space="preserve" transform="matrix(1 0 -0 1 325.5125 27.393738)" font-size="10" font-family="DejaVuSans"><tspan y="0" x="0 7.870001 14.210001 18.320002">Ours</tspan></text>
<path transform="matrix(1,0,0,-1,0,288)" stroke-width="1.5" stroke-linecap="square" stroke-linejoin="round" fill="none" stroke="#bf369b" d="M297.5125 249.43437H307.5125 317.5125"/>
<text xml:space="preserve" transform="matrix(1 0 -0 1 325.5125 42.065629)" font-size="10" font-family="DejaVuSans"><tspan y="0" x="0 7.870001 14.210001 18.320002 23.530003 26.710003 30.610003 36.960004 40.851255 47.001256 50.921258 55.031259 61.16126 63.941259 70.28126 76.43126 82.78126">Ours (pretrained)</tspan></text>
<path transform="matrix(1,0,0,-1,0,288)" stroke-width="1.5" stroke-linecap="square" stroke-linejoin="round" fill="none" stroke="#f29d35" d="M297.5125 234.7625H307.5125 317.5125"/>
<text xml:space="preserve" transform="matrix(1 0 -0 1 325.5125 56.737504)" font-size="10" font-family="DejaVuSans"><tspan y="0" x="0 8.63 11.41 19.11 25.240002 31.590003 34.770006 40.690004">MiDaS v3</tspan></text>
</svg>
