<?xml version="1.0" encoding="utf-8" standalone="no"?>
<!DOCTYPE svg PUBLIC "-//W3C//DTD SVG 1.1//EN"
  "http://www.w3.org/Graphics/SVG/1.1/DTD/svg11.dtd">
<svg xmlns:xlink="http://www.w3.org/1999/xlink" width="489.67125pt" height="169.153437pt" viewBox="0 0 489.67125 169.153437" xmlns="http://www.w3.org/2000/svg" version="1.1">
 <metadata>
  <rdf:RDF xmlns:dc="http://purl.org/dc/elements/1.1/" xmlns:cc="http://creativecommons.org/ns#" xmlns:rdf="http://www.w3.org/1999/02/22-rdf-syntax-ns#">
   <cc:Work>
    <dc:type rdf:resource="http://purl.org/dc/dcmitype/StillImage"/>
    <dc:date>2026-03-11T22:08:16.330182</dc:date>
    <dc:format>image/svg+xml</dc:format>
    <dc:creator>
     <cc:Agent>
      <dc:title>Matplotlib v3.10.1, https://matplotlib.org/</dc:title>
     </cc:Agent>
    </dc:creator>
   </cc:Work>
  </rdf:RDF>
 </metadata>
 <defs>
  <style type="text/css">*{stroke-linejoin: round; stroke-linecap: butt}</style>
 </defs>
 <g id="figure_1">
  <g id="patch_1">
   <path d="M 0 169.153437 
L 489.67125 169.153437 
L 489.67125 0 
L 0 0 
z
" style="fill: #ffffff"/>
  </g>
  <g id="axes_1">
   <g id="patch_2">
    <path d="M 135.60875 91.931875 
C 135.60875 85.210651 134.284815 78.554782 131.712714 72.34518 
C 129.140613 66.135579 125.370366 60.493005 120.617743 55.740382 
C 115.86512 50.987759 110.222546 47.217512 104.012945 44.645411 
C 97.803343 42.07331 91.147474 40.749375 84.42625 40.749375 
C 77.705026 40.749375 71.049157 42.07331 64.839555 44.645411 
C 58.629954 47.217512 52.98738 50.987759 48.234757 55.740382 
C 43.482134 60.493005 39.711887 66.135579 37.139786 72.34518 
C 34.567685 78.554782 33.24375 85.210651 33.24375 91.931875 
C 33.24375 98.653099 34.567685 105.308968 37.139786 111.51857 
C 39.711887 117.728171 43.482134 123.370745 48.234757 128.123368 
C 52.98738 132.875991 58.629954 136.646238 64.839555 139.218339 
C 71.049157 141.79044 77.705026 143.114375 84.42625 143.114375 
C 91.147474 143.114375 97.803343 141.79044 104.012945 139.218339 
C 110.222546 136.646238 115.86512 132.875991 120.617743 128.123368 
C 125.370366 123.370745 129.140613 117.728171 131.712714 111.51857 
C 134.284815 105.308968 135.60875 98.653099 135.60875 91.931875 
M 84.42625 91.931875 
C 84.42625 91.931875 84.42625 91.931875 84.42625 91.931875 
C 84.42625 91.931875 84.42625 91.931875 84.42625 91.931875 
C 84.42625 91.931875 84.42625 91.931875 84.42625 91.931875 
C 84.42625 91.931875 84.42625 91.931875 84.42625 91.931875 
C 84.42625 91.931875 84.42625 91.931875 84.42625 91.931875 
C 84.42625 91.931875 84.42625 91.931875 84.42625 91.931875 
C 84.42625 91.931875 84.42625 91.931875 84.42625 91.931875 
C 84.42625 91.931875 84.42625 91.931875 84.42625 91.931875 
C 84.42625 91.931875 84.42625 91.931875 84.42625 91.931875 
C 84.42625 91.931875 84.42625 91.931875 84.42625 91.931875 
C 84.42625 91.931875 84.42625 91.931875 84.42625 91.931875 
C 84.42625 91.931875 84.42625 91.931875 84.42625 91.931875 
C 84.42625 91.931875 84.42625 91.931875 84.42625 91.931875 
C 84.42625 91.931875 84.42625 91.931875 84.42625 91.931875 
C 84.42625 91.931875 84.42625 91.931875 84.42625 91.931875 
C 84.42625 91.931875 84.42625 91.931875 84.42625 91.931875 
z
" style="fill: #ffffff"/>
   </g>
   <g id="patch_3">
    <path d="M 84.42625 91.931875 
C 84.42625 91.931875 84.42625 91.931875 84.42625 91.931875 
C 84.42625 91.931875 84.42625 91.931875 84.42625 91.931875 
L 83.140814 103.751263 
C 83.56772 103.797692 83.996827 103.820957 84.42625 103.820957 
C 84.855673 103.820957 85.28478 103.797692 85.711686 103.751263 
z
" clip-path="url(#p35e4be3659)" style="fill: #1f77b4; opacity: 0.5; stroke: #1f77b4; stroke-linejoin: miter"/>
   </g>
   <g id="patch_4">
    <path d="M 84.42625 91.931875 
C 84.42625 91.931875 84.42625 91.931875 84.42625 91.931875 
C 84.42625 91.931875 84.42625 91.931875 84.42625 91.931875 
L 82.528149 97.565238 
C 82.731621 97.633796 82.938658 97.69128 83.148349 97.737436 
C 83.358041 97.783593 83.570079 97.818355 83.783532 97.841569 
z
" clip-path="url(#p35e4be3659)" style="fill: #1f77b4; opacity: 0.5; stroke: #1f77b4; stroke-linejoin: miter"/>
   </g>
   <g id="patch_5">
    <path d="M 84.42625 91.931875 
C 84.42625 91.931875 84.42625 91.931875 84.42625 91.931875 
C 84.42625 91.931875 84.42625 91.931875 84.42625 91.931875 
L 81.974465 96.006773 
C 82.121647 96.095329 82.273518 96.175847 82.429412 96.247971 
C 82.585305 96.320095 82.744992 96.38372 82.907769 96.438566 
z
" clip-path="url(#p35e4be3659)" style="fill: #1f77b4; opacity: 0.5; stroke: #1f77b4; stroke-linejoin: miter"/>
   </g>
   <g id="patch_6">
    <path d="M 84.42625 91.931875 
C 84.42625 91.931875 84.42625 91.931875 84.42625 91.931875 
C 84.42625 91.931875 84.42625 91.931875 84.42625 91.931875 
L 77.067746 99.700153 
C 77.348329 99.965936 77.643106 100.216321 77.95078 100.450209 
C 78.258455 100.684098 78.578575 100.901145 78.909734 101.100396 
z
" clip-path="url(#p35e4be3659)" style="fill: #1f77b4; opacity: 0.5; stroke: #1f77b4; stroke-linejoin: miter"/>
   </g>
   <g id="patch_7">
    <path d="M 84.42625 91.931875 
C 84.42625 91.931875 84.42625 91.931875 84.42625 91.931875 
C 84.42625 91.931875 84.42625 91.931875 84.42625 91.931875 
L 76.55388 97.269474 
C 76.746669 97.553817 76.954722 97.827506 77.177124 98.089338 
C 77.399526 98.35117 77.63595 98.60076 77.885358 98.837011 
z
" clip-path="url(#p35e4be3659)" style="fill: #1f77b4; opacity: 0.5; stroke: #1f77b4; stroke-linejoin: miter"/>
   </g>
   <g id="patch_8">
    <path d="M 84.42625 91.931875 
C 84.42625 91.931875 84.42625 91.931875 84.42625 91.931875 
C 84.42625 91.931875 84.42625 91.931875 84.42625 91.931875 
L 74.486037 95.892418 
C 74.629088 96.251449 74.791486 96.602467 74.972517 96.943927 
C 75.153548 97.285387 75.352946 97.616789 75.569834 97.936674 
z
" clip-path="url(#p35e4be3659)" style="fill: #1f77b4; opacity: 0.5; stroke: #1f77b4; stroke-linejoin: miter"/>
   </g>
   <g id="patch_9">
    <path d="M 84.42625 91.931875 
C 84.42625 91.931875 84.42625 91.931875 84.42625 91.931875 
C 84.42625 91.931875 84.42625 91.931875 84.42625 91.931875 
L 71.520542 94.047658 
C 71.596962 94.513801 71.698581 94.975461 71.824952 95.430608 
C 71.951323 95.885755 72.102261 96.333722 72.277101 96.772538 
z
" clip-path="url(#p35e4be3659)" style="fill: #1f77b4; opacity: 0.5; stroke: #1f77b4; stroke-linejoin: miter"/>
   </g>
   <g id="patch_10">
    <path d="M 84.42625 91.931875 
C 84.42625 91.931875 84.42625 91.931875 84.42625 91.931875 
C 84.42625 91.931875 84.42625 91.931875 84.42625 91.931875 
L 68.99311 91.095114 
C 68.962887 91.652545 68.962887 92.211205 68.99311 92.768636 
C 69.023333 93.326066 69.083735 93.881451 69.17405 94.432346 
z
" clip-path="url(#p35e4be3659)" style="fill: #1f77b4; opacity: 0.5; stroke: #1f77b4; stroke-linejoin: miter"/>
   </g>
   <g id="patch_11">
    <path d="M 84.42625 91.931875 
C 84.42625 91.931875 84.42625 91.931875 84.42625 91.931875 
C 84.42625 91.931875 84.42625 91.931875 84.42625 91.931875 
L 74.116097 89.069275 
C 74.012703 89.441668 73.92956 89.81939 73.867034 90.200779 
C 73.804509 90.582169 73.762692 90.966666 73.741769 91.352579 
z
" clip-path="url(#p35e4be3659)" style="fill: #1f77b4; opacity: 0.5; stroke: #1f77b4; stroke-linejoin: miter"/>
   </g>
   <g id="patch_12">
    <path d="M 84.42625 91.931875 
C 84.42625 91.931875 84.42625 91.931875 84.42625 91.931875 
C 84.42625 91.931875 84.42625 91.931875 84.42625 91.931875 
L 78.123761 88.590507 
C 78.003074 88.818147 77.894809 89.052159 77.799442 89.291513 
C 77.704074 89.530867 77.621744 89.775213 77.552815 90.023475 
z
" clip-path="url(#p35e4be3659)" style="fill: #1f77b4; opacity: 0.5; stroke: #1f77b4; stroke-linejoin: miter"/>
   </g>
   <g id="patch_13">
    <path d="M 84.42625 91.931875 
C 84.42625 91.931875 84.42625 91.931875 84.42625 91.931875 
C 84.42625 91.931875 84.42625 91.931875 84.42625 91.931875 
L 75.364842 84.235046 
C 75.08684 84.562336 74.826774 84.904447 74.585787 85.259876 
C 74.344801 85.615304 74.123248 85.983528 73.922102 86.362928 
z
" clip-path="url(#p35e4be3659)" style="fill: #1f77b4; opacity: 0.5; stroke: #1f77b4; stroke-linejoin: miter"/>
   </g>
   <g id="patch_14">
    <path d="M 84.42625 91.931875 
C 84.42625 91.931875 84.42625 91.931875 84.42625 91.931875 
C 84.42625 91.931875 84.42625 91.931875 84.42625 91.931875 
L 77.231284 82.467059 
C 76.889423 82.726935 76.561893 83.005141 76.250134 83.300455 
C 75.938375 83.595769 75.642845 83.907756 75.364842 84.235046 
z
" clip-path="url(#p35e4be3659)" style="fill: #1f77b4; opacity: 0.5; stroke: #1f77b4; stroke-linejoin: miter"/>
   </g>
   <g id="patch_15">
    <path d="M 84.42625 91.931875 
C 84.42625 91.931875 84.42625 91.931875 84.42625 91.931875 
C 84.42625 91.931875 84.42625 91.931875 84.42625 91.931875 
L 78.435735 78.983588 
C 77.968054 79.19996 77.51244 79.441512 77.070895 79.70718 
C 76.62935 79.972849 76.202523 80.262245 75.792291 80.574096 
z
" clip-path="url(#p35e4be3659)" style="fill: #1f77b4; opacity: 0.5; stroke: #1f77b4; stroke-linejoin: miter"/>
   </g>
   <g id="patch_16">
    <path d="M 84.42625 91.931875 
C 84.42625 91.931875 84.42625 91.931875 84.42625 91.931875 
C 84.42625 91.931875 84.42625 91.931875 84.42625 91.931875 
L 81.359288 77.998528 
C 80.856029 78.109304 80.35914 78.247265 79.870807 78.411803 
C 79.382475 78.576341 78.903415 78.767216 78.435735 78.983588 
z
" clip-path="url(#p35e4be3659)" style="fill: #1f77b4; opacity: 0.5; stroke: #1f77b4; stroke-linejoin: miter"/>
   </g>
   <g id="patch_17">
    <path d="M 84.42625 91.931875 
C 84.42625 91.931875 84.42625 91.931875 84.42625 91.931875 
C 84.42625 91.931875 84.42625 91.931875 84.42625 91.931875 
L 84.42625 43.186637 
C 82.665617 43.186637 80.906275 43.282026 79.155963 43.472384 
C 77.40565 43.662742 75.666936 43.947789 73.947465 44.326273 
z
" clip-path="url(#p35e4be3659)" style="fill: #1f77b4; opacity: 0.5; stroke: #1f77b4; stroke-linejoin: miter"/>
   </g>
   <g id="patch_18">
    <path d="M 84.42625 91.931875 
C 84.42625 91.931875 84.42625 91.931875 84.42625 91.931875 
C 84.42625 91.931875 84.42625 91.931875 84.42625 91.931875 
L 88.004372 75.676304 
C 87.417235 75.547065 86.823528 75.449732 86.22586 75.384732 
C 85.628193 75.319731 85.027442 75.28716 84.42625 75.28716 
z
" clip-path="url(#p35e4be3659)" style="fill: #1f77b4; opacity: 0.5; stroke: #1f77b4; stroke-linejoin: miter"/>
   </g>
   <g id="patch_19">
    <path d="M 84.42625 91.931875 
C 84.42625 91.931875 84.42625 91.931875 84.42625 91.931875 
C 84.42625 91.931875 84.42625 91.931875 84.42625 91.931875 
L 87.920717 84.378708 
C 87.647904 84.252491 87.368452 84.141147 87.083592 84.045166 
C 86.798731 83.949186 86.508879 83.868709 86.215311 83.804089 
z
" clip-path="url(#p35e4be3659)" style="fill: #1f77b4; opacity: 0.5; stroke: #1f77b4; stroke-linejoin: miter"/>
   </g>
   <g id="patch_20">
    <path d="M 84.42625 91.931875 
C 84.42625 91.931875 84.42625 91.931875 84.42625 91.931875 
C 84.42625 91.931875 84.42625 91.931875 84.42625 91.931875 
L 85.145747 90.985393 
C 85.111561 90.959406 85.075992 90.935289 85.039196 90.91315 
C 85.002401 90.891011 84.964433 90.870882 84.92546 90.852851 
z
" clip-path="url(#p35e4be3659)" style="fill: #1f77b4; opacity: 0.5; stroke: #1f77b4; stroke-linejoin: miter"/>
   </g>
   <g id="patch_21">
    <path d="M 84.42625 91.931875 
C 84.42625 91.931875 84.42625 91.931875 84.42625 91.931875 
C 84.42625 91.931875 84.42625 91.931875 84.42625 91.931875 
L 88.050813 88.853143 
C 87.939612 88.722228 87.8214 88.597432 87.696696 88.479307 
C 87.571993 88.361181 87.440981 88.249899 87.304236 88.145949 
z
" clip-path="url(#p35e4be3659)" style="fill: #1f77b4; opacity: 0.5; stroke: #1f77b4; stroke-linejoin: miter"/>
   </g>
   <g id="patch_22">
    <path d="M 84.42625 91.931875 
C 84.42625 91.931875 84.42625 91.931875 84.42625 91.931875 
C 84.42625 91.931875 84.42625 91.931875 84.42625 91.931875 
L 99.132057 84.13535 
C 98.850453 83.604189 98.540279 83.088676 98.202898 82.591076 
C 97.865517 82.093476 97.501424 81.61452 97.112221 81.156315 
z
" clip-path="url(#p35e4be3659)" style="fill: #1f77b4; opacity: 0.5; stroke: #1f77b4; stroke-linejoin: miter"/>
   </g>
   <g id="patch_23">
    <path d="M 84.42625 91.931875 
C 84.42625 91.931875 84.42625 91.931875 84.42625 91.931875 
C 84.42625 91.931875 84.42625 91.931875 84.42625 91.931875 
L 89.00854 90.659608 
C 88.962587 90.4941 88.907701 90.331203 88.844122 90.171634 
C 88.780544 90.012064 88.708367 89.856056 88.627909 89.704296 
z
" clip-path="url(#p35e4be3659)" style="fill: #1f77b4; opacity: 0.5; stroke: #1f77b4; stroke-linejoin: miter"/>
   </g>
   <g id="patch_24">
    <path d="M 84.42625 91.931875 
C 84.42625 91.931875 84.42625 91.931875 84.42625 91.931875 
C 84.42625 91.931875 84.42625 91.931875 84.42625 91.931875 
L 98.672225 91.159481 
C 98.644327 90.644929 98.588572 90.132267 98.505204 89.623748 
C 98.421837 89.115229 98.31098 88.6116 98.17312 88.115075 
z
" clip-path="url(#p35e4be3659)" style="fill: #1f77b4; opacity: 0.5; stroke: #1f77b4; stroke-linejoin: miter"/>
   </g>
   <g id="patch_25">
    <path d="M 84.42625 91.931875 
C 84.42625 91.931875 84.42625 91.931875 84.42625 91.931875 
C 84.42625 91.931875 84.42625 91.931875 84.42625 91.931875 
L 97.331958 94.047658 
C 97.408378 93.581516 97.459487 93.111575 97.485061 92.639903 
C 97.510634 92.168231 97.510634 91.695519 97.485061 91.223847 
z
" clip-path="url(#p35e4be3659)" style="fill: #1f77b4; opacity: 0.5; stroke: #1f77b4; stroke-linejoin: miter"/>
   </g>
   <g id="patch_26">
    <path d="M 84.42625 91.931875 
C 84.42625 91.931875 84.42625 91.931875 84.42625 91.931875 
C 84.42625 91.931875 84.42625 91.931875 84.42625 91.931875 
L 87.739654 93.252056 
C 87.787338 93.132379 87.828503 93.010206 87.862968 92.886075 
C 87.897432 92.761944 87.925147 92.636037 87.945989 92.508907 
z
" clip-path="url(#p35e4be3659)" style="fill: #1f77b4; opacity: 0.5; stroke: #1f77b4; stroke-linejoin: miter"/>
   </g>
   <g id="patch_27">
    <path d="M 84.42625 91.931875 
C 84.42625 91.931875 84.42625 91.931875 84.42625 91.931875 
C 84.42625 91.931875 84.42625 91.931875 84.42625 91.931875 
L 85.410296 92.599075 
C 85.434395 92.563532 85.45655 92.52671 85.476665 92.48877 
C 85.496779 92.45083 85.514824 92.411828 85.530718 92.371935 
z
" clip-path="url(#p35e4be3659)" style="fill: #1f77b4; opacity: 0.5; stroke: #1f77b4; stroke-linejoin: miter"/>
   </g>
   <g id="patch_28">
    <path d="M 84.42625 91.931875 
C 84.42625 91.931875 84.42625 91.931875 84.42625 91.931875 
C 84.42625 91.931875 84.42625 91.931875 84.42625 91.931875 
L 87.696696 95.384443 
C 87.8214 95.266318 87.939612 95.141522 88.050813 95.010607 
C 88.162014 94.879691 88.26604 94.742846 88.362435 94.600675 
z
" clip-path="url(#p35e4be3659)" style="fill: #1f77b4; opacity: 0.5; stroke: #1f77b4; stroke-linejoin: miter"/>
   </g>
   <g id="patch_29">
    <path d="M 84.42625 91.931875 
C 84.42625 91.931875 84.42625 91.931875 84.42625 91.931875 
C 84.42625 91.931875 84.42625 91.931875 84.42625 91.931875 
L 87.490981 97.025498 
C 87.674958 96.914803 87.852803 96.794221 88.023733 96.664283 
C 88.194663 96.534345 88.358428 96.395242 88.514308 96.247585 
z
" clip-path="url(#p35e4be3659)" style="fill: #1f77b4; opacity: 0.5; stroke: #1f77b4; stroke-linejoin: miter"/>
   </g>
   <g id="patch_30">
    <path d="M 84.42625 91.931875 
C 84.42625 91.931875 84.42625 91.931875 84.42625 91.931875 
C 84.42625 91.931875 84.42625 91.931875 84.42625 91.931875 
L 87.083592 99.818584 
C 87.368452 99.722603 87.647904 99.611259 87.920717 99.485042 
C 88.193531 99.358825 88.459306 99.21792 88.716874 99.062947 
z
" clip-path="url(#p35e4be3659)" style="fill: #1f77b4; opacity: 0.5; stroke: #1f77b4; stroke-linejoin: miter"/>
   </g>
   <g id="patch_31">
    <path d="M 84.42625 91.931875 
C 84.42625 91.931875 84.42625 91.931875 84.42625 91.931875 
C 84.42625 91.931875 84.42625 91.931875 84.42625 91.931875 
L 86.22586 108.479018 
C 86.823528 108.414018 87.417235 108.316685 88.004372 108.187446 
C 88.591508 108.058208 89.171212 107.897254 89.740933 107.705292 
z
" clip-path="url(#p35e4be3659)" style="fill: #1f77b4; opacity: 0.5; stroke: #1f77b4; stroke-linejoin: miter"/>
   </g>
   <g id="matplotlib.axis_1">
    <g id="xtick_1">
     <g id="line2d_1">
      <path d="M 84.42625 91.931875 
L 84.42625 40.749375 
" clip-path="url(#p35e4be3659)" style="fill: none; stroke: #b0b0b0; stroke-width: 0.8; stroke-linecap: square"/>
     </g>
     <g id="text_1">
      <!-- 0° -->
      <g transform="translate(78.745 29.50875) scale(0.1 -0.1)">
       <defs>
        <path id="DejaVuSans-30" d="M 2034 4250 
Q 1547 4250 1301 3770 
Q 1056 3291 1056 2328 
Q 1056 1369 1301 889 
Q 1547 409 2034 409 
Q 2525 409 2770 889 
Q 3016 1369 3016 2328 
Q 3016 3291 2770 3770 
Q 2525 4250 2034 4250 
z
M 2034 4750 
Q 2819 4750 3233 4129 
Q 3647 3509 3647 2328 
Q 3647 1150 3233 529 
Q 2819 -91 2034 -91 
Q 1250 -91 836 529 
Q 422 1150 422 2328 
Q 422 3509 836 4129 
Q 1250 4750 2034 4750 
z
" transform="scale(0.015625)"/>
        <path id="DejaVuSans-b0" d="M 1600 4347 
Q 1350 4347 1178 4173 
Q 1006 4000 1006 3750 
Q 1006 3503 1178 3333 
Q 1350 3163 1600 3163 
Q 1850 3163 2022 3333 
Q 2194 3503 2194 3750 
Q 2194 3997 2020 4172 
Q 1847 4347 1600 4347 
z
M 1600 4750 
Q 1800 4750 1984 4673 
Q 2169 4597 2303 4453 
Q 2447 4313 2519 4134 
Q 2591 3956 2591 3750 
Q 2591 3338 2302 3052 
Q 2013 2766 1594 2766 
Q 1172 2766 890 3047 
Q 609 3328 609 3750 
Q 609 4169 896 4459 
Q 1184 4750 1600 4750 
z
" transform="scale(0.015625)"/>
       </defs>
       <use xlink:href="#DejaVuSans-30"/>
       <use xlink:href="#DejaVuSans-b0" transform="translate(63.623047 0)"/>
      </g>
     </g>
    </g>
    <g id="xtick_2">
     <g id="line2d_2">
      <path d="M 84.42625 91.931875 
L 120.617743 55.740382 
" clip-path="url(#p35e4be3659)" style="fill: none; stroke: #b0b0b0; stroke-width: 0.8; stroke-linecap: square"/>
     </g>
     <g id="text_2">
      <!-- 45° -->
      <g transform="translate(121.654738 48.600262) scale(0.1 -0.1)">
       <defs>
        <path id="DejaVuSans-34" d="M 2419 4116 
L 825 1625 
L 2419 1625 
L 2419 4116 
z
M 2253 4666 
L 3047 4666 
L 3047 1625 
L 3713 1625 
L 3713 1100 
L 3047 1100 
L 3047 0 
L 2419 0 
L 2419 1100 
L 313 1100 
L 313 1709 
L 2253 4666 
z
" transform="scale(0.015625)"/>
        <path id="DejaVuSans-35" d="M 691 4666 
L 3169 4666 
L 3169 4134 
L 1269 4134 
L 1269 2991 
Q 1406 3038 1543 3061 
Q 1681 3084 1819 3084 
Q 2600 3084 3056 2656 
Q 3513 2228 3513 1497 
Q 3513 744 3044 326 
Q 2575 -91 1722 -91 
Q 1428 -91 1123 -41 
Q 819 9 494 109 
L 494 744 
Q 775 591 1075 516 
Q 1375 441 1709 441 
Q 2250 441 2565 725 
Q 2881 1009 2881 1497 
Q 2881 1984 2565 2268 
Q 2250 2553 1709 2553 
Q 1456 2553 1204 2497 
Q 953 2441 691 2322 
L 691 4666 
z
" transform="scale(0.015625)"/>
       </defs>
       <use xlink:href="#DejaVuSans-34"/>
       <use xlink:href="#DejaVuSans-35" transform="translate(63.623047 0)"/>
       <use xlink:href="#DejaVuSans-b0" transform="translate(127.246094 0)"/>
      </g>
     </g>
    </g>
    <g id="xtick_3">
     <g id="line2d_3">
      <path d="M 84.42625 91.931875 
L 135.60875 91.931875 
" clip-path="url(#p35e4be3659)" style="fill: none; stroke: #b0b0b0; stroke-width: 0.8; stroke-linecap: square"/>
     </g>
     <g id="text_3">
      <!-- 90° -->
      <g transform="translate(140.74625 94.69125) scale(0.1 -0.1)">
       <defs>
        <path id="DejaVuSans-39" d="M 703 97 
L 703 672 
Q 941 559 1184 500 
Q 1428 441 1663 441 
Q 2288 441 2617 861 
Q 2947 1281 2994 2138 
Q 2813 1869 2534 1725 
Q 2256 1581 1919 1581 
Q 1219 1581 811 2004 
Q 403 2428 403 3163 
Q 403 3881 828 4315 
Q 1253 4750 1959 4750 
Q 2769 4750 3195 4129 
Q 3622 3509 3622 2328 
Q 3622 1225 3098 567 
Q 2575 -91 1691 -91 
Q 1453 -91 1209 -44 
Q 966 3 703 97 
z
M 1959 2075 
Q 2384 2075 2632 2365 
Q 2881 2656 2881 3163 
Q 2881 3666 2632 3958 
Q 2384 4250 1959 4250 
Q 1534 4250 1286 3958 
Q 1038 3666 1038 3163 
Q 1038 2656 1286 2365 
Q 1534 2075 1959 2075 
z
" transform="scale(0.015625)"/>
       </defs>
       <use xlink:href="#DejaVuSans-39"/>
       <use xlink:href="#DejaVuSans-30" transform="translate(63.623047 0)"/>
       <use xlink:href="#DejaVuSans-b0" transform="translate(127.246094 0)"/>
      </g>
     </g>
    </g>
    <g id="xtick_4">
     <g id="line2d_4">
      <path d="M 84.42625 91.931875 
L 120.617743 128.123368 
" clip-path="url(#p35e4be3659)" style="fill: none; stroke: #b0b0b0; stroke-width: 0.8; stroke-linecap: square"/>
     </g>
     <g id="text_4">
      <!-- 135° -->
      <g transform="translate(118.473488 140.782238) scale(0.1 -0.1)">
       <defs>
        <path id="DejaVuSans-31" d="M 794 531 
L 1825 531 
L 1825 4091 
L 703 3866 
L 703 4441 
L 1819 4666 
L 2450 4666 
L 2450 531 
L 3481 531 
L 3481 0 
L 794 0 
L 794 531 
z
" transform="scale(0.015625)"/>
        <path id="DejaVuSans-33" d="M 2597 2516 
Q 3050 2419 3304 2112 
Q 3559 1806 3559 1356 
Q 3559 666 3084 287 
Q 2609 -91 1734 -91 
Q 1441 -91 1130 -33 
Q 819 25 488 141 
L 488 750 
Q 750 597 1062 519 
Q 1375 441 1716 441 
Q 2309 441 2620 675 
Q 2931 909 2931 1356 
Q 2931 1769 2642 2001 
Q 2353 2234 1838 2234 
L 1294 2234 
L 1294 2753 
L 1863 2753 
Q 2328 2753 2575 2939 
Q 2822 3125 2822 3475 
Q 2822 3834 2567 4026 
Q 2313 4219 1838 4219 
Q 1578 4219 1281 4162 
Q 984 4106 628 3988 
L 628 4550 
Q 988 4650 1302 4700 
Q 1616 4750 1894 4750 
Q 2613 4750 3031 4423 
Q 3450 4097 3450 3541 
Q 3450 3153 3228 2886 
Q 3006 2619 2597 2516 
z
" transform="scale(0.015625)"/>
       </defs>
       <use xlink:href="#DejaVuSans-31"/>
       <use xlink:href="#DejaVuSans-33" transform="translate(63.623047 0)"/>
       <use xlink:href="#DejaVuSans-35" transform="translate(127.246094 0)"/>
       <use xlink:href="#DejaVuSans-b0" transform="translate(190.869141 0)"/>
      </g>
     </g>
    </g>
    <g id="xtick_5">
     <g id="line2d_5">
      <path d="M 84.42625 91.931875 
L 84.42625 143.114375 
" clip-path="url(#p35e4be3659)" style="fill: none; stroke: #b0b0b0; stroke-width: 0.8; stroke-linecap: square"/>
     </g>
     <g id="text_5">
      <!-- 180° -->
      <g transform="translate(72.3825 159.87375) scale(0.1 -0.1)">
       <defs>
        <path id="DejaVuSans-38" d="M 2034 2216 
Q 1584 2216 1326 1975 
Q 1069 1734 1069 1313 
Q 1069 891 1326 650 
Q 1584 409 2034 409 
Q 2484 409 2743 651 
Q 3003 894 3003 1313 
Q 3003 1734 2745 1975 
Q 2488 2216 2034 2216 
z
M 1403 2484 
Q 997 2584 770 2862 
Q 544 3141 544 3541 
Q 544 4100 942 4425 
Q 1341 4750 2034 4750 
Q 2731 4750 3128 4425 
Q 3525 4100 3525 3541 
Q 3525 3141 3298 2862 
Q 3072 2584 2669 2484 
Q 3125 2378 3379 2068 
Q 3634 1759 3634 1313 
Q 3634 634 3220 271 
Q 2806 -91 2034 -91 
Q 1263 -91 848 271 
Q 434 634 434 1313 
Q 434 1759 690 2068 
Q 947 2378 1403 2484 
z
M 1172 3481 
Q 1172 3119 1398 2916 
Q 1625 2713 2034 2713 
Q 2441 2713 2670 2916 
Q 2900 3119 2900 3481 
Q 2900 3844 2670 4047 
Q 2441 4250 2034 4250 
Q 1625 4250 1398 4047 
Q 1172 3844 1172 3481 
z
" transform="scale(0.015625)"/>
       </defs>
       <use xlink:href="#DejaVuSans-31"/>
       <use xlink:href="#DejaVuSans-38" transform="translate(63.623047 0)"/>
       <use xlink:href="#DejaVuSans-30" transform="translate(127.246094 0)"/>
       <use xlink:href="#DejaVuSans-b0" transform="translate(190.869141 0)"/>
      </g>
     </g>
    </g>
    <g id="xtick_6">
     <g id="line2d_6">
      <path d="M 84.42625 91.931875 
L 48.234757 128.123368 
" clip-path="url(#p35e4be3659)" style="fill: none; stroke: #b0b0b0; stroke-width: 0.8; stroke-linecap: square"/>
     </g>
     <g id="text_6">
      <!-- 225° -->
      <g transform="translate(26.291512 140.782238) scale(0.1 -0.1)">
       <defs>
        <path id="DejaVuSans-32" d="M 1228 531 
L 3431 531 
L 3431 0 
L 469 0 
L 469 531 
Q 828 903 1448 1529 
Q 2069 2156 2228 2338 
Q 2531 2678 2651 2914 
Q 2772 3150 2772 3378 
Q 2772 3750 2511 3984 
Q 2250 4219 1831 4219 
Q 1534 4219 1204 4116 
Q 875 4013 500 3803 
L 500 4441 
Q 881 4594 1212 4672 
Q 1544 4750 1819 4750 
Q 2544 4750 2975 4387 
Q 3406 4025 3406 3419 
Q 3406 3131 3298 2873 
Q 3191 2616 2906 2266 
Q 2828 2175 2409 1742 
Q 1991 1309 1228 531 
z
" transform="scale(0.015625)"/>
       </defs>
       <use xlink:href="#DejaVuSans-32"/>
       <use xlink:href="#DejaVuSans-32" transform="translate(63.623047 0)"/>
       <use xlink:href="#DejaVuSans-35" transform="translate(127.246094 0)"/>
       <use xlink:href="#DejaVuSans-b0" transform="translate(190.869141 0)"/>
      </g>
     </g>
    </g>
    <g id="xtick_7">
     <g id="line2d_7">
      <path d="M 84.42625 91.931875 
L 33.24375 91.931875 
" clip-path="url(#p35e4be3659)" style="fill: none; stroke: #b0b0b0; stroke-width: 0.8; stroke-linecap: square"/>
     </g>
     <g id="text_7">
      <!-- 270° -->
      <g transform="translate(7.2 94.69125) scale(0.1 -0.1)">
       <defs>
        <path id="DejaVuSans-37" d="M 525 4666 
L 3525 4666 
L 3525 4397 
L 1831 0 
L 1172 0 
L 2766 4134 
L 525 4134 
L 525 4666 
z
" transform="scale(0.015625)"/>
       </defs>
       <use xlink:href="#DejaVuSans-32"/>
       <use xlink:href="#DejaVuSans-37" transform="translate(63.623047 0)"/>
       <use xlink:href="#DejaVuSans-30" transform="translate(127.246094 0)"/>
       <use xlink:href="#DejaVuSans-b0" transform="translate(190.869141 0)"/>
      </g>
     </g>
    </g>
    <g id="xtick_8">
     <g id="line2d_8">
      <path d="M 84.42625 91.931875 
L 48.234757 55.740382 
" clip-path="url(#p35e4be3659)" style="fill: none; stroke: #b0b0b0; stroke-width: 0.8; stroke-linecap: square"/>
     </g>
     <g id="text_8">
      <!-- 315° -->
      <g transform="translate(26.291512 48.600262) scale(0.1 -0.1)">
       <use xlink:href="#DejaVuSans-33"/>
       <use xlink:href="#DejaVuSans-31" transform="translate(63.623047 0)"/>
       <use xlink:href="#DejaVuSans-35" transform="translate(127.246094 0)"/>
       <use xlink:href="#DejaVuSans-b0" transform="translate(190.869141 0)"/>
      </g>
     </g>
    </g>
   </g>
   <g id="matplotlib.axis_2">
    <g id="ytick_1">
     <g id="line2d_9">
      <path d="M 84.42625 78.021976 
C 86.252881 78.021976 88.061751 78.381783 89.749338 79.080804 
C 91.436925 79.779826 92.97041 80.804468 94.262034 82.096091 
C 95.553657 83.387715 96.578299 84.9212 97.277321 86.608787 
C 97.976342 88.296374 98.336149 90.105244 98.336149 91.931875 
C 98.336149 93.758506 97.976342 95.567376 97.277321 97.254963 
C 96.578299 98.94255 95.553657 100.476035 94.262034 101.767659 
C 92.97041 103.059282 91.436925 104.083924 89.749338 104.782946 
C 88.061751 105.481967 86.252881 105.841774 84.42625 105.841774 
C 82.599619 105.841774 80.790749 105.481967 79.103162 104.782946 
C 77.415575 104.083924 75.88209 103.059282 74.590466 101.767659 
C 73.298843 100.476035 72.274201 98.94255 71.575179 97.254963 
C 70.876158 95.567376 70.516351 93.758506 70.516351 91.931875 
C 70.516351 90.105244 70.876158 88.296374 71.575179 86.608787 
C 72.274201 84.9212 73.298843 83.387715 74.590466 82.096091 
C 75.88209 80.804468 77.415575 79.779826 79.103162 79.080804 
C 80.790749 78.381783 82.599619 78.021976 84.42625 78.021976 
" clip-path="url(#p35e4be3659)" style="fill: none; stroke: #b0b0b0; stroke-width: 0.8; stroke-linecap: square"/>
     </g>
    </g>
    <g id="ytick_2">
     <g id="line2d_10">
      <path d="M 84.42625 64.112077 
C 88.079512 64.112077 91.697251 64.83169 95.072426 66.229733 
C 98.4476 67.627776 101.514571 69.677061 104.097818 72.260307 
C 106.681064 74.843554 108.730349 77.910525 110.128392 81.285699 
C 111.526435 84.660874 112.246048 88.278613 112.246048 91.931875 
C 112.246048 95.585137 111.526435 99.202876 110.128392 102.578051 
C 108.730349 105.953225 106.681064 109.020196 104.097818 111.603443 
C 101.514571 114.186689 98.4476 116.235974 95.072426 117.634017 
C 91.697251 119.03206 88.079512 119.751673 84.42625 119.751673 
C 80.772988 119.751673 77.155249 119.03206 73.780074 117.634017 
C 70.4049 116.235974 67.337929 114.186689 64.754682 111.603443 
C 62.171436 109.020196 60.122151 105.953225 58.724108 102.578051 
C 57.326065 99.202876 56.606452 95.585137 56.606452 91.931875 
C 56.606452 88.278613 57.326065 84.660874 58.724108 81.285699 
C 60.122151 77.910525 62.171436 74.843554 64.754682 72.260307 
C 67.337929 69.677061 70.4049 67.627776 73.780074 66.229733 
C 77.155249 64.83169 80.772988 64.112077 84.42625 64.112077 
" clip-path="url(#p35e4be3659)" style="fill: none; stroke: #b0b0b0; stroke-width: 0.8; stroke-linecap: square"/>
     </g>
    </g>
    <g id="ytick_3">
     <g id="line2d_11">
      <path d="M 84.42625 50.202179 
C 89.906144 50.202179 95.332752 51.281598 100.395513 53.378663 
C 105.458275 55.475727 110.058731 58.549654 113.933601 62.424524 
C 117.808471 66.299394 120.882398 70.89985 122.979462 75.962612 
C 125.076527 81.025373 126.155946 86.451981 126.155946 91.931875 
C 126.155946 97.411769 125.076527 102.838377 122.979462 107.901138 
C 120.882398 112.9639 117.808471 117.564356 113.933601 121.439226 
C 110.058731 125.314096 105.458275 128.388023 100.395513 130.485087 
C 95.332752 132.582152 89.906144 133.661571 84.42625 133.661571 
C 78.946356 133.661571 73.519748 132.582152 68.456987 130.485087 
C 63.394225 128.388023 58.793769 125.314096 54.918899 121.439226 
C 51.044029 117.564356 47.970102 112.9639 45.873038 107.901138 
C 43.775973 102.838377 42.696554 97.411769 42.696554 91.931875 
C 42.696554 86.451981 43.775973 81.025373 45.873038 75.962612 
C 47.970102 70.89985 51.044029 66.299394 54.918899 62.424524 
C 58.793769 58.549654 63.394225 55.475727 68.456987 53.378663 
C 73.519748 51.281598 78.946356 50.202179 84.42625 50.202179 
" clip-path="url(#p35e4be3659)" style="fill: none; stroke: #b0b0b0; stroke-width: 0.8; stroke-linecap: square"/>
     </g>
    </g>
   </g>
   <g id="patch_32">
    <path d="M 84.42625 40.749375 
C 77.705026 40.749375 71.049157 42.07331 64.839555 44.645411 
C 58.629954 47.217512 52.98738 50.987759 48.234757 55.740382 
C 43.482134 60.493005 39.711887 66.135579 37.139786 72.34518 
C 34.567685 78.554782 33.24375 85.210651 33.24375 91.931875 
C 33.24375 98.653099 34.567685 105.308968 37.139786 111.51857 
C 39.711887 117.728171 43.482134 123.370745 48.234757 128.123368 
C 52.98738 132.875991 58.629954 136.646238 64.839555 139.218339 
C 71.049157 141.79044 77.705026 143.114375 84.42625 143.114375 
C 91.147474 143.114375 97.803343 141.79044 104.012945 139.218339 
C 110.222546 136.646238 115.86512 132.875991 120.617743 128.123368 
C 125.370366 123.370745 129.140613 117.728171 131.712714 111.51857 
C 134.284815 105.308968 135.60875 98.653099 135.60875 91.931875 
C 135.60875 85.210651 134.284815 78.554782 131.712714 72.34518 
C 129.140613 66.135579 125.370366 60.493005 120.617743 55.740382 
C 115.86512 50.987759 110.222546 47.217512 104.012945 44.645411 
C 97.803343 42.07331 91.147474 40.749375 84.42625 40.749375 
" style="fill: none; stroke: #000000; stroke-width: 0.8; stroke-linejoin: miter; stroke-linecap: square"/>
   </g>
   <g id="text_9">
    <!-- PanShot -->
    <g transform="translate(66.079609 14.038594) scale(0.09 -0.09)">
     <defs>
      <path id="DejaVuSans-50" d="M 1259 4147 
L 1259 2394 
L 2053 2394 
Q 2494 2394 2734 2622 
Q 2975 2850 2975 3272 
Q 2975 3691 2734 3919 
Q 2494 4147 2053 4147 
L 1259 4147 
z
M 628 4666 
L 2053 4666 
Q 2838 4666 3239 4311 
Q 3641 3956 3641 3272 
Q 3641 2581 3239 2228 
Q 2838 1875 2053 1875 
L 1259 1875 
L 1259 0 
L 628 0 
L 628 4666 
z
" transform="scale(0.015625)"/>
      <path id="DejaVuSans-61" d="M 2194 1759 
Q 1497 1759 1228 1600 
Q 959 1441 959 1056 
Q 959 750 1161 570 
Q 1363 391 1709 391 
Q 2188 391 2477 730 
Q 2766 1069 2766 1631 
L 2766 1759 
L 2194 1759 
z
M 3341 1997 
L 3341 0 
L 2766 0 
L 2766 531 
Q 2569 213 2275 61 
Q 1981 -91 1556 -91 
Q 1019 -91 701 211 
Q 384 513 384 1019 
Q 384 1609 779 1909 
Q 1175 2209 1959 2209 
L 2766 2209 
L 2766 2266 
Q 2766 2663 2505 2880 
Q 2244 3097 1772 3097 
Q 1472 3097 1187 3025 
Q 903 2953 641 2809 
L 641 3341 
Q 956 3463 1253 3523 
Q 1550 3584 1831 3584 
Q 2591 3584 2966 3190 
Q 3341 2797 3341 1997 
z
" transform="scale(0.015625)"/>
      <path id="DejaVuSans-6e" d="M 3513 2113 
L 3513 0 
L 2938 0 
L 2938 2094 
Q 2938 2591 2744 2837 
Q 2550 3084 2163 3084 
Q 1697 3084 1428 2787 
Q 1159 2491 1159 1978 
L 1159 0 
L 581 0 
L 581 3500 
L 1159 3500 
L 1159 2956 
Q 1366 3272 1645 3428 
Q 1925 3584 2291 3584 
Q 2894 3584 3203 3211 
Q 3513 2838 3513 2113 
z
" transform="scale(0.015625)"/>
      <path id="DejaVuSans-53" d="M 3425 4513 
L 3425 3897 
Q 3066 4069 2747 4153 
Q 2428 4238 2131 4238 
Q 1616 4238 1336 4038 
Q 1056 3838 1056 3469 
Q 1056 3159 1242 3001 
Q 1428 2844 1947 2747 
L 2328 2669 
Q 3034 2534 3370 2195 
Q 3706 1856 3706 1288 
Q 3706 609 3251 259 
Q 2797 -91 1919 -91 
Q 1588 -91 1214 -16 
Q 841 59 441 206 
L 441 856 
Q 825 641 1194 531 
Q 1563 422 1919 422 
Q 2459 422 2753 634 
Q 3047 847 3047 1241 
Q 3047 1584 2836 1778 
Q 2625 1972 2144 2069 
L 1759 2144 
Q 1053 2284 737 2584 
Q 422 2884 422 3419 
Q 422 4038 858 4394 
Q 1294 4750 2059 4750 
Q 2388 4750 2728 4690 
Q 3069 4631 3425 4513 
z
" transform="scale(0.015625)"/>
      <path id="DejaVuSans-68" d="M 3513 2113 
L 3513 0 
L 2938 0 
L 2938 2094 
Q 2938 2591 2744 2837 
Q 2550 3084 2163 3084 
Q 1697 3084 1428 2787 
Q 1159 2491 1159 1978 
L 1159 0 
L 581 0 
L 581 4863 
L 1159 4863 
L 1159 2956 
Q 1366 3272 1645 3428 
Q 1925 3584 2291 3584 
Q 2894 3584 3203 3211 
Q 3513 2838 3513 2113 
z
" transform="scale(0.015625)"/>
      <path id="DejaVuSans-6f" d="M 1959 3097 
Q 1497 3097 1228 2736 
Q 959 2375 959 1747 
Q 959 1119 1226 758 
Q 1494 397 1959 397 
Q 2419 397 2687 759 
Q 2956 1122 2956 1747 
Q 2956 2369 2687 2733 
Q 2419 3097 1959 3097 
z
M 1959 3584 
Q 2709 3584 3137 3096 
Q 3566 2609 3566 1747 
Q 3566 888 3137 398 
Q 2709 -91 1959 -91 
Q 1206 -91 779 398 
Q 353 888 353 1747 
Q 353 2609 779 3096 
Q 1206 3584 1959 3584 
z
" transform="scale(0.015625)"/>
      <path id="DejaVuSans-74" d="M 1172 4494 
L 1172 3500 
L 2356 3500 
L 2356 3053 
L 1172 3053 
L 1172 1153 
Q 1172 725 1289 603 
Q 1406 481 1766 481 
L 2356 481 
L 2356 0 
L 1766 0 
Q 1100 0 847 248 
Q 594 497 594 1153 
L 594 3053 
L 172 3053 
L 172 3500 
L 594 3500 
L 594 4494 
L 1172 4494 
z
" transform="scale(0.015625)"/>
     </defs>
     <use xlink:href="#DejaVuSans-50"/>
     <use xlink:href="#DejaVuSans-61" transform="translate(55.802734 0)"/>
     <use xlink:href="#DejaVuSans-6e" transform="translate(117.082031 0)"/>
     <use xlink:href="#DejaVuSans-53" transform="translate(180.460938 0)"/>
     <use xlink:href="#DejaVuSans-68" transform="translate(243.9375 0)"/>
     <use xlink:href="#DejaVuSans-6f" transform="translate(307.316406 0)"/>
     <use xlink:href="#DejaVuSans-74" transform="translate(368.498047 0)"/>
    </g>
   </g>
  </g>
  <g id="axes_2">
   <g id="patch_33">
    <path d="M 297.60875 91.931875 
C 297.60875 85.210651 296.284815 78.554782 293.712714 72.34518 
C 291.140613 66.135579 287.370366 60.493005 282.617743 55.740382 
C 277.86512 50.987759 272.222546 47.217512 266.012945 44.645411 
C 259.803343 42.07331 253.147474 40.749375 246.42625 40.749375 
C 239.705026 40.749375 233.049157 42.07331 226.839555 44.645411 
C 220.629954 47.217512 214.98738 50.987759 210.234757 55.740382 
C 205.482134 60.493005 201.711887 66.135579 199.139786 72.34518 
C 196.567685 78.554782 195.24375 85.210651 195.24375 91.931875 
C 195.24375 98.653099 196.567685 105.308968 199.139786 111.51857 
C 201.711887 117.728171 205.482134 123.370745 210.234757 128.123368 
C 214.98738 132.875991 220.629954 136.646238 226.839555 139.218339 
C 233.049157 141.79044 239.705026 143.114375 246.42625 143.114375 
C 253.147474 143.114375 259.803343 141.79044 266.012945 139.218339 
C 272.222546 136.646238 277.86512 132.875991 282.617743 128.123368 
C 287.370366 123.370745 291.140613 117.728171 293.712714 111.51857 
C 296.284815 105.308968 297.60875 98.653099 297.60875 91.931875 
M 246.42625 91.931875 
C 246.42625 91.931875 246.42625 91.931875 246.42625 91.931875 
C 246.42625 91.931875 246.42625 91.931875 246.42625 91.931875 
C 246.42625 91.931875 246.42625 91.931875 246.42625 91.931875 
C 246.42625 91.931875 246.42625 91.931875 246.42625 91.931875 
C 246.42625 91.931875 246.42625 91.931875 246.42625 91.931875 
C 246.42625 91.931875 246.42625 91.931875 246.42625 91.931875 
C 246.42625 91.931875 246.42625 91.931875 246.42625 91.931875 
C 246.42625 91.931875 246.42625 91.931875 246.42625 91.931875 
C 246.42625 91.931875 246.42625 91.931875 246.42625 91.931875 
C 246.42625 91.931875 246.42625 91.931875 246.42625 91.931875 
C 246.42625 91.931875 246.42625 91.931875 246.42625 91.931875 
C 246.42625 91.931875 246.42625 91.931875 246.42625 91.931875 
C 246.42625 91.931875 246.42625 91.931875 246.42625 91.931875 
C 246.42625 91.931875 246.42625 91.931875 246.42625 91.931875 
C 246.42625 91.931875 246.42625 91.931875 246.42625 91.931875 
C 246.42625 91.931875 246.42625 91.931875 246.42625 91.931875 
z
" style="fill: #ffffff"/>
   </g>
   <g id="patch_34">
    <path d="M 246.42625 91.931875 
C 246.42625 91.931875 246.42625 91.931875 246.42625 91.931875 
C 246.42625 91.931875 246.42625 91.931875 246.42625 91.931875 
L 246.133456 94.624069 
C 246.230696 94.634644 246.328437 94.639944 246.42625 94.639944 
C 246.524063 94.639944 246.621804 94.634644 246.719044 94.624069 
z
" clip-path="url(#p026521fbee)" style="fill: #ff7f0e; opacity: 0.5; stroke: #ff7f0e; stroke-linejoin: miter"/>
   </g>
   <g id="patch_35">
    <path d="M 246.42625 91.931875 
C 246.42625 91.931875 246.42625 91.931875 246.42625 91.931875 
C 246.42625 91.931875 246.42625 91.931875 246.42625 91.931875 
L 246.13802 92.787312 
C 246.168917 92.797722 246.200356 92.806451 246.232198 92.81346 
C 246.26404 92.820469 246.296239 92.825748 246.328652 92.829273 
z
" clip-path="url(#p026521fbee)" style="fill: #ff7f0e; opacity: 0.5; stroke: #ff7f0e; stroke-linejoin: miter"/>
   </g>
   <g id="patch_36">
    <path d="M 246.42625 91.931875 
C 246.42625 91.931875 246.42625 91.931875 246.42625 91.931875 
C 246.42625 91.931875 246.42625 91.931875 246.42625 91.931875 
L 246.42625 91.931875 
C 246.42625 91.931875 246.42625 91.931875 246.42625 91.931875 
C 246.42625 91.931875 246.42625 91.931875 246.42625 91.931875 
z
" clip-path="url(#p026521fbee)" style="fill: #ff7f0e; opacity: 0.5; stroke: #ff7f0e; stroke-linejoin: miter"/>
   </g>
   <g id="patch_37">
    <path d="M 246.42625 91.931875 
C 246.42625 91.931875 246.42625 91.931875 246.42625 91.931875 
C 246.42625 91.931875 246.42625 91.931875 246.42625 91.931875 
L 245.184692 93.242572 
C 245.232033 93.287416 245.281769 93.329662 245.333681 93.369125 
C 245.385593 93.408587 245.439605 93.445209 245.49548 93.478827 
z
" clip-path="url(#p026521fbee)" style="fill: #ff7f0e; opacity: 0.5; stroke: #ff7f0e; stroke-linejoin: miter"/>
   </g>
   <g id="patch_38">
    <path d="M 246.42625 91.931875 
C 246.42625 91.931875 246.42625 91.931875 246.42625 91.931875 
C 246.42625 91.931875 246.42625 91.931875 246.42625 91.931875 
L 244.931958 92.94503 
C 244.968552 92.999003 245.008043 93.050953 245.050258 93.100653 
C 245.092474 93.150352 245.137351 93.197728 245.184692 93.242572 
z
" clip-path="url(#p026521fbee)" style="fill: #ff7f0e; opacity: 0.5; stroke: #ff7f0e; stroke-linejoin: miter"/>
   </g>
   <g id="patch_39">
    <path d="M 246.42625 91.931875 
C 246.42625 91.931875 246.42625 91.931875 246.42625 91.931875 
C 246.42625 91.931875 246.42625 91.931875 246.42625 91.931875 
L 245.587672 92.265995 
C 245.59974 92.296284 245.613441 92.325896 245.628713 92.354702 
C 245.643985 92.383509 245.660807 92.411466 245.679104 92.438453 
z
" clip-path="url(#p026521fbee)" style="fill: #ff7f0e; opacity: 0.5; stroke: #ff7f0e; stroke-linejoin: miter"/>
   </g>
   <g id="patch_40">
    <path d="M 246.42625 91.931875 
C 246.42625 91.931875 246.42625 91.931875 246.42625 91.931875 
C 246.42625 91.931875 246.42625 91.931875 246.42625 91.931875 
L 242.863058 92.516031 
C 242.884157 92.64473 242.912213 92.772192 242.947104 92.897855 
C 242.981994 93.023519 243.023667 93.1472 243.07194 93.268354 
z
" clip-path="url(#p026521fbee)" style="fill: #ff7f0e; opacity: 0.5; stroke: #ff7f0e; stroke-linejoin: miter"/>
   </g>
   <g id="patch_41">
    <path d="M 246.42625 91.931875 
C 246.42625 91.931875 246.42625 91.931875 246.42625 91.931875 
C 246.42625 91.931875 246.42625 91.931875 246.42625 91.931875 
L 237.412593 91.443169 
C 237.394941 91.768734 237.394941 92.095016 237.412593 92.420581 
C 237.430244 92.746146 237.465522 93.070516 237.51827 93.392264 
z
" clip-path="url(#p026521fbee)" style="fill: #ff7f0e; opacity: 0.5; stroke: #ff7f0e; stroke-linejoin: miter"/>
   </g>
   <g id="patch_42">
    <path d="M 246.42625 91.931875 
C 246.42625 91.931875 246.42625 91.931875 246.42625 91.931875 
C 246.42625 91.931875 246.42625 91.931875 246.42625 91.931875 
L 240.337744 90.24141 
C 240.276686 90.461321 240.227587 90.684379 240.190664 90.909603 
C 240.15374 91.134826 240.129046 91.361885 240.11669 91.589781 
z
" clip-path="url(#p026521fbee)" style="fill: #ff7f0e; opacity: 0.5; stroke: #ff7f0e; stroke-linejoin: miter"/>
   </g>
   <g id="patch_43">
    <path d="M 246.42625 91.931875 
C 246.42625 91.931875 246.42625 91.931875 246.42625 91.931875 
C 246.42625 91.931875 246.42625 91.931875 246.42625 91.931875 
L 240.045953 88.549256 
C 239.923776 88.779706 239.814174 89.016607 239.717629 89.258916 
C 239.621084 89.501225 239.537738 89.748587 239.467958 89.999915 
z
" clip-path="url(#p026521fbee)" style="fill: #ff7f0e; opacity: 0.5; stroke: #ff7f0e; stroke-linejoin: miter"/>
   </g>
   <g id="patch_44">
    <path d="M 246.42625 91.931875 
C 246.42625 91.931875 246.42625 91.931875 246.42625 91.931875 
C 246.42625 91.931875 246.42625 91.931875 246.42625 91.931875 
L 244.362263 90.178708 
C 244.29894 90.253258 244.239703 90.331183 244.184811 90.412142 
C 244.12992 90.493101 244.079455 90.576974 244.033639 90.663393 
z
" clip-path="url(#p026521fbee)" style="fill: #ff7f0e; opacity: 0.5; stroke: #ff7f0e; stroke-linejoin: miter"/>
   </g>
   <g id="patch_45">
    <path d="M 246.42625 91.931875 
C 246.42625 91.931875 246.42625 91.931875 246.42625 91.931875 
C 246.42625 91.931875 246.42625 91.931875 246.42625 91.931875 
L 240.417121 84.027001 
C 240.131604 84.244045 239.858056 84.476399 239.597679 84.723041 
C 239.337303 84.969682 239.09048 85.23025 238.858297 85.503598 
z
" clip-path="url(#p026521fbee)" style="fill: #ff7f0e; opacity: 0.5; stroke: #ff7f0e; stroke-linejoin: miter"/>
   </g>
   <g id="patch_46">
    <path d="M 246.42625 91.931875 
C 246.42625 91.931875 246.42625 91.931875 246.42625 91.931875 
C 246.42625 91.931875 246.42625 91.931875 246.42625 91.931875 
L 235.055364 67.354108 
C 234.167638 67.764814 233.302814 68.223315 232.464697 68.727593 
C 231.626579 69.231872 230.816398 69.781188 230.037716 70.373127 
z
" clip-path="url(#p026521fbee)" style="fill: #ff7f0e; opacity: 0.5; stroke: #ff7f0e; stroke-linejoin: miter"/>
   </g>
   <g id="patch_47">
    <path d="M 246.42625 91.931875 
C 246.42625 91.931875 246.42625 91.931875 246.42625 91.931875 
C 246.42625 91.931875 246.42625 91.931875 246.42625 91.931875 
L 240.216599 63.721148 
C 239.197654 63.945435 238.191608 64.224762 237.202885 64.557902 
C 236.214162 64.891042 235.244214 65.277504 234.297305 65.715591 
z
" clip-path="url(#p026521fbee)" style="fill: #ff7f0e; opacity: 0.5; stroke: #ff7f0e; stroke-linejoin: miter"/>
   </g>
   <g id="patch_48">
    <path d="M 246.42625 91.931875 
C 246.42625 91.931875 246.42625 91.931875 246.42625 91.931875 
C 246.42625 91.931875 246.42625 91.931875 246.42625 91.931875 
L 246.42625 43.186637 
C 244.665617 43.186637 242.906275 43.282026 241.155963 43.472384 
C 239.40565 43.662742 237.666936 43.947789 235.947465 44.326273 
z
" clip-path="url(#p026521fbee)" style="fill: #ff7f0e; opacity: 0.5; stroke: #ff7f0e; stroke-linejoin: miter"/>
   </g>
   <g id="patch_49">
    <path d="M 246.42625 91.931875 
C 246.42625 91.931875 246.42625 91.931875 246.42625 91.931875 
C 246.42625 91.931875 246.42625 91.931875 246.42625 91.931875 
L 253.412107 60.194807 
C 252.265793 59.942485 251.10665 59.752453 249.939775 59.625547 
C 248.7729 59.498642 247.600006 59.43505 246.42625 59.43505 
z
" clip-path="url(#p026521fbee)" style="fill: #ff7f0e; opacity: 0.5; stroke: #ff7f0e; stroke-linejoin: miter"/>
   </g>
   <g id="patch_50">
    <path d="M 246.42625 91.931875 
C 246.42625 91.931875 246.42625 91.931875 246.42625 91.931875 
C 246.42625 91.931875 246.42625 91.931875 246.42625 91.931875 
L 253.248781 77.185215 
C 252.716146 76.938791 252.17055 76.721406 251.614393 76.534015 
C 251.058236 76.346624 250.492335 76.189503 249.919178 76.063341 
z
" clip-path="url(#p026521fbee)" style="fill: #ff7f0e; opacity: 0.5; stroke: #ff7f0e; stroke-linejoin: miter"/>
   </g>
   <g id="patch_51">
    <path d="M 246.42625 91.931875 
C 246.42625 91.931875 246.42625 91.931875 246.42625 91.931875 
C 246.42625 91.931875 246.42625 91.931875 246.42625 91.931875 
L 250.250241 86.901501 
C 250.068549 86.763381 249.879506 86.635208 249.683946 86.517543 
C 249.488385 86.399878 249.286593 86.292894 249.079457 86.197063 
z
" clip-path="url(#p026521fbee)" style="fill: #ff7f0e; opacity: 0.5; stroke: #ff7f0e; stroke-linejoin: miter"/>
   </g>
   <g id="patch_52">
    <path d="M 246.42625 91.931875 
C 246.42625 91.931875 246.42625 91.931875 246.42625 91.931875 
C 246.42625 91.931875 246.42625 91.931875 246.42625 91.931875 
L 250.554225 88.425542 
C 250.427579 88.276443 250.292948 88.134315 250.150925 87.999784 
C 250.008901 87.865252 249.859693 87.738513 249.703957 87.620125 
z
" clip-path="url(#p026521fbee)" style="fill: #ff7f0e; opacity: 0.5; stroke: #ff7f0e; stroke-linejoin: miter"/>
   </g>
   <g id="patch_53">
    <path d="M 246.42625 91.931875 
C 246.42625 91.931875 246.42625 91.931875 246.42625 91.931875 
C 246.42625 91.931875 246.42625 91.931875 246.42625 91.931875 
L 247.223787 91.509048 
C 247.208515 91.480241 247.191693 91.452284 247.173396 91.425297 
C 247.155099 91.398311 247.135353 91.372336 247.114246 91.347486 
z
" clip-path="url(#p026521fbee)" style="fill: #ff7f0e; opacity: 0.5; stroke: #ff7f0e; stroke-linejoin: miter"/>
   </g>
   <g id="patch_54">
    <path d="M 246.42625 91.931875 
C 246.42625 91.931875 246.42625 91.931875 246.42625 91.931875 
C 246.42625 91.931875 246.42625 91.931875 246.42625 91.931875 
L 249.905396 90.965895 
C 249.870506 90.840231 249.828833 90.71655 249.78056 90.595396 
C 249.732288 90.474241 249.677487 90.355791 249.616399 90.240565 
z
" clip-path="url(#p026521fbee)" style="fill: #ff7f0e; opacity: 0.5; stroke: #ff7f0e; stroke-linejoin: miter"/>
   </g>
   <g id="patch_55">
    <path d="M 246.42625 91.931875 
C 246.42625 91.931875 246.42625 91.931875 246.42625 91.931875 
C 246.42625 91.931875 246.42625 91.931875 246.42625 91.931875 
L 250.933079 91.687522 
C 250.924253 91.524739 250.906614 91.362554 250.88024 91.20168 
C 250.853866 91.040806 250.818796 90.881479 250.775183 90.7244 
z
" clip-path="url(#p026521fbee)" style="fill: #ff7f0e; opacity: 0.5; stroke: #ff7f0e; stroke-linejoin: miter"/>
   </g>
   <g id="patch_56">
    <path d="M 246.42625 91.931875 
C 246.42625 91.931875 246.42625 91.931875 246.42625 91.931875 
C 246.42625 91.931875 246.42625 91.931875 246.42625 91.931875 
L 250.88024 92.66207 
C 250.906614 92.501196 250.924253 92.339011 250.933079 92.176228 
C 250.941904 92.013446 250.941904 91.850304 250.933079 91.687522 
z
" clip-path="url(#p026521fbee)" style="fill: #ff7f0e; opacity: 0.5; stroke: #ff7f0e; stroke-linejoin: miter"/>
   </g>
   <g id="patch_57">
    <path d="M 246.42625 91.931875 
C 246.42625 91.931875 246.42625 91.931875 246.42625 91.931875 
C 246.42625 91.931875 246.42625 91.931875 246.42625 91.931875 
L 248.103405 92.600115 
C 248.127541 92.539537 248.148378 92.477697 248.165823 92.414865 
C 248.183268 92.352033 248.197296 92.288302 248.207846 92.223953 
z
" clip-path="url(#p026521fbee)" style="fill: #ff7f0e; opacity: 0.5; stroke: #ff7f0e; stroke-linejoin: miter"/>
   </g>
   <g id="patch_58">
    <path d="M 246.42625 91.931875 
C 246.42625 91.931875 246.42625 91.931875 246.42625 91.931875 
C 246.42625 91.931875 246.42625 91.931875 246.42625 91.931875 
L 249.414835 93.958186 
C 249.488023 93.850241 249.55531 93.73841 249.616399 93.623185 
C 249.677487 93.507959 249.732288 93.389509 249.78056 93.268354 
z
" clip-path="url(#p026521fbee)" style="fill: #ff7f0e; opacity: 0.5; stroke: #ff7f0e; stroke-linejoin: miter"/>
   </g>
   <g id="patch_59">
    <path d="M 246.42625 91.931875 
C 246.42625 91.931875 246.42625 91.931875 246.42625 91.931875 
C 246.42625 91.931875 246.42625 91.931875 246.42625 91.931875 
L 247.047029 92.587224 
C 247.0707 92.564802 247.093138 92.541114 247.114246 92.516264 
C 247.135353 92.491414 247.155099 92.465439 247.173396 92.438453 
z
" clip-path="url(#p026521fbee)" style="fill: #ff7f0e; opacity: 0.5; stroke: #ff7f0e; stroke-linejoin: miter"/>
   </g>
   <g id="patch_60">
    <path d="M 246.42625 91.931875 
C 246.42625 91.931875 246.42625 91.931875 246.42625 91.931875 
C 246.42625 91.931875 246.42625 91.931875 246.42625 91.931875 
L 247.822405 94.252303 
C 247.906217 94.201875 247.987235 94.146944 248.065103 94.08775 
C 248.142972 94.028556 248.217576 93.965187 248.288587 93.897921 
z
" clip-path="url(#p026521fbee)" style="fill: #ff7f0e; opacity: 0.5; stroke: #ff7f0e; stroke-linejoin: miter"/>
   </g>
   <g id="patch_61">
    <path d="M 246.42625 91.931875 
C 246.42625 91.931875 246.42625 91.931875 246.42625 91.931875 
C 246.42625 91.931875 246.42625 91.931875 246.42625 91.931875 
L 247.00271 93.642748 
C 247.064506 93.621927 247.125127 93.597773 247.184309 93.570393 
C 247.243491 93.543012 247.301146 93.512446 247.35702 93.478827 
z
" clip-path="url(#p026521fbee)" style="fill: #ff7f0e; opacity: 0.5; stroke: #ff7f0e; stroke-linejoin: miter"/>
   </g>
   <g id="patch_62">
    <path d="M 246.42625 91.931875 
C 246.42625 91.931875 246.42625 91.931875 246.42625 91.931875 
C 246.42625 91.931875 246.42625 91.931875 246.42625 91.931875 
L 247.207033 99.111059 
C 247.466339 99.082858 247.723926 99.040628 247.978663 98.984557 
C 248.233399 98.928485 248.484911 98.858653 248.732091 98.775368 
z
" clip-path="url(#p026521fbee)" style="fill: #ff7f0e; opacity: 0.5; stroke: #ff7f0e; stroke-linejoin: miter"/>
   </g>
   <g id="matplotlib.axis_3">
    <g id="xtick_9">
     <g id="line2d_12">
      <path d="M 246.42625 91.931875 
L 246.42625 40.749375 
" clip-path="url(#p026521fbee)" style="fill: none; stroke: #b0b0b0; stroke-width: 0.8; stroke-linecap: square"/>
     </g>
     <g id="text_10">
      <!-- 0° -->
      <g transform="translate(240.745 29.50875) scale(0.1 -0.1)">
       <use xlink:href="#DejaVuSans-30"/>
       <use xlink:href="#DejaVuSans-b0" transform="translate(63.623047 0)"/>
      </g>
     </g>
    </g>
    <g id="xtick_10">
     <g id="line2d_13">
      <path d="M 246.42625 91.931875 
L 282.617743 55.740382 
" clip-path="url(#p026521fbee)" style="fill: none; stroke: #b0b0b0; stroke-width: 0.8; stroke-linecap: square"/>
     </g>
     <g id="text_11">
      <!-- 45° -->
      <g transform="translate(283.654738 48.600262) scale(0.1 -0.1)">
       <use xlink:href="#DejaVuSans-34"/>
       <use xlink:href="#DejaVuSans-35" transform="translate(63.623047 0)"/>
       <use xlink:href="#DejaVuSans-b0" transform="translate(127.246094 0)"/>
      </g>
     </g>
    </g>
    <g id="xtick_11">
     <g id="line2d_14">
      <path d="M 246.42625 91.931875 
L 297.60875 91.931875 
" clip-path="url(#p026521fbee)" style="fill: none; stroke: #b0b0b0; stroke-width: 0.8; stroke-linecap: square"/>
     </g>
     <g id="text_12">
      <!-- 90° -->
      <g transform="translate(302.74625 94.69125) scale(0.1 -0.1)">
       <use xlink:href="#DejaVuSans-39"/>
       <use xlink:href="#DejaVuSans-30" transform="translate(63.623047 0)"/>
       <use xlink:href="#DejaVuSans-b0" transform="translate(127.246094 0)"/>
      </g>
     </g>
    </g>
    <g id="xtick_12">
     <g id="line2d_15">
      <path d="M 246.42625 91.931875 
L 282.617743 128.123368 
" clip-path="url(#p026521fbee)" style="fill: none; stroke: #b0b0b0; stroke-width: 0.8; stroke-linecap: square"/>
     </g>
     <g id="text_13">
      <!-- 135° -->
      <g transform="translate(280.473488 140.782238) scale(0.1 -0.1)">
       <use xlink:href="#DejaVuSans-31"/>
       <use xlink:href="#DejaVuSans-33" transform="translate(63.623047 0)"/>
       <use xlink:href="#DejaVuSans-35" transform="translate(127.246094 0)"/>
       <use xlink:href="#DejaVuSans-b0" transform="translate(190.869141 0)"/>
      </g>
     </g>
    </g>
    <g id="xtick_13">
     <g id="line2d_16">
      <path d="M 246.42625 91.931875 
L 246.42625 143.114375 
" clip-path="url(#p026521fbee)" style="fill: none; stroke: #b0b0b0; stroke-width: 0.8; stroke-linecap: square"/>
     </g>
     <g id="text_14">
      <!-- 180° -->
      <g transform="translate(234.3825 159.87375) scale(0.1 -0.1)">
       <use xlink:href="#DejaVuSans-31"/>
       <use xlink:href="#DejaVuSans-38" transform="translate(63.623047 0)"/>
       <use xlink:href="#DejaVuSans-30" transform="translate(127.246094 0)"/>
       <use xlink:href="#DejaVuSans-b0" transform="translate(190.869141 0)"/>
      </g>
     </g>
    </g>
    <g id="xtick_14">
     <g id="line2d_17">
      <path d="M 246.42625 91.931875 
L 210.234757 128.123368 
" clip-path="url(#p026521fbee)" style="fill: none; stroke: #b0b0b0; stroke-width: 0.8; stroke-linecap: square"/>
     </g>
     <g id="text_15">
      <!-- 225° -->
      <g transform="translate(188.291512 140.782238) scale(0.1 -0.1)">
       <use xlink:href="#DejaVuSans-32"/>
       <use xlink:href="#DejaVuSans-32" transform="translate(63.623047 0)"/>
       <use xlink:href="#DejaVuSans-35" transform="translate(127.246094 0)"/>
       <use xlink:href="#DejaVuSans-b0" transform="translate(190.869141 0)"/>
      </g>
     </g>
    </g>
    <g id="xtick_15">
     <g id="line2d_18">
      <path d="M 246.42625 91.931875 
L 195.24375 91.931875 
" clip-path="url(#p026521fbee)" style="fill: none; stroke: #b0b0b0; stroke-width: 0.8; stroke-linecap: square"/>
     </g>
     <g id="text_16">
      <!-- 270° -->
      <g transform="translate(169.2 94.69125) scale(0.1 -0.1)">
       <use xlink:href="#DejaVuSans-32"/>
       <use xlink:href="#DejaVuSans-37" transform="translate(63.623047 0)"/>
       <use xlink:href="#DejaVuSans-30" transform="translate(127.246094 0)"/>
       <use xlink:href="#DejaVuSans-b0" transform="translate(190.869141 0)"/>
      </g>
     </g>
    </g>
    <g id="xtick_16">
     <g id="line2d_19">
      <path d="M 246.42625 91.931875 
L 210.234757 55.740382 
" clip-path="url(#p026521fbee)" style="fill: none; stroke: #b0b0b0; stroke-width: 0.8; stroke-linecap: square"/>
     </g>
     <g id="text_17">
      <!-- 315° -->
      <g transform="translate(188.291512 48.600262) scale(0.1 -0.1)">
       <use xlink:href="#DejaVuSans-33"/>
       <use xlink:href="#DejaVuSans-31" transform="translate(63.623047 0)"/>
       <use xlink:href="#DejaVuSans-35" transform="translate(127.246094 0)"/>
       <use xlink:href="#DejaVuSans-b0" transform="translate(190.869141 0)"/>
      </g>
     </g>
    </g>
   </g>
   <g id="matplotlib.axis_4">
    <g id="ytick_4">
     <g id="line2d_20">
      <path d="M 246.42625 81.370656 
C 247.813137 81.370656 249.186538 81.643842 250.467854 82.174581 
C 251.74917 82.705319 252.913483 83.483288 253.89416 84.463965 
C 254.874837 85.444642 255.652806 86.608955 256.183544 87.890271 
C 256.714283 89.171587 256.987469 90.544988 256.987469 91.931875 
C 256.987469 93.318762 256.714283 94.692163 256.183544 95.973479 
C 255.652806 97.254795 254.874837 98.419108 253.89416 99.399785 
C 252.913483 100.380462 251.74917 101.158431 250.467854 101.689169 
C 249.186538 102.219908 247.813137 102.493094 246.42625 102.493094 
C 245.039363 102.493094 243.665962 102.219908 242.384646 101.689169 
C 241.10333 101.158431 239.939017 100.380462 238.95834 99.399785 
C 237.977663 98.419108 237.199694 97.254795 236.668956 95.973479 
C 236.138217 94.692163 235.865031 93.318762 235.865031 91.931875 
C 235.865031 90.544988 236.138217 89.171587 236.668956 87.890271 
C 237.199694 86.608955 237.977663 85.444642 238.95834 84.463965 
C 239.939017 83.483288 241.10333 82.705319 242.384646 82.174581 
C 243.665962 81.643842 245.039363 81.370656 246.42625 81.370656 
" clip-path="url(#p026521fbee)" style="fill: none; stroke: #b0b0b0; stroke-width: 0.8; stroke-linecap: square"/>
     </g>
    </g>
    <g id="ytick_5">
     <g id="line2d_21">
      <path d="M 246.42625 70.809436 
C 249.200023 70.809436 251.946825 71.355809 254.509457 72.417286 
C 257.07209 73.478763 259.400716 75.034701 261.36207 76.996055 
C 263.323424 78.957409 264.879362 81.286035 265.940839 83.848668 
C 267.002316 86.4113 267.548689 89.158102 267.548689 91.931875 
C 267.548689 94.705648 267.002316 97.45245 265.940839 100.015082 
C 264.879362 102.577715 263.323424 104.906341 261.36207 106.867695 
C 259.400716 108.829049 257.07209 110.384987 254.509457 111.446464 
C 251.946825 112.507941 249.200023 113.054314 246.42625 113.054314 
C 243.652477 113.054314 240.905675 112.507941 238.343043 111.446464 
C 235.78041 110.384987 233.451784 108.829049 231.49043 106.867695 
C 229.529076 104.906341 227.973138 102.577715 226.911661 100.015082 
C 225.850184 97.45245 225.303811 94.705648 225.303811 91.931875 
C 225.303811 89.158102 225.850184 86.4113 226.911661 83.848668 
C 227.973138 81.286035 229.529076 78.957409 231.49043 76.996055 
C 233.451784 75.034701 235.78041 73.478763 238.343043 72.417286 
C 240.905675 71.355809 243.652477 70.809436 246.42625 70.809436 
" clip-path="url(#p026521fbee)" style="fill: none; stroke: #b0b0b0; stroke-width: 0.8; stroke-linecap: square"/>
     </g>
    </g>
    <g id="ytick_6">
     <g id="line2d_22">
      <path d="M 246.42625 60.248217 
C 250.58691 60.248217 254.707113 61.067776 258.551061 62.659992 
C 262.39501 64.252207 265.887949 66.586115 268.82998 69.528145 
C 271.77201 72.470176 274.105918 75.963115 275.698133 79.807064 
C 277.290349 83.651012 278.109908 87.771215 278.109908 91.931875 
C 278.109908 96.092535 277.290349 100.212738 275.698133 104.056686 
C 274.105918 107.900635 271.77201 111.393574 268.82998 114.335605 
C 265.887949 117.277635 262.39501 119.611543 258.551061 121.203758 
C 254.707113 122.795974 250.58691 123.615533 246.42625 123.615533 
C 242.26559 123.615533 238.145387 122.795974 234.301439 121.203758 
C 230.45749 119.611543 226.964551 117.277635 224.02252 114.335605 
C 221.08049 111.393574 218.746582 107.900635 217.154367 104.056686 
C 215.562151 100.212738 214.742592 96.092535 214.742592 91.931875 
C 214.742592 87.771215 215.562151 83.651012 217.154367 79.807064 
C 218.746582 75.963115 221.08049 72.470176 224.02252 69.528145 
C 226.964551 66.586115 230.45749 64.252207 234.301439 62.659992 
C 238.145387 61.067776 242.26559 60.248217 246.42625 60.248217 
" clip-path="url(#p026521fbee)" style="fill: none; stroke: #b0b0b0; stroke-width: 0.8; stroke-linecap: square"/>
     </g>
    </g>
    <g id="ytick_7">
     <g id="line2d_23">
      <path d="M 246.42625 49.686997 
C 251.973797 49.686997 257.4674 50.779743 262.592665 52.902697 
C 267.71793 55.025651 272.375182 58.137528 276.29789 62.060235 
C 280.220597 65.982943 283.332474 70.640195 285.455428 75.76546 
C 287.578382 80.890725 288.671128 86.384328 288.671128 91.931875 
C 288.671128 97.479422 287.578382 102.973025 285.455428 108.09829 
C 283.332474 113.223555 280.220597 117.880807 276.29789 121.803515 
C 272.375182 125.726222 267.71793 128.838099 262.592665 130.961053 
C 257.4674 133.084007 251.973797 134.176753 246.42625 134.176753 
C 240.878703 134.176753 235.3851 133.084007 230.259835 130.961053 
C 225.13457 128.838099 220.477318 125.726222 216.55461 121.803515 
C 212.631903 117.880807 209.520026 113.223555 207.397072 108.09829 
C 205.274118 102.973025 204.181372 97.479422 204.181372 91.931875 
C 204.181372 86.384328 205.274118 80.890725 207.397072 75.76546 
C 209.520026 70.640195 212.631903 65.982943 216.55461 62.060235 
C 220.477318 58.137528 225.13457 55.025651 230.259835 52.902697 
C 235.3851 50.779743 240.878703 49.686997 246.42625 49.686997 
" clip-path="url(#p026521fbee)" style="fill: none; stroke: #b0b0b0; stroke-width: 0.8; stroke-linecap: square"/>
     </g>
    </g>
   </g>
   <g id="patch_63">
    <path d="M 246.42625 40.749375 
C 239.705026 40.749375 233.049157 42.07331 226.839555 44.645411 
C 220.629954 47.217512 214.98738 50.987759 210.234757 55.740382 
C 205.482134 60.493005 201.711887 66.135579 199.139786 72.34518 
C 196.567685 78.554782 195.24375 85.210651 195.24375 91.931875 
C 195.24375 98.653099 196.567685 105.308968 199.139786 111.51857 
C 201.711887 117.728171 205.482134 123.370745 210.234757 128.123368 
C 214.98738 132.875991 220.629954 136.646238 226.839555 139.218339 
C 233.049157 141.79044 239.705026 143.114375 246.42625 143.114375 
C 253.147474 143.114375 259.803343 141.79044 266.012945 139.218339 
C 272.222546 136.646238 277.86512 132.875991 282.617743 128.123368 
C 287.370366 123.370745 291.140613 117.728171 293.712714 111.51857 
C 296.284815 105.308968 297.60875 98.653099 297.60875 91.931875 
C 297.60875 85.210651 296.284815 78.554782 293.712714 72.34518 
C 291.140613 66.135579 287.370366 60.493005 282.617743 55.740382 
C 277.86512 50.987759 272.222546 47.217512 266.012945 44.645411 
C 259.803343 42.07331 253.147474 40.749375 246.42625 40.749375 
" style="fill: none; stroke: #000000; stroke-width: 0.8; stroke-linejoin: miter; stroke-linecap: square"/>
   </g>
   <g id="text_18">
    <!-- RealEstate10K -->
    <g transform="translate(213.805469 14.038594) scale(0.09 -0.09)">
     <defs>
      <path id="DejaVuSans-52" d="M 2841 2188 
Q 3044 2119 3236 1894 
Q 3428 1669 3622 1275 
L 4263 0 
L 3584 0 
L 2988 1197 
Q 2756 1666 2539 1819 
Q 2322 1972 1947 1972 
L 1259 1972 
L 1259 0 
L 628 0 
L 628 4666 
L 2053 4666 
Q 2853 4666 3247 4331 
Q 3641 3997 3641 3322 
Q 3641 2881 3436 2590 
Q 3231 2300 2841 2188 
z
M 1259 4147 
L 1259 2491 
L 2053 2491 
Q 2509 2491 2742 2702 
Q 2975 2913 2975 3322 
Q 2975 3731 2742 3939 
Q 2509 4147 2053 4147 
L 1259 4147 
z
" transform="scale(0.015625)"/>
      <path id="DejaVuSans-65" d="M 3597 1894 
L 3597 1613 
L 953 1613 
Q 991 1019 1311 708 
Q 1631 397 2203 397 
Q 2534 397 2845 478 
Q 3156 559 3463 722 
L 3463 178 
Q 3153 47 2828 -22 
Q 2503 -91 2169 -91 
Q 1331 -91 842 396 
Q 353 884 353 1716 
Q 353 2575 817 3079 
Q 1281 3584 2069 3584 
Q 2775 3584 3186 3129 
Q 3597 2675 3597 1894 
z
M 3022 2063 
Q 3016 2534 2758 2815 
Q 2500 3097 2075 3097 
Q 1594 3097 1305 2825 
Q 1016 2553 972 2059 
L 3022 2063 
z
" transform="scale(0.015625)"/>
      <path id="DejaVuSans-6c" d="M 603 4863 
L 1178 4863 
L 1178 0 
L 603 0 
L 603 4863 
z
" transform="scale(0.015625)"/>
      <path id="DejaVuSans-45" d="M 628 4666 
L 3578 4666 
L 3578 4134 
L 1259 4134 
L 1259 2753 
L 3481 2753 
L 3481 2222 
L 1259 2222 
L 1259 531 
L 3634 531 
L 3634 0 
L 628 0 
L 628 4666 
z
" transform="scale(0.015625)"/>
      <path id="DejaVuSans-73" d="M 2834 3397 
L 2834 2853 
Q 2591 2978 2328 3040 
Q 2066 3103 1784 3103 
Q 1356 3103 1142 2972 
Q 928 2841 928 2578 
Q 928 2378 1081 2264 
Q 1234 2150 1697 2047 
L 1894 2003 
Q 2506 1872 2764 1633 
Q 3022 1394 3022 966 
Q 3022 478 2636 193 
Q 2250 -91 1575 -91 
Q 1294 -91 989 -36 
Q 684 19 347 128 
L 347 722 
Q 666 556 975 473 
Q 1284 391 1588 391 
Q 1994 391 2212 530 
Q 2431 669 2431 922 
Q 2431 1156 2273 1281 
Q 2116 1406 1581 1522 
L 1381 1569 
Q 847 1681 609 1914 
Q 372 2147 372 2553 
Q 372 3047 722 3315 
Q 1072 3584 1716 3584 
Q 2034 3584 2315 3537 
Q 2597 3491 2834 3397 
z
" transform="scale(0.015625)"/>
      <path id="DejaVuSans-4b" d="M 628 4666 
L 1259 4666 
L 1259 2694 
L 3353 4666 
L 4166 4666 
L 1850 2491 
L 4331 0 
L 3500 0 
L 1259 2247 
L 1259 0 
L 628 0 
L 628 4666 
z
" transform="scale(0.015625)"/>
     </defs>
     <use xlink:href="#DejaVuSans-52"/>
     <use xlink:href="#DejaVuSans-65" transform="translate(64.982422 0)"/>
     <use xlink:href="#DejaVuSans-61" transform="translate(126.505859 0)"/>
     <use xlink:href="#DejaVuSans-6c" transform="translate(187.785156 0)"/>
     <use xlink:href="#DejaVuSans-45" transform="translate(215.568359 0)"/>
     <use xlink:href="#DejaVuSans-73" transform="translate(278.751953 0)"/>
     <use xlink:href="#DejaVuSans-74" transform="translate(330.851562 0)"/>
     <use xlink:href="#DejaVuSans-61" transform="translate(370.060547 0)"/>
     <use xlink:href="#DejaVuSans-74" transform="translate(431.339844 0)"/>
     <use xlink:href="#DejaVuSans-65" transform="translate(470.548828 0)"/>
     <use xlink:href="#DejaVuSans-31" transform="translate(532.072266 0)"/>
     <use xlink:href="#DejaVuSans-30" transform="translate(595.695312 0)"/>
     <use xlink:href="#DejaVuSans-4b" transform="translate(659.318359 0)"/>
    </g>
   </g>
  </g>
  <g id="axes_3">
   <g id="patch_64">
    <path d="M 459.60875 91.931875 
C 459.60875 85.210651 458.284815 78.554782 455.712714 72.34518 
C 453.140613 66.135579 449.370366 60.493005 444.617743 55.740382 
C 439.86512 50.987759 434.222546 47.217512 428.012945 44.645411 
C 421.803343 42.07331 415.147474 40.749375 408.42625 40.749375 
C 401.705026 40.749375 395.049157 42.07331 388.839555 44.645411 
C 382.629954 47.217512 376.98738 50.987759 372.234757 55.740382 
C 367.482134 60.493005 363.711887 66.135579 361.139786 72.34518 
C 358.567685 78.554782 357.24375 85.210651 357.24375 91.931875 
C 357.24375 98.653099 358.567685 105.308968 361.139786 111.51857 
C 363.711887 117.728171 367.482134 123.370745 372.234757 128.123368 
C 376.98738 132.875991 382.629954 136.646238 388.839555 139.218339 
C 395.049157 141.79044 401.705026 143.114375 408.42625 143.114375 
C 415.147474 143.114375 421.803343 141.79044 428.012945 139.218339 
C 434.222546 136.646238 439.86512 132.875991 444.617743 128.123368 
C 449.370366 123.370745 453.140613 117.728171 455.712714 111.51857 
C 458.284815 105.308968 459.60875 98.653099 459.60875 91.931875 
M 408.42625 91.931875 
C 408.42625 91.931875 408.42625 91.931875 408.42625 91.931875 
C 408.42625 91.931875 408.42625 91.931875 408.42625 91.931875 
C 408.42625 91.931875 408.42625 91.931875 408.42625 91.931875 
C 408.42625 91.931875 408.42625 91.931875 408.42625 91.931875 
C 408.42625 91.931875 408.42625 91.931875 408.42625 91.931875 
C 408.42625 91.931875 408.42625 91.931875 408.42625 91.931875 
C 408.42625 91.931875 408.42625 91.931875 408.42625 91.931875 
C 408.42625 91.931875 408.42625 91.931875 408.42625 91.931875 
C 408.42625 91.931875 408.42625 91.931875 408.42625 91.931875 
C 408.42625 91.931875 408.42625 91.931875 408.42625 91.931875 
C 408.42625 91.931875 408.42625 91.931875 408.42625 91.931875 
C 408.42625 91.931875 408.42625 91.931875 408.42625 91.931875 
C 408.42625 91.931875 408.42625 91.931875 408.42625 91.931875 
C 408.42625 91.931875 408.42625 91.931875 408.42625 91.931875 
C 408.42625 91.931875 408.42625 91.931875 408.42625 91.931875 
C 408.42625 91.931875 408.42625 91.931875 408.42625 91.931875 
z
" style="fill: #ffffff"/>
   </g>
   <g id="patch_65">
    <path d="M 408.42625 91.931875 
C 408.42625 91.931875 408.42625 91.931875 408.42625 91.931875 
C 408.42625 91.931875 408.42625 91.931875 408.42625 91.931875 
L 403.908861 133.468582 
C 405.409129 133.631746 406.917136 133.713508 408.42625 133.713508 
C 409.935364 133.713508 411.443371 133.631746 412.943639 133.468582 
z
" clip-path="url(#p524e57e65e)" style="fill: #2ca02c; opacity: 0.5; stroke: #2ca02c; stroke-linejoin: miter"/>
   </g>
   <g id="patch_66">
    <path d="M 408.42625 91.931875 
C 408.42625 91.931875 408.42625 91.931875 408.42625 91.931875 
C 408.42625 91.931875 408.42625 91.931875 408.42625 91.931875 
L 396.197056 128.22683 
C 397.507996 128.668538 398.841906 129.038896 400.192919 129.336276 
C 401.543932 129.633657 402.910064 129.857623 404.28531 130.00719 
z
" clip-path="url(#p524e57e65e)" style="fill: #2ca02c; opacity: 0.5; stroke: #2ca02c; stroke-linejoin: miter"/>
   </g>
   <g id="patch_67">
    <path d="M 408.42625 91.931875 
C 408.42625 91.931875 408.42625 91.931875 408.42625 91.931875 
C 408.42625 91.931875 408.42625 91.931875 408.42625 91.931875 
L 395.860852 112.815729 
C 396.615158 113.269579 397.393499 113.68223 398.192453 114.051865 
C 398.991407 114.4215 399.8098 114.747578 400.644035 115.028665 
z
" clip-path="url(#p524e57e65e)" style="fill: #2ca02c; opacity: 0.5; stroke: #2ca02c; stroke-linejoin: miter"/>
   </g>
   <g id="patch_68">
    <path d="M 408.42625 91.931875 
C 408.42625 91.931875 408.42625 91.931875 408.42625 91.931875 
C 408.42625 91.931875 408.42625 91.931875 408.42625 91.931875 
L 377.29861 124.792925 
C 378.485521 125.917227 379.732474 126.976398 381.033986 127.965782 
C 382.335498 128.955166 383.689658 129.873309 385.090511 130.716174 
z
" clip-path="url(#p524e57e65e)" style="fill: #2ca02c; opacity: 0.5; stroke: #2ca02c; stroke-linejoin: miter"/>
   </g>
   <g id="patch_69">
    <path d="M 408.42625 91.931875 
C 408.42625 91.931875 408.42625 91.931875 408.42625 91.931875 
C 408.42625 91.931875 408.42625 91.931875 408.42625 91.931875 
L 382.489602 109.517359 
C 383.124773 110.454167 383.810234 111.355875 384.542969 112.218517 
C 385.275704 113.081159 386.054638 113.90347 386.876345 114.681833 
z
" clip-path="url(#p524e57e65e)" style="fill: #2ca02c; opacity: 0.5; stroke: #2ca02c; stroke-linejoin: miter"/>
   </g>
   <g id="patch_70">
    <path d="M 408.42625 91.931875 
C 408.42625 91.931875 408.42625 91.931875 408.42625 91.931875 
C 408.42625 91.931875 408.42625 91.931875 408.42625 91.931875 
L 379.315627 103.530607 
C 379.734563 104.582056 380.210157 105.610036 380.740318 106.610027 
C 381.27048 107.610018 381.85443 108.580551 382.489602 109.517359 
z
" clip-path="url(#p524e57e65e)" style="fill: #2ca02c; opacity: 0.5; stroke: #2ca02c; stroke-linejoin: miter"/>
   </g>
   <g id="patch_71">
    <path d="M 408.42625 91.931875 
C 408.42625 91.931875 408.42625 91.931875 408.42625 91.931875 
C 408.42625 91.931875 408.42625 91.931875 408.42625 91.931875 
L 374.066897 97.564805 
C 374.270354 98.805833 374.540898 100.034928 374.87734 101.246684 
C 375.213783 102.45844 375.615629 103.651079 376.081113 104.819355 
z
" clip-path="url(#p524e57e65e)" style="fill: #2ca02c; opacity: 0.5; stroke: #2ca02c; stroke-linejoin: miter"/>
   </g>
   <g id="patch_72">
    <path d="M 408.42625 91.931875 
C 408.42625 91.931875 408.42625 91.931875 408.42625 91.931875 
C 408.42625 91.931875 408.42625 91.931875 408.42625 91.931875 
L 370.18259 89.858364 
C 370.107697 91.23969 370.107697 92.62406 370.18259 94.005386 
C 370.257483 95.386712 370.40716 96.762967 370.630962 98.128098 
z
" clip-path="url(#p524e57e65e)" style="fill: #2ca02c; opacity: 0.5; stroke: #2ca02c; stroke-linejoin: miter"/>
   </g>
   <g id="patch_73">
    <path d="M 408.42625 91.931875 
C 408.42625 91.931875 408.42625 91.931875 408.42625 91.931875 
C 408.42625 91.931875 408.42625 91.931875 408.42625 91.931875 
L 381.587122 84.480028 
C 381.317968 85.449433 381.101533 86.432708 380.938768 87.425531 
C 380.776003 88.418354 380.667147 89.419266 380.612679 90.423867 
z
" clip-path="url(#p524e57e65e)" style="fill: #2ca02c; opacity: 0.5; stroke: #2ca02c; stroke-linejoin: miter"/>
   </g>
   <g id="patch_74">
    <path d="M 408.42625 91.931875 
C 408.42625 91.931875 408.42625 91.931875 408.42625 91.931875 
C 408.42625 91.931875 408.42625 91.931875 408.42625 91.931875 
L 389.968962 82.14644 
C 389.615521 82.813101 389.298458 83.498421 389.019168 84.199387 
C 388.739878 84.900353 388.49877 85.615936 388.296904 86.34299 
z
" clip-path="url(#p524e57e65e)" style="fill: #2ca02c; opacity: 0.5; stroke: #2ca02c; stroke-linejoin: miter"/>
   </g>
   <g id="patch_75">
    <path d="M 408.42625 91.931875 
C 408.42625 91.931875 408.42625 91.931875 408.42625 91.931875 
C 408.42625 91.931875 408.42625 91.931875 408.42625 91.931875 
L 381.889271 69.391162 
C 381.075121 70.349653 380.313498 71.351551 379.607752 72.392448 
C 378.902006 73.433346 378.253172 74.511717 377.664104 75.622817 
z
" clip-path="url(#p524e57e65e)" style="fill: #2ca02c; opacity: 0.5; stroke: #2ca02c; stroke-linejoin: miter"/>
   </g>
   <g id="patch_76">
    <path d="M 408.42625 91.931875 
C 408.42625 91.931875 408.42625 91.931875 408.42625 91.931875 
C 408.42625 91.931875 408.42625 91.931875 408.42625 91.931875 
L 381.033986 55.897968 
C 379.732474 56.887352 378.485521 57.946523 377.29861 59.070825 
C 376.111699 60.195127 374.986572 61.382909 373.928177 62.628948 
z
" clip-path="url(#p524e57e65e)" style="fill: #2ca02c; opacity: 0.5; stroke: #2ca02c; stroke-linejoin: miter"/>
   </g>
   <g id="patch_77">
    <path d="M 408.42625 91.931875 
C 408.42625 91.931875 408.42625 91.931875 408.42625 91.931875 
C 408.42625 91.931875 408.42625 91.931875 408.42625 91.931875 
L 390.882598 54.011892 
C 389.512963 54.645553 388.178664 55.352953 386.885568 56.130983 
C 385.592473 56.909013 384.342479 57.75653 383.141083 58.669807 
z
" clip-path="url(#p524e57e65e)" style="fill: #2ca02c; opacity: 0.5; stroke: #2ca02c; stroke-linejoin: miter"/>
   </g>
   <g id="patch_78">
    <path d="M 408.42625 91.931875 
C 408.42625 91.931875 408.42625 91.931875 408.42625 91.931875 
C 408.42625 91.931875 408.42625 91.931875 408.42625 91.931875 
L 405.432311 78.330275 
C 404.941034 78.438413 404.455976 78.573089 403.97927 78.733709 
C 403.502565 78.89433 403.034911 79.080661 402.578366 79.291881 
z
" clip-path="url(#p524e57e65e)" style="fill: #2ca02c; opacity: 0.5; stroke: #2ca02c; stroke-linejoin: miter"/>
   </g>
   <g id="patch_79">
    <path d="M 408.42625 91.931875 
C 408.42625 91.931875 408.42625 91.931875 408.42625 91.931875 
C 408.42625 91.931875 408.42625 91.931875 408.42625 91.931875 
L 408.42625 57.113848 
C 407.168655 57.113848 405.911982 57.181983 404.661759 57.317953 
C 403.411536 57.453923 402.169597 57.657528 400.941403 57.927874 
z
" clip-path="url(#p524e57e65e)" style="fill: #2ca02c; opacity: 0.5; stroke: #2ca02c; stroke-linejoin: miter"/>
   </g>
   <g id="patch_80">
    <path d="M 408.42625 91.931875 
C 408.42625 91.931875 408.42625 91.931875 408.42625 91.931875 
C 408.42625 91.931875 408.42625 91.931875 408.42625 91.931875 
L 416.659581 54.527474 
C 415.308568 54.230093 413.942436 54.006127 412.56719 53.85656 
C 411.191944 53.706993 409.809605 53.632045 408.42625 53.632045 
z
" clip-path="url(#p524e57e65e)" style="fill: #2ca02c; opacity: 0.5; stroke: #2ca02c; stroke-linejoin: miter"/>
   </g>
   <g id="patch_81">
    <path d="M 408.42625 91.931875 
C 408.42625 91.931875 408.42625 91.931875 408.42625 91.931875 
C 408.42625 91.931875 408.42625 91.931875 408.42625 91.931875 
L 420.122018 66.651886 
C 419.208928 66.229446 418.273621 65.856786 417.320209 65.535544 
C 416.366798 65.214302 415.396682 64.944951 414.414127 64.728674 
z
" clip-path="url(#p524e57e65e)" style="fill: #2ca02c; opacity: 0.5; stroke: #2ca02c; stroke-linejoin: miter"/>
   </g>
   <g id="patch_82">
    <path d="M 408.42625 91.931875 
C 408.42625 91.931875 408.42625 91.931875 408.42625 91.931875 
C 408.42625 91.931875 408.42625 91.931875 408.42625 91.931875 
L 431.60432 61.441646 
C 430.50304 60.604475 429.357213 59.827585 428.171875 59.114391 
C 426.986537 58.401197 425.76343 57.752746 424.507931 57.171891 
z
" clip-path="url(#p524e57e65e)" style="fill: #2ca02c; opacity: 0.5; stroke: #2ca02c; stroke-linejoin: miter"/>
   </g>
   <g id="patch_83">
    <path d="M 408.42625 91.931875 
C 408.42625 91.931875 408.42625 91.931875 408.42625 91.931875 
C 408.42625 91.931875 408.42625 91.931875 408.42625 91.931875 
L 429.655833 73.899304 
C 429.004513 73.132511 428.312128 72.401568 427.581721 71.70969 
C 426.851314 71.017812 426.083958 70.366014 425.283028 69.757163 
z
" clip-path="url(#p524e57e65e)" style="fill: #2ca02c; opacity: 0.5; stroke: #2ca02c; stroke-linejoin: miter"/>
   </g>
   <g id="patch_84">
    <path d="M 408.42625 91.931875 
C 408.42625 91.931875 408.42625 91.931875 408.42625 91.931875 
C 408.42625 91.931875 408.42625 91.931875 408.42625 91.931875 
L 451.493255 69.099194 
C 450.668559 67.543653 449.760192 66.033935 448.772147 64.576678 
C 447.784103 63.119421 446.717831 61.716764 445.578021 60.374876 
z
" clip-path="url(#p524e57e65e)" style="fill: #2ca02c; opacity: 0.5; stroke: #2ca02c; stroke-linejoin: miter"/>
   </g>
   <g id="patch_85">
    <path d="M 408.42625 91.931875 
C 408.42625 91.931875 408.42625 91.931875 408.42625 91.931875 
C 408.42625 91.931875 408.42625 91.931875 408.42625 91.931875 
L 425.200705 87.274471 
C 425.032484 86.668593 424.83156 86.072273 424.598818 85.488135 
C 424.366076 84.903996 424.101857 84.332896 423.807323 83.777346 
z
" clip-path="url(#p524e57e65e)" style="fill: #2ca02c; opacity: 0.5; stroke: #2ca02c; stroke-linejoin: miter"/>
   </g>
   <g id="patch_86">
    <path d="M 408.42625 91.931875 
C 408.42625 91.931875 408.42625 91.931875 408.42625 91.931875 
C 408.42625 91.931875 408.42625 91.931875 408.42625 91.931875 
L 450.146606 89.669863 
C 450.064904 88.162962 449.901621 86.661593 449.657473 85.172359 
C 449.413326 83.683125 449.088673 82.208211 448.684942 80.754104 
z
" clip-path="url(#p524e57e65e)" style="fill: #2ca02c; opacity: 0.5; stroke: #2ca02c; stroke-linejoin: miter"/>
   </g>
   <g id="patch_87">
    <path d="M 408.42625 91.931875 
C 408.42625 91.931875 408.42625 91.931875 408.42625 91.931875 
C 408.42625 91.931875 408.42625 91.931875 408.42625 91.931875 
L 422.169991 94.185047 
C 422.251374 93.688636 422.305801 93.188179 422.333035 92.685879 
C 422.360269 92.183579 422.360269 91.680171 422.333035 91.177871 
z
" clip-path="url(#p524e57e65e)" style="fill: #2ca02c; opacity: 0.5; stroke: #2ca02c; stroke-linejoin: miter"/>
   </g>
   <g id="patch_88">
    <path d="M 408.42625 91.931875 
C 408.42625 91.931875 408.42625 91.931875 408.42625 91.931875 
C 408.42625 91.931875 408.42625 91.931875 408.42625 91.931875 
L 431.067846 100.953111 
C 431.393685 100.135317 431.674977 99.30047 431.910487 98.452241 
C 432.145997 97.604012 432.335377 96.743646 432.477797 95.874926 
z
" clip-path="url(#p524e57e65e)" style="fill: #2ca02c; opacity: 0.5; stroke: #2ca02c; stroke-linejoin: miter"/>
   </g>
   <g id="patch_89">
    <path d="M 408.42625 91.931875 
C 408.42625 91.931875 408.42625 91.931875 408.42625 91.931875 
C 408.42625 91.931875 408.42625 91.931875 408.42625 91.931875 
L 425.717349 103.655531 
C 426.140797 103.030992 426.530097 102.38397 426.883538 101.71731 
C 427.236979 101.050649 427.554042 100.365329 427.833332 99.664363 
z
" clip-path="url(#p524e57e65e)" style="fill: #2ca02c; opacity: 0.5; stroke: #2ca02c; stroke-linejoin: miter"/>
   </g>
   <g id="patch_90">
    <path d="M 408.42625 91.931875 
C 408.42625 91.931875 408.42625 91.931875 408.42625 91.931875 
C 408.42625 91.931875 408.42625 91.931875 408.42625 91.931875 
L 425.187287 109.626287 
C 425.826393 109.020893 426.43223 108.381318 427.002135 107.710374 
C 427.57204 107.03943 428.105176 106.338102 428.599199 105.609474 
z
" clip-path="url(#p524e57e65e)" style="fill: #2ca02c; opacity: 0.5; stroke: #2ca02c; stroke-linejoin: miter"/>
   </g>
   <g id="patch_91">
    <path d="M 408.42625 91.931875 
C 408.42625 91.931875 408.42625 91.931875 408.42625 91.931875 
C 408.42625 91.931875 408.42625 91.931875 408.42625 91.931875 
L 431.761989 130.716174 
C 433.162842 129.873309 434.517002 128.955166 435.818514 127.965782 
C 437.120026 126.976398 438.366979 125.917227 439.55389 124.792925 
z
" clip-path="url(#p524e57e65e)" style="fill: #2ca02c; opacity: 0.5; stroke: #2ca02c; stroke-linejoin: miter"/>
   </g>
   <g id="patch_92">
    <path d="M 408.42625 91.931875 
C 408.42625 91.931875 408.42625 91.931875 408.42625 91.931875 
C 408.42625 91.931875 408.42625 91.931875 408.42625 91.931875 
L 415.09672 111.729123 
C 415.811778 111.488192 416.513259 111.208697 417.198076 110.891866 
C 417.882894 110.575036 418.550043 110.221336 419.196591 109.832321 
z
" clip-path="url(#p524e57e65e)" style="fill: #2ca02c; opacity: 0.5; stroke: #2ca02c; stroke-linejoin: miter"/>
   </g>
   <g id="patch_93">
    <path d="M 408.42625 91.931875 
C 408.42625 91.931875 408.42625 91.931875 408.42625 91.931875 
C 408.42625 91.931875 408.42625 91.931875 408.42625 91.931875 
L 413.320088 136.929974 
C 414.945378 136.753213 416.559899 136.488526 418.156551 136.137076 
C 419.753202 135.785627 421.329641 135.347931 422.878934 134.825913 
z
" clip-path="url(#p524e57e65e)" style="fill: #2ca02c; opacity: 0.5; stroke: #2ca02c; stroke-linejoin: miter"/>
   </g>
   <g id="matplotlib.axis_5">
    <g id="xtick_17">
     <g id="line2d_24">
      <path d="M 408.42625 91.931875 
L 408.42625 40.749375 
" clip-path="url(#p524e57e65e)" style="fill: none; stroke: #b0b0b0; stroke-width: 0.8; stroke-linecap: square"/>
     </g>
     <g id="text_19">
      <!-- 0° -->
      <g transform="translate(402.745 29.50875) scale(0.1 -0.1)">
       <use xlink:href="#DejaVuSans-30"/>
       <use xlink:href="#DejaVuSans-b0" transform="translate(63.623047 0)"/>
      </g>
     </g>
    </g>
    <g id="xtick_18">
     <g id="line2d_25">
      <path d="M 408.42625 91.931875 
L 444.617743 55.740382 
" clip-path="url(#p524e57e65e)" style="fill: none; stroke: #b0b0b0; stroke-width: 0.8; stroke-linecap: square"/>
     </g>
     <g id="text_20">
      <!-- 45° -->
      <g transform="translate(445.654738 48.600262) scale(0.1 -0.1)">
       <use xlink:href="#DejaVuSans-34"/>
       <use xlink:href="#DejaVuSans-35" transform="translate(63.623047 0)"/>
       <use xlink:href="#DejaVuSans-b0" transform="translate(127.246094 0)"/>
      </g>
     </g>
    </g>
    <g id="xtick_19">
     <g id="line2d_26">
      <path d="M 408.42625 91.931875 
L 459.60875 91.931875 
" clip-path="url(#p524e57e65e)" style="fill: none; stroke: #b0b0b0; stroke-width: 0.8; stroke-linecap: square"/>
     </g>
     <g id="text_21">
      <!-- 90° -->
      <g transform="translate(464.74625 94.69125) scale(0.1 -0.1)">
       <use xlink:href="#DejaVuSans-39"/>
       <use xlink:href="#DejaVuSans-30" transform="translate(63.623047 0)"/>
       <use xlink:href="#DejaVuSans-b0" transform="translate(127.246094 0)"/>
      </g>
     </g>
    </g>
    <g id="xtick_20">
     <g id="line2d_27">
      <path d="M 408.42625 91.931875 
L 444.617743 128.123368 
" clip-path="url(#p524e57e65e)" style="fill: none; stroke: #b0b0b0; stroke-width: 0.8; stroke-linecap: square"/>
     </g>
     <g id="text_22">
      <!-- 135° -->
      <g transform="translate(442.473488 140.782238) scale(0.1 -0.1)">
       <use xlink:href="#DejaVuSans-31"/>
       <use xlink:href="#DejaVuSans-33" transform="translate(63.623047 0)"/>
       <use xlink:href="#DejaVuSans-35" transform="translate(127.246094 0)"/>
       <use xlink:href="#DejaVuSans-b0" transform="translate(190.869141 0)"/>
      </g>
     </g>
    </g>
    <g id="xtick_21">
     <g id="line2d_28">
      <path d="M 408.42625 91.931875 
L 408.42625 143.114375 
" clip-path="url(#p524e57e65e)" style="fill: none; stroke: #b0b0b0; stroke-width: 0.8; stroke-linecap: square"/>
     </g>
     <g id="text_23">
      <!-- 180° -->
      <g transform="translate(396.3825 159.87375) scale(0.1 -0.1)">
       <use xlink:href="#DejaVuSans-31"/>
       <use xlink:href="#DejaVuSans-38" transform="translate(63.623047 0)"/>
       <use xlink:href="#DejaVuSans-30" transform="translate(127.246094 0)"/>
       <use xlink:href="#DejaVuSans-b0" transform="translate(190.869141 0)"/>
      </g>
     </g>
    </g>
    <g id="xtick_22">
     <g id="line2d_29">
      <path d="M 408.42625 91.931875 
L 372.234757 128.123368 
" clip-path="url(#p524e57e65e)" style="fill: none; stroke: #b0b0b0; stroke-width: 0.8; stroke-linecap: square"/>
     </g>
     <g id="text_24">
      <!-- 225° -->
      <g transform="translate(350.291512 140.782238) scale(0.1 -0.1)">
       <use xlink:href="#DejaVuSans-32"/>
       <use xlink:href="#DejaVuSans-32" transform="translate(63.623047 0)"/>
       <use xlink:href="#DejaVuSans-35" transform="translate(127.246094 0)"/>
       <use xlink:href="#DejaVuSans-b0" transform="translate(190.869141 0)"/>
      </g>
     </g>
    </g>
    <g id="xtick_23">
     <g id="line2d_30">
      <path d="M 408.42625 91.931875 
L 357.24375 91.931875 
" clip-path="url(#p524e57e65e)" style="fill: none; stroke: #b0b0b0; stroke-width: 0.8; stroke-linecap: square"/>
     </g>
     <g id="text_25">
      <!-- 270° -->
      <g transform="translate(331.2 94.69125) scale(0.1 -0.1)">
       <use xlink:href="#DejaVuSans-32"/>
       <use xlink:href="#DejaVuSans-37" transform="translate(63.623047 0)"/>
       <use xlink:href="#DejaVuSans-30" transform="translate(127.246094 0)"/>
       <use xlink:href="#DejaVuSans-b0" transform="translate(190.869141 0)"/>
      </g>
     </g>
    </g>
    <g id="xtick_24">
     <g id="line2d_31">
      <path d="M 408.42625 91.931875 
L 372.234757 55.740382 
" clip-path="url(#p524e57e65e)" style="fill: none; stroke: #b0b0b0; stroke-width: 0.8; stroke-linecap: square"/>
     </g>
     <g id="text_26">
      <!-- 315° -->
      <g transform="translate(350.291512 48.600262) scale(0.1 -0.1)">
       <use xlink:href="#DejaVuSans-33"/>
       <use xlink:href="#DejaVuSans-31" transform="translate(63.623047 0)"/>
       <use xlink:href="#DejaVuSans-35" transform="translate(127.246094 0)"/>
       <use xlink:href="#DejaVuSans-b0" transform="translate(190.869141 0)"/>
      </g>
     </g>
    </g>
   </g>
   <g id="matplotlib.axis_6">
    <g id="ytick_8">
     <g id="line2d_32">
      <path d="M 408.42625 71.563809 
C 411.10096 71.563809 413.749662 72.090668 416.220771 73.114236 
C 418.691881 74.137803 420.937342 75.638172 422.828648 77.529477 
C 424.719953 79.420783 426.220322 81.666244 427.243889 84.137354 
C 428.267457 86.608463 428.794316 89.257165 428.794316 91.931875 
C 428.794316 94.606585 428.267457 97.255287 427.243889 99.726396 
C 426.220322 102.197506 424.719953 104.442967 422.828648 106.334273 
C 420.937342 108.225578 418.691881 109.725947 416.220771 110.749514 
C 413.749662 111.773082 411.10096 112.299941 408.42625 112.299941 
C 405.75154 112.299941 403.102838 111.773082 400.631729 110.749514 
C 398.160619 109.725947 395.915158 108.225578 394.023852 106.334273 
C 392.132547 104.442967 390.632178 102.197506 389.608611 99.726396 
C 388.585043 97.255287 388.058184 94.606585 388.058184 91.931875 
C 388.058184 89.257165 388.585043 86.608463 389.608611 84.137354 
C 390.632178 81.666244 392.132547 79.420783 394.023852 77.529477 
C 395.915158 75.638172 398.160619 74.137803 400.631729 73.114236 
C 403.102838 72.090668 405.75154 71.563809 408.42625 71.563809 
" clip-path="url(#p524e57e65e)" style="fill: none; stroke: #b0b0b0; stroke-width: 0.8; stroke-linecap: square"/>
     </g>
    </g>
    <g id="ytick_9">
     <g id="line2d_33">
      <path d="M 408.42625 51.195743 
C 413.77567 51.195743 419.073073 52.249462 424.015293 54.296596 
C 428.957512 56.343731 433.448434 59.344469 437.231045 63.12708 
C 441.013656 66.909691 444.014394 71.400613 446.061529 76.342832 
C 448.108663 81.285052 449.162382 86.582455 449.162382 91.931875 
C 449.162382 97.281295 448.108663 102.578698 446.061529 107.520918 
C 444.014394 112.463137 441.013656 116.954059 437.231045 120.73667 
C 433.448434 124.519281 428.957512 127.520019 424.015293 129.567154 
C 419.073073 131.614288 413.77567 132.668007 408.42625 132.668007 
C 403.07683 132.668007 397.779427 131.614288 392.837207 129.567154 
C 387.894988 127.520019 383.404066 124.519281 379.621455 120.73667 
C 375.838844 116.954059 372.838106 112.463137 370.790971 107.520918 
C 368.743837 102.578698 367.690118 97.281295 367.690118 91.931875 
C 367.690118 86.582455 368.743837 81.285052 370.790971 76.342832 
C 372.838106 71.400613 375.838844 66.909691 379.621455 63.12708 
C 383.404066 59.344469 387.894988 56.343731 392.837207 54.296596 
C 397.779427 52.249462 403.07683 51.195743 408.42625 51.195743 
" clip-path="url(#p524e57e65e)" style="fill: none; stroke: #b0b0b0; stroke-width: 0.8; stroke-linecap: square"/>
     </g>
    </g>
   </g>
   <g id="patch_94">
    <path d="M 408.42625 40.749375 
C 401.705026 40.749375 395.049157 42.07331 388.839555 44.645411 
C 382.629954 47.217512 376.98738 50.987759 372.234757 55.740382 
C 367.482134 60.493005 363.711887 66.135579 361.139786 72.34518 
C 358.567685 78.554782 357.24375 85.210651 357.24375 91.931875 
C 357.24375 98.653099 358.567685 105.308968 361.139786 111.51857 
C 363.711887 117.728171 367.482134 123.370745 372.234757 128.123368 
C 376.98738 132.875991 382.629954 136.646238 388.839555 139.218339 
C 395.049157 141.79044 401.705026 143.114375 408.42625 143.114375 
C 415.147474 143.114375 421.803343 141.79044 428.012945 139.218339 
C 434.222546 136.646238 439.86512 132.875991 444.617743 128.123368 
C 449.370366 123.370745 453.140613 117.728171 455.712714 111.51857 
C 458.284815 105.308968 459.60875 98.653099 459.60875 91.931875 
C 459.60875 85.210651 458.284815 78.554782 455.712714 72.34518 
C 453.140613 66.135579 449.370366 60.493005 444.617743 55.740382 
C 439.86512 50.987759 434.222546 47.217512 428.012945 44.645411 
C 421.803343 42.07331 415.147474 40.749375 408.42625 40.749375 
" style="fill: none; stroke: #000000; stroke-width: 0.8; stroke-linejoin: miter; stroke-linecap: square"/>
   </g>
   <g id="text_27">
    <!-- Ours -->
    <g transform="translate(397.837891 14.038594) scale(0.09 -0.09)">
     <defs>
      <path id="DejaVuSans-4f" d="M 2522 4238 
Q 1834 4238 1429 3725 
Q 1025 3213 1025 2328 
Q 1025 1447 1429 934 
Q 1834 422 2522 422 
Q 3209 422 3611 934 
Q 4013 1447 4013 2328 
Q 4013 3213 3611 3725 
Q 3209 4238 2522 4238 
z
M 2522 4750 
Q 3503 4750 4090 4092 
Q 4678 3434 4678 2328 
Q 4678 1225 4090 567 
Q 3503 -91 2522 -91 
Q 1538 -91 948 565 
Q 359 1222 359 2328 
Q 359 3434 948 4092 
Q 1538 4750 2522 4750 
z
" transform="scale(0.015625)"/>
      <path id="DejaVuSans-75" d="M 544 1381 
L 544 3500 
L 1119 3500 
L 1119 1403 
Q 1119 906 1312 657 
Q 1506 409 1894 409 
Q 2359 409 2629 706 
Q 2900 1003 2900 1516 
L 2900 3500 
L 3475 3500 
L 3475 0 
L 2900 0 
L 2900 538 
Q 2691 219 2414 64 
Q 2138 -91 1772 -91 
Q 1169 -91 856 284 
Q 544 659 544 1381 
z
M 1991 3584 
L 1991 3584 
z
" transform="scale(0.015625)"/>
      <path id="DejaVuSans-72" d="M 2631 2963 
Q 2534 3019 2420 3045 
Q 2306 3072 2169 3072 
Q 1681 3072 1420 2755 
Q 1159 2438 1159 1844 
L 1159 0 
L 581 0 
L 581 3500 
L 1159 3500 
L 1159 2956 
Q 1341 3275 1631 3429 
Q 1922 3584 2338 3584 
Q 2397 3584 2469 3576 
Q 2541 3569 2628 3553 
L 2631 2963 
z
" transform="scale(0.015625)"/>
     </defs>
     <use xlink:href="#DejaVuSans-4f"/>
     <use xlink:href="#DejaVuSans-75" transform="translate(78.710938 0)"/>
     <use xlink:href="#DejaVuSans-72" transform="translate(142.089844 0)"/>
     <use xlink:href="#DejaVuSans-73" transform="translate(183.203125 0)"/>
    </g>
   </g>
  </g>
 </g>
 <defs>
  <clipPath id="p35e4be3659">
   <path d="M 135.60875 91.931875 
C 135.60875 85.210651 134.284815 78.554782 131.712714 72.34518 
C 129.140613 66.135579 125.370366 60.493005 120.617743 55.740382 
C 115.86512 50.987759 110.222546 47.217512 104.012945 44.645411 
C 97.803343 42.07331 91.147474 40.749375 84.42625 40.749375 
C 77.705026 40.749375 71.049157 42.07331 64.839555 44.645411 
C 58.629954 47.217512 52.98738 50.987759 48.234757 55.740382 
C 43.482134 60.493005 39.711887 66.135579 37.139786 72.34518 
C 34.567685 78.554782 33.24375 85.210651 33.24375 91.931875 
C 33.24375 98.653099 34.567685 105.308968 37.139786 111.51857 
C 39.711887 117.728171 43.482134 123.370745 48.234757 128.123368 
C 52.98738 132.875991 58.629954 136.646238 64.839555 139.218339 
C 71.049157 141.79044 77.705026 143.114375 84.42625 143.114375 
C 91.147474 143.114375 97.803343 141.79044 104.012945 139.218339 
C 110.222546 136.646238 115.86512 132.875991 120.617743 128.123368 
C 125.370366 123.370745 129.140613 117.728171 131.712714 111.51857 
C 134.284815 105.308968 135.60875 98.653099 135.60875 91.931875 
M 84.42625 91.931875 
C 84.42625 91.931875 84.42625 91.931875 84.42625 91.931875 
C 84.42625 91.931875 84.42625 91.931875 84.42625 91.931875 
C 84.42625 91.931875 84.42625 91.931875 84.42625 91.931875 
C 84.42625 91.931875 84.42625 91.931875 84.42625 91.931875 
C 84.42625 91.931875 84.42625 91.931875 84.42625 91.931875 
C 84.42625 91.931875 84.42625 91.931875 84.42625 91.931875 
C 84.42625 91.931875 84.42625 91.931875 84.42625 91.931875 
C 84.42625 91.931875 84.42625 91.931875 84.42625 91.931875 
C 84.42625 91.931875 84.42625 91.931875 84.42625 91.931875 
C 84.42625 91.931875 84.42625 91.931875 84.42625 91.931875 
C 84.42625 91.931875 84.42625 91.931875 84.42625 91.931875 
C 84.42625 91.931875 84.42625 91.931875 84.42625 91.931875 
C 84.42625 91.931875 84.42625 91.931875 84.42625 91.931875 
C 84.42625 91.931875 84.42625 91.931875 84.42625 91.931875 
C 84.42625 91.931875 84.42625 91.931875 84.42625 91.931875 
C 84.42625 91.931875 84.42625 91.931875 84.42625 91.931875 
z
"/>
  </clipPath>
  <clipPath id="p026521fbee">
   <path d="M 297.60875 91.931875 
C 297.60875 85.210651 296.284815 78.554782 293.712714 72.34518 
C 291.140613 66.135579 287.370366 60.493005 282.617743 55.740382 
C 277.86512 50.987759 272.222546 47.217512 266.012945 44.645411 
C 259.803343 42.07331 253.147474 40.749375 246.42625 40.749375 
C 239.705026 40.749375 233.049157 42.07331 226.839555 44.645411 
C 220.629954 47.217512 214.98738 50.987759 210.234757 55.740382 
C 205.482134 60.493005 201.711887 66.135579 199.139786 72.34518 
C 196.567685 78.554782 195.24375 85.210651 195.24375 91.931875 
C 195.24375 98.653099 196.567685 105.308968 199.139786 111.51857 
C 201.711887 117.728171 205.482134 123.370745 210.234757 128.123368 
C 214.98738 132.875991 220.629954 136.646238 226.839555 139.218339 
C 233.049157 141.79044 239.705026 143.114375 246.42625 143.114375 
C 253.147474 143.114375 259.803343 141.79044 266.012945 139.218339 
C 272.222546 136.646238 277.86512 132.875991 282.617743 128.123368 
C 287.370366 123.370745 291.140613 117.728171 293.712714 111.51857 
C 296.284815 105.308968 297.60875 98.653099 297.60875 91.931875 
M 246.42625 91.931875 
C 246.42625 91.931875 246.42625 91.931875 246.42625 91.931875 
C 246.42625 91.931875 246.42625 91.931875 246.42625 91.931875 
C 246.42625 91.931875 246.42625 91.931875 246.42625 91.931875 
C 246.42625 91.931875 246.42625 91.931875 246.42625 91.931875 
C 246.42625 91.931875 246.42625 91.931875 246.42625 91.931875 
C 246.42625 91.931875 246.42625 91.931875 246.42625 91.931875 
C 246.42625 91.931875 246.42625 91.931875 246.42625 91.931875 
C 246.42625 91.931875 246.42625 91.931875 246.42625 91.931875 
C 246.42625 91.931875 246.42625 91.931875 246.42625 91.931875 
C 246.42625 91.931875 246.42625 91.931875 246.42625 91.931875 
C 246.42625 91.931875 246.42625 91.931875 246.42625 91.931875 
C 246.42625 91.931875 246.42625 91.931875 246.42625 91.931875 
C 246.42625 91.931875 246.42625 91.931875 246.42625 91.931875 
C 246.42625 91.931875 246.42625 91.931875 246.42625 91.931875 
C 246.42625 91.931875 246.42625 91.931875 246.42625 91.931875 
C 246.42625 91.931875 246.42625 91.931875 246.42625 91.931875 
z
"/>
  </clipPath>
  <clipPath id="p524e57e65e">
   <path d="M 459.60875 91.931875 
C 459.60875 85.210651 458.284815 78.554782 455.712714 72.34518 
C 453.140613 66.135579 449.370366 60.493005 444.617743 55.740382 
C 439.86512 50.987759 434.222546 47.217512 428.012945 44.645411 
C 421.803343 42.07331 415.147474 40.749375 408.42625 40.749375 
C 401.705026 40.749375 395.049157 42.07331 388.839555 44.645411 
C 382.629954 47.217512 376.98738 50.987759 372.234757 55.740382 
C 367.482134 60.493005 363.711887 66.135579 361.139786 72.34518 
C 358.567685 78.554782 357.24375 85.210651 357.24375 91.931875 
C 357.24375 98.653099 358.567685 105.308968 361.139786 111.51857 
C 363.711887 117.728171 367.482134 123.370745 372.234757 128.123368 
C 376.98738 132.875991 382.629954 136.646238 388.839555 139.218339 
C 395.049157 141.79044 401.705026 143.114375 408.42625 143.114375 
C 415.147474 143.114375 421.803343 141.79044 428.012945 139.218339 
C 434.222546 136.646238 439.86512 132.875991 444.617743 128.123368 
C 449.370366 123.370745 453.140613 117.728171 455.712714 111.51857 
C 458.284815 105.308968 459.60875 98.653099 459.60875 91.931875 
M 408.42625 91.931875 
C 408.42625 91.931875 408.42625 91.931875 408.42625 91.931875 
C 408.42625 91.931875 408.42625 91.931875 408.42625 91.931875 
C 408.42625 91.931875 408.42625 91.931875 408.42625 91.931875 
C 408.42625 91.931875 408.42625 91.931875 408.42625 91.931875 
C 408.42625 91.931875 408.42625 91.931875 408.42625 91.931875 
C 408.42625 91.931875 408.42625 91.931875 408.42625 91.931875 
C 408.42625 91.931875 408.42625 91.931875 408.42625 91.931875 
C 408.42625 91.931875 408.42625 91.931875 408.42625 91.931875 
C 408.42625 91.931875 408.42625 91.931875 408.42625 91.931875 
C 408.42625 91.931875 408.42625 91.931875 408.42625 91.931875 
C 408.42625 91.931875 408.42625 91.931875 408.42625 91.931875 
C 408.42625 91.931875 408.42625 91.931875 408.42625 91.931875 
C 408.42625 91.931875 408.42625 91.931875 408.42625 91.931875 
C 408.42625 91.931875 408.42625 91.931875 408.42625 91.931875 
C 408.42625 91.931875 408.42625 91.931875 408.42625 91.931875 
C 408.42625 91.931875 408.42625 91.931875 408.42625 91.931875 
z
"/>
  </clipPath>
 </defs>
</svg>
